<svg width="16" height="16" viewBox="0 0 16 16" fill="none" xmlns="http://www.w3.org/2000/svg">
<path fill-rule="evenodd" clip-rule="evenodd" d="M15.665 1.35856C15.6718 1.09419 15.5742 0.827662 15.3725 0.625901C15.2424 0.495844 15.0854 0.4091 14.9195 0.365669C14.8556 0.348917 14.7893 0.338321 14.7211 0.334553C14.7025 0.333519 14.6838 0.333004 14.6652 0.333008C14.6651 0.333008 14.6651 0.333008 14.665 0.333008H2.66504C2.11275 0.333008 1.66504 0.780723 1.66504 1.33301C1.66504 1.88529 2.11275 2.33301 2.66504 2.33301H12.2512L0.624924 13.9592C0.2344 14.3498 0.2344 14.9829 0.624924 15.3734C1.01545 15.764 1.64861 15.764 2.03914 15.3734L13.665 3.74755V13.333C13.665 13.8853 14.1128 14.333 14.665 14.333C15.2173 14.333 15.665 13.8853 15.665 13.333V1.35856Z" fill="#120923" fill-opacity="0.5"/>
</svg>
