<svg width="31" height="33" viewBox="0 0 31 33" fill="none" xmlns="http://www.w3.org/2000/svg">
<path d="M26.9208 3.62103C26.1257 2.88733 22.9124 0.554659 15.7549 0.522967C15.7549 0.522967 7.3145 0.0139868 3.19991 3.78813C0.909501 6.07902 0.103775 9.43109 0.0187848 13.587C-0.0662054 17.7428 -0.176165 25.5312 7.3313 27.643H7.3385L7.3337 30.8654C7.3337 30.8654 7.28568 32.17 8.14471 32.4361C9.1838 32.7587 9.79361 31.7672 10.7856 30.6983C11.3302 30.1115 12.0821 29.2496 12.6487 28.5908C17.7832 29.023 21.7321 28.0353 22.1806 27.8893C23.2173 27.5532 29.0835 26.8017 30.0376 19.0139C31.0224 10.9868 29.5613 5.90952 26.9208 3.62103ZM27.7909 18.4381C26.9856 24.9406 22.2276 25.3492 21.3504 25.6306C20.9773 25.7506 17.509 26.6135 13.1476 26.3288C13.1476 26.3288 9.89781 30.2494 8.88273 31.2688C8.72428 31.4282 8.53797 31.4925 8.4136 31.4608C8.23882 31.4181 8.19081 31.2111 8.19273 30.9086C8.19561 30.4765 8.22058 25.5538 8.22058 25.5538C1.86984 23.7906 2.24005 17.1618 2.31208 13.6907C2.3841 10.2195 3.03618 7.37596 4.97318 5.46344C8.45346 2.31112 15.6229 2.78217 15.6229 2.78217C21.6774 2.80858 24.5785 4.63179 25.2513 5.24256C27.485 7.15508 28.623 11.7316 27.7909 18.4362V18.4381Z" fill="white"/>
<path fill-rule="evenodd" clip-rule="evenodd" d="M15.8756 10.8837C15.8872 10.6605 16.0776 10.4889 16.3009 10.5006C17.1362 10.5441 17.8311 10.797 18.326 11.3087C18.8191 11.8185 19.0608 12.5306 19.1032 13.3859C19.1143 13.6092 18.9422 13.7992 18.7189 13.8103C18.4957 13.8214 18.3057 13.6493 18.2946 13.4261C18.2583 12.6939 18.0574 12.1955 17.7441 11.8715C17.4327 11.5495 16.9574 11.3455 16.2587 11.309C16.0355 11.2974 15.8639 11.107 15.8756 10.8837Z" fill="white"/>
<path fill-rule="evenodd" clip-rule="evenodd" d="M15.2667 8.70241C15.283 8.47945 15.477 8.31193 15.7 8.32825C17.3998 8.45265 18.768 9.03346 19.7646 10.1213L19.7648 10.1215C20.7506 11.1987 21.2191 12.5387 21.1851 14.1105C21.1803 14.334 20.9951 14.5112 20.7716 14.5064C20.5481 14.5015 20.3709 14.3164 20.3757 14.0929C20.4057 12.7068 19.9981 11.5756 19.1676 10.6681C18.3395 9.7643 17.1821 9.24845 15.6409 9.13565C15.4179 9.11934 15.2504 8.92536 15.2667 8.70241Z" fill="white"/>
<path fill-rule="evenodd" clip-rule="evenodd" d="M14.5508 6.6295C14.5523 6.40595 14.7348 6.22599 14.9584 6.22755C17.3075 6.24391 19.2931 7.02594 20.8873 8.58007C22.4949 10.1472 23.2899 12.2807 23.31 14.9304C23.3117 15.154 23.1319 15.3366 22.9083 15.3383C22.6848 15.34 22.5022 15.1601 22.5005 14.9366C22.4816 12.4536 21.7429 10.5447 20.3222 9.15977C18.8882 7.7618 17.1076 7.05211 14.9527 7.0371C14.7292 7.03554 14.5492 6.85305 14.5508 6.6295Z" fill="white"/>
<path d="M16.3611 18.8272C16.3611 18.8272 16.9301 18.8752 17.2365 18.4978L17.8338 17.7463C18.1219 17.3737 18.8172 17.136 19.4981 17.5154C20.0083 17.8064 20.5037 18.1227 20.9823 18.4632C21.4341 18.7955 22.3594 19.5676 22.3623 19.5676C22.8031 19.9398 22.9049 20.4862 22.6048 21.0624C22.6048 21.0658 22.6024 21.0715 22.6024 21.0744C22.2718 21.6474 21.8522 22.1641 21.3592 22.6052C21.3535 22.6081 21.3535 22.6109 21.3482 22.6138C20.9199 22.9717 20.4991 23.1751 20.0858 23.2241C20.025 23.2348 19.9631 23.2386 19.9014 23.2356C19.7192 23.2374 19.5379 23.2095 19.3646 23.153L19.3511 23.1334C18.7144 22.9538 17.6513 22.5043 15.881 21.5277C14.8565 20.9691 13.8811 20.3249 12.9654 19.6017C12.5064 19.2395 12.0685 18.8512 11.654 18.4387L11.6098 18.3946L11.5657 18.3504L11.5215 18.3057C11.5066 18.2913 11.4922 18.2764 11.4773 18.2616C11.0649 17.847 10.6766 17.4092 10.3143 16.9502C9.5913 16.0346 8.94701 15.0594 8.38837 14.0351C7.41171 12.2642 6.96227 11.2021 6.78268 10.5644L6.763 10.551C6.7067 10.3777 6.67897 10.1964 6.68089 10.0141C6.67753 9.95246 6.68123 9.8906 6.69193 9.82976C6.74347 9.41745 6.94722 8.9965 7.30319 8.56691C7.30607 8.56163 7.30895 8.56163 7.31183 8.55587C7.75277 8.06288 8.26952 7.64339 8.84261 7.31319C8.8455 7.31319 8.85126 7.31031 8.85462 7.31031C9.43082 7.0102 9.97726 7.112 10.3489 7.55039C10.3518 7.55327 11.1225 8.47856 11.4533 8.9304C11.7939 9.40948 12.1102 9.90532 12.4012 10.416C12.7805 11.0964 12.5428 11.7932 12.1702 12.0803L11.4187 12.6777C11.0394 12.984 11.0893 13.553 11.0893 13.553C11.0893 13.553 12.2024 17.7655 16.3611 18.8272Z" fill="white"/>
</svg>
