<svg width="32" height="27" viewBox="0 0 32 27" fill="none" xmlns="http://www.w3.org/2000/svg">
<path fill-rule="evenodd" clip-rule="evenodd" d="M2.71521 11.5578C10.9839 7.95525 16.4976 5.58025 19.2564 4.43277C27.1333 1.15648 28.7701 0.587353 29.8369 0.56856C30.0716 0.564426 30.5962 0.622576 30.936 0.898327C31.223 1.13117 31.3019 1.4457 31.3397 1.66646C31.3775 1.88721 31.4245 2.3901 31.3871 2.78305C30.9603 7.26804 29.1133 18.1519 28.1736 23.1752C27.776 25.3007 26.9932 26.0134 26.2352 26.0832C24.5881 26.2347 23.3373 24.9946 21.742 23.9489C19.2456 22.3124 17.8353 21.2938 15.4121 19.6969C12.6117 17.8515 14.4271 16.8372 16.023 15.1796C16.4407 14.7458 23.6981 8.14471 23.8385 7.54588C23.8561 7.47099 23.8724 7.19182 23.7065 7.04441C23.5407 6.897 23.2959 6.94741 23.1193 6.9875C22.8689 7.04433 18.8809 9.68026 11.1552 14.8953C10.0232 15.6726 8.99793 16.0513 8.07928 16.0315C7.06655 16.0096 5.11845 15.4589 3.67024 14.9881C1.89395 14.4107 0.482186 14.1054 0.605119 13.1248C0.669149 12.6141 1.37251 12.0917 2.71521 11.5578Z" fill="white"/>
</svg>
