<svg width="207" height="29" viewBox="0 0 207 29" fill="none" xmlns="http://www.w3.org/2000/svg">
<path d="M201.066 17.9199H206.09V22.8479H201.066V17.9199Z" fill="black"/>
<path d="M193.635 12.8C193.422 11.648 193.038 10.7733 192.483 10.176C191.95 9.57862 191.129 9.27996 190.019 9.27996C189.294 9.27996 188.686 9.40796 188.195 9.66396C187.726 9.89862 187.342 10.1973 187.043 10.56C186.766 10.9226 186.563 11.3066 186.435 11.712C186.329 12.1173 186.265 12.48 186.243 12.8H193.635ZM186.243 15.68C186.307 17.152 186.681 18.2186 187.363 18.88C188.046 19.5413 189.027 19.872 190.307 19.872C191.225 19.872 192.014 19.648 192.675 19.2C193.337 18.7306 193.742 18.24 193.891 17.728H197.891C197.251 19.712 196.27 21.1306 194.947 21.984C193.625 22.8373 192.025 23.264 190.147 23.264C188.846 23.264 187.673 23.0613 186.627 22.656C185.582 22.2293 184.697 21.632 183.971 20.864C183.246 20.096 182.681 19.1786 182.275 18.112C181.891 17.0453 181.699 15.872 181.699 14.592C181.699 13.3546 181.902 12.2026 182.307 11.136C182.713 10.0693 183.289 9.15196 184.035 8.38396C184.782 7.59462 185.667 6.97596 186.691 6.52796C187.737 6.07996 188.889 5.85596 190.147 5.85596C191.555 5.85596 192.782 6.13329 193.827 6.68796C194.873 7.22129 195.726 7.94662 196.387 8.86396C197.07 9.78129 197.561 10.8266 197.859 12C198.158 13.1733 198.265 14.4 198.179 15.68H186.243Z" fill="black"/>
<path d="M170.625 6.30396H174.945V9.37596H175.009C175.222 8.86396 175.51 8.39462 175.873 7.96796C176.236 7.51996 176.652 7.14662 177.121 6.84796C177.59 6.52796 178.092 6.28262 178.625 6.11196C179.158 5.94129 179.713 5.85596 180.289 5.85596C180.588 5.85596 180.918 5.90929 181.281 6.01596V10.24C181.068 10.1973 180.812 10.1653 180.513 10.144C180.214 10.1013 179.926 10.08 179.649 10.08C178.817 10.08 178.113 10.2186 177.537 10.496C176.961 10.7733 176.492 11.1573 176.129 11.648C175.788 12.1173 175.542 12.672 175.393 13.312C175.244 13.952 175.169 14.6453 175.169 15.392V22.848H170.625V6.30396Z" fill="black"/>
<path d="M167.048 3.744H162.504V0H167.048V3.744ZM162.504 6.304H167.048V22.848H162.504V6.304Z" fill="black"/>
<path d="M148.707 17.472C148.707 17.9626 148.803 18.3893 148.995 18.752C149.208 19.0933 149.475 19.3813 149.795 19.616C150.115 19.8293 150.477 19.9893 150.883 20.096C151.309 20.2026 151.747 20.256 152.195 20.256C152.515 20.256 152.845 20.224 153.187 20.16C153.549 20.0746 153.869 19.9573 154.147 19.808C154.445 19.6373 154.691 19.424 154.883 19.168C155.075 18.8906 155.171 18.5493 155.171 18.144C155.171 17.4613 154.712 16.9493 153.795 16.608C152.899 16.2666 151.64 15.9253 150.019 15.584C149.357 15.4346 148.707 15.264 148.067 15.072C147.448 14.8586 146.893 14.592 146.403 14.272C145.912 13.9306 145.517 13.5146 145.219 13.024C144.92 12.512 144.771 11.8933 144.771 11.168C144.771 10.1013 144.973 9.22662 145.379 8.54396C145.805 7.86129 146.36 7.32796 147.043 6.94396C147.725 6.53862 148.493 6.26129 149.347 6.11196C150.2 5.94129 151.075 5.85596 151.971 5.85596C152.867 5.85596 153.731 5.94129 154.563 6.11196C155.416 6.28262 156.173 6.57062 156.835 6.97596C157.496 7.38129 158.04 7.92529 158.467 8.60796C158.915 9.26929 159.181 10.112 159.267 11.136H154.947C154.883 10.2613 154.552 9.67462 153.955 9.37596C153.357 9.05596 152.653 8.89596 151.843 8.89596C151.587 8.89596 151.309 8.91729 151.011 8.95996C150.712 8.98129 150.435 9.04529 150.179 9.15196C149.944 9.25862 149.741 9.41862 149.571 9.63196C149.4 9.82396 149.315 10.0906 149.315 10.432C149.315 10.8373 149.464 11.168 149.763 11.424C150.061 11.68 150.445 11.8933 150.915 12.064C151.405 12.2133 151.96 12.352 152.579 12.48C153.197 12.608 153.827 12.7466 154.467 12.896C155.128 13.0453 155.768 13.2266 156.387 13.44C157.027 13.6533 157.592 13.9413 158.083 14.304C158.573 14.6453 158.968 15.0826 159.267 15.616C159.565 16.128 159.715 16.768 159.715 17.536C159.715 18.624 159.491 19.5413 159.043 20.288C158.616 21.0133 158.051 21.6 157.347 22.048C156.643 22.496 155.832 22.8053 154.915 22.976C154.019 23.168 153.101 23.264 152.163 23.264C151.203 23.264 150.264 23.168 149.347 22.976C148.429 22.784 147.608 22.464 146.883 22.016C146.179 21.568 145.592 20.9813 145.123 20.256C144.675 19.5093 144.429 18.5813 144.387 17.472H148.707Z" fill="black"/>
<path d="M137.948 12.8C137.734 11.648 137.35 10.7733 136.796 10.176C136.262 9.57862 135.441 9.27996 134.332 9.27996C133.606 9.27996 132.998 9.40796 132.508 9.66396C132.038 9.89862 131.654 10.1973 131.356 10.56C131.078 10.9226 130.876 11.3066 130.748 11.712C130.641 12.1173 130.577 12.48 130.556 12.8H137.948ZM130.556 15.68C130.62 17.152 130.993 18.2186 131.676 18.88C132.358 19.5413 133.34 19.872 134.62 19.872C135.537 19.872 136.326 19.648 136.988 19.2C137.649 18.7306 138.054 18.24 138.204 17.728H142.204C141.564 19.712 140.582 21.1306 139.26 21.984C137.937 22.8373 136.337 23.264 134.46 23.264C133.158 23.264 131.985 23.0613 130.94 22.656C129.894 22.2293 129.009 21.632 128.284 20.864C127.558 20.096 126.993 19.1786 126.588 18.112C126.204 17.0453 126.012 15.872 126.012 14.592C126.012 13.3546 126.214 12.2026 126.62 11.136C127.025 10.0693 127.601 9.15196 128.348 8.38396C129.094 7.59462 129.98 6.97596 131.004 6.52796C132.049 6.07996 133.201 5.85596 134.46 5.85596C135.868 5.85596 137.094 6.13329 138.14 6.68796C139.185 7.22129 140.038 7.94662 140.7 8.86396C141.382 9.78129 141.873 10.8266 142.172 12C142.47 13.1733 142.577 14.4 142.492 15.68H130.556Z" fill="black"/>
<path d="M118.995 14.528C118.995 13.8453 118.931 13.1947 118.803 12.576C118.675 11.936 118.451 11.3813 118.131 10.912C117.832 10.4213 117.438 10.0267 116.947 9.728C116.456 9.42933 115.838 9.28 115.091 9.28C114.344 9.28 113.715 9.42933 113.203 9.728C112.691 10.0267 112.275 10.4213 111.955 10.912C111.656 11.4027 111.432 11.968 111.283 12.608C111.155 13.2267 111.091 13.8773 111.091 14.56C111.091 15.2 111.166 15.84 111.315 16.48C111.464 17.12 111.699 17.696 112.019 18.208C112.36 18.6987 112.776 19.104 113.267 19.424C113.779 19.7227 114.387 19.872 115.091 19.872C115.838 19.872 116.456 19.7227 116.947 19.424C117.459 19.1253 117.864 18.7307 118.163 18.24C118.462 17.728 118.675 17.152 118.803 16.512C118.931 15.872 118.995 15.2107 118.995 14.528ZM119.059 20.736H118.995C118.462 21.632 117.758 22.2827 116.883 22.688C116.03 23.072 115.059 23.264 113.971 23.264C112.734 23.264 111.646 23.0293 110.707 22.56C109.768 22.0693 108.99 21.4187 108.371 20.608C107.774 19.776 107.315 18.8267 106.995 17.76C106.696 16.6933 106.547 15.584 106.547 14.432C106.547 13.3227 106.696 12.256 106.995 11.232C107.315 10.1867 107.774 9.26933 108.371 8.48C108.99 7.69067 109.758 7.06133 110.675 6.592C111.592 6.10133 112.659 5.856 113.875 5.856C114.856 5.856 115.784 6.06933 116.659 6.496C117.555 6.90133 118.259 7.50934 118.771 8.32H118.835V0H123.379V22.848H119.059V20.736Z" fill="black"/>
<path d="M91.104 12.8C90.8906 11.648 90.5066 10.7733 89.952 10.176C89.4186 9.57862 88.5973 9.27996 87.488 9.27996C86.7626 9.27996 86.1546 9.40796 85.664 9.66396C85.1946 9.89862 84.8106 10.1973 84.512 10.56C84.2346 10.9226 84.032 11.3066 83.904 11.712C83.7973 12.1173 83.7333 12.48 83.712 12.8H91.104ZM83.712 15.68C83.776 17.152 84.1493 18.2186 84.832 18.88C85.5146 19.5413 86.496 19.872 87.776 19.872C88.6933 19.872 89.4826 19.648 90.144 19.2C90.8053 18.7306 91.2106 18.24 91.36 17.728H95.36C94.72 19.712 93.7386 21.1306 92.416 21.984C91.0933 22.8373 89.4933 23.264 87.616 23.264C86.3146 23.264 85.1413 23.0613 84.096 22.656C83.0506 22.2293 82.1653 21.632 81.44 20.864C80.7146 20.096 80.1493 19.1786 79.744 18.112C79.36 17.0453 79.168 15.872 79.168 14.592C79.168 13.3546 79.3706 12.2026 79.776 11.136C80.1813 10.0693 80.7573 9.15196 81.504 8.38396C82.2506 7.59462 83.136 6.97596 84.16 6.52796C85.2053 6.07996 86.3573 5.85596 87.616 5.85596C89.024 5.85596 90.2506 6.13329 91.296 6.68796C92.3413 7.22129 93.1946 7.94662 93.856 8.86396C94.5386 9.78129 95.0293 10.8266 95.328 12C95.6266 13.1733 95.7333 14.4 95.648 15.68H83.712Z" fill="black"/>
<path d="M71.8477 0H76.3917V22.848H71.8477V0Z" fill="black"/>
<path d="M54.1016 19.4242L62.7096 9.7282H54.7416V6.3042H68.6936V9.7282L60.0856 19.4242H69.3016V22.8482H54.1016V19.4242Z" fill="black"/>
<path d="M37.5078 19.4242L46.1158 9.7282H38.1478V6.3042H52.0998V9.7282L43.4918 19.4242H52.7078V22.8482H37.5078V19.4242Z" fill="black"/>
<path d="M35.0825 22.8482H30.7625V20.5442H30.6665C30.0905 21.5042 29.3438 22.1975 28.4265 22.6242C27.5092 23.0509 26.5705 23.2642 25.6105 23.2642C24.3945 23.2642 23.3918 23.1042 22.6025 22.7842C21.8345 22.4642 21.2265 22.0162 20.7785 21.4402C20.3305 20.8429 20.0105 20.1282 19.8185 19.2962C19.6478 18.4429 19.5625 17.5042 19.5625 16.4802V6.3042H24.1065V15.6482C24.1065 17.0135 24.3198 18.0375 24.7465 18.7202C25.1732 19.3815 25.9305 19.7122 27.0185 19.7122C28.2558 19.7122 29.1518 19.3495 29.7065 18.6242C30.2612 17.8775 30.5385 16.6615 30.5385 14.9762V6.3042H35.0825V22.8482Z" fill="black"/>
<path d="M8.352 19.872C9.09867 19.872 9.71733 19.7226 10.208 19.424C10.72 19.1253 11.1253 18.7413 11.424 18.272C11.744 17.7813 11.968 17.216 12.096 16.576C12.224 15.936 12.288 15.2853 12.288 14.624C12.288 13.9626 12.2133 13.312 12.064 12.672C11.936 12.032 11.712 11.4666 11.392 10.976C11.072 10.464 10.656 10.0586 10.144 9.75996C9.65333 9.43996 9.04533 9.27996 8.32 9.27996C7.57333 9.27996 6.944 9.43996 6.432 9.75996C5.94133 10.0586 5.536 10.4533 5.216 10.944C4.91733 11.4346 4.704 12 4.576 12.64C4.448 13.28 4.384 13.9413 4.384 14.624C4.384 15.2853 4.448 15.936 4.576 16.576C4.72533 17.216 4.94933 17.7813 5.248 18.272C5.568 18.7413 5.984 19.1253 6.496 19.424C7.008 19.7226 7.62667 19.872 8.352 19.872ZM0 6.30396H4.32V8.41596H4.384C4.93867 7.51996 5.64267 6.86929 6.496 6.46396C7.34933 6.05862 8.288 5.85596 9.312 5.85596C10.6133 5.85596 11.7333 6.10129 12.672 6.59196C13.6107 7.08262 14.3893 7.73329 15.008 8.54396C15.6267 9.35462 16.0853 10.304 16.384 11.392C16.6827 12.4586 16.832 13.5786 16.832 14.752C16.832 15.8613 16.6827 16.928 16.384 17.952C16.0853 18.976 15.6267 19.8826 15.008 20.672C14.4107 21.4613 13.6533 22.0906 12.736 22.56C11.84 23.0293 10.784 23.264 9.568 23.264C8.544 23.264 7.59467 23.0613 6.72 22.656C5.86667 22.2293 5.16267 21.6106 4.608 20.8H4.544V28.64H0V6.30396Z" fill="black"/>
</svg>
