<svg width="235" height="34" viewBox="0 0 235 34" fill="none" xmlns="http://www.w3.org/2000/svg">
<path d="M228.855 21.5078H234.56V27.175H228.855V21.5078Z" fill="#120923"/>
<path d="M220.421 15.6204C220.178 14.2956 219.742 13.2897 219.113 12.6028C218.507 11.9158 217.574 11.5724 216.315 11.5724C215.491 11.5724 214.801 11.7196 214.243 12.014C213.711 12.2838 213.275 12.6273 212.935 13.0444C212.62 13.4614 212.39 13.903 212.245 14.3692C212.124 14.8353 212.051 15.2524 212.027 15.6204H220.421ZM212.027 18.9324C212.1 20.6252 212.524 21.8518 213.299 22.6124C214.074 23.3729 215.188 23.7532 216.642 23.7532C217.683 23.7532 218.58 23.4956 219.331 22.9804C220.082 22.4406 220.542 21.8764 220.711 21.2876H225.253C224.527 23.5692 223.412 25.2006 221.91 26.182C220.409 27.1633 218.592 27.654 216.46 27.654C214.982 27.654 213.65 27.4209 212.463 26.9548C211.276 26.4641 210.271 25.7772 209.447 24.894C208.623 24.0108 207.982 22.9558 207.521 21.7292C207.085 20.5025 206.867 19.1532 206.867 17.6812C206.867 16.2582 207.097 14.9334 207.558 13.7068C208.018 12.4801 208.672 11.4252 209.52 10.542C210.368 9.63423 211.373 8.92277 212.536 8.40756C213.723 7.89237 215.031 7.63477 216.46 7.63477C218.059 7.63477 219.452 7.9537 220.639 8.59157C221.826 9.2049 222.795 10.039 223.546 11.094C224.321 12.1489 224.878 13.351 225.217 14.7004C225.556 16.0497 225.677 17.4604 225.58 18.9324H212.027Z" fill="#120923"/>
<path d="M194.289 8.14997H199.194V11.6828H199.267C199.509 11.094 199.836 10.5542 200.248 10.0636C200.66 9.54837 201.132 9.11903 201.665 8.77557C202.198 8.40757 202.768 8.12543 203.373 7.92917C203.979 7.7329 204.609 7.63477 205.263 7.63477C205.602 7.63477 205.977 7.6961 206.389 7.81877V12.6764C206.147 12.6273 205.856 12.5905 205.517 12.566C205.178 12.5169 204.851 12.4924 204.536 12.4924C203.591 12.4924 202.792 12.6518 202.138 12.9708C201.484 13.2897 200.951 13.7313 200.539 14.2956C200.151 14.8353 199.873 15.4732 199.703 16.2092C199.534 16.9452 199.449 17.7425 199.449 18.6012V27.1756H194.289V8.14997Z" fill="#120923"/>
<path d="M190.226 5.20599H185.066V0.900391H190.226V5.20599ZM185.066 8.14999H190.226V27.1756H185.066V8.14999Z" fill="#120923"/>
<path d="M169.402 20.9932C169.402 21.5574 169.511 22.0481 169.729 22.4652C169.971 22.8577 170.274 23.1889 170.637 23.4588C171 23.7041 171.412 23.8881 171.872 24.0108C172.357 24.1334 172.853 24.1948 173.362 24.1948C173.726 24.1948 174.101 24.158 174.489 24.0844C174.9 23.9862 175.264 23.8513 175.579 23.6796C175.918 23.4833 176.196 23.238 176.414 22.9436C176.632 22.6246 176.741 22.2321 176.741 21.766C176.741 20.9809 176.221 20.3921 175.179 19.9996C174.162 19.607 172.732 19.2145 170.891 18.822C170.14 18.6502 169.402 18.454 168.675 18.2332C167.972 17.9878 167.342 17.6812 166.785 17.3132C166.228 16.9206 165.78 16.4422 165.441 15.878C165.102 15.2892 164.932 14.5777 164.932 13.7436C164.932 12.5169 165.162 11.511 165.623 10.726C166.107 9.9409 166.737 9.32757 167.512 8.88597C168.287 8.41983 169.159 8.1009 170.128 7.92917C171.097 7.7329 172.09 7.63477 173.108 7.63477C174.125 7.63477 175.106 7.7329 176.051 7.92917C177.02 8.12543 177.88 8.45663 178.631 8.92276C179.382 9.3889 180 10.0145 180.484 10.7996C180.993 11.5601 181.296 12.5292 181.393 13.7068H176.487C176.414 12.7009 176.039 12.0262 175.361 11.6828C174.682 11.3148 173.883 11.1308 172.962 11.1308C172.672 11.1308 172.357 11.1553 172.018 11.2044C171.679 11.2289 171.364 11.3025 171.073 11.4252C170.807 11.5478 170.576 11.7318 170.383 11.9772C170.189 12.198 170.092 12.5046 170.092 12.8972C170.092 13.3633 170.261 13.7436 170.601 14.038C170.94 14.3324 171.376 14.5777 171.909 14.774C172.466 14.9457 173.096 15.1052 173.798 15.2524C174.501 15.3996 175.215 15.559 175.942 15.7308C176.693 15.9025 177.42 16.111 178.122 16.3564C178.849 16.6017 179.491 16.9329 180.048 17.35C180.605 17.7425 181.053 18.2454 181.393 18.8588C181.732 19.4476 181.901 20.1836 181.901 21.0668C181.901 22.318 181.647 23.3729 181.138 24.2316C180.654 25.0657 180.012 25.7404 179.212 26.2556C178.413 26.7708 177.492 27.1265 176.451 27.3228C175.433 27.5436 174.392 27.654 173.326 27.654C172.236 27.654 171.17 27.5436 170.128 27.3228C169.087 27.102 168.154 26.734 167.33 26.2188C166.531 25.7036 165.865 25.0289 165.332 24.1948C164.823 23.3361 164.545 22.2689 164.496 20.9932H169.402Z" fill="#120923"/>
<path d="M157.186 15.6204C156.944 14.2956 156.508 13.2897 155.878 12.6028C155.273 11.9158 154.34 11.5724 153.08 11.5724C152.257 11.5724 151.566 11.7196 151.009 12.014C150.476 12.2838 150.04 12.6273 149.701 13.0444C149.386 13.4614 149.156 13.903 149.011 14.3692C148.889 14.8353 148.817 15.2524 148.793 15.6204H157.186ZM148.793 18.9324C148.865 20.6252 149.289 21.8518 150.064 22.6124C150.84 23.3729 151.954 23.7532 153.407 23.7532C154.449 23.7532 155.345 23.4956 156.096 22.9804C156.847 22.4406 157.307 21.8764 157.477 21.2876H162.019C161.292 23.5692 160.178 25.2006 158.676 26.182C157.174 27.1633 155.357 27.654 153.226 27.654C151.748 27.654 150.416 27.4209 149.229 26.9548C148.042 26.4641 147.036 25.7772 146.213 24.894C145.389 24.0108 144.747 22.9558 144.287 21.7292C143.851 20.5025 143.633 19.1532 143.633 17.6812C143.633 16.2582 143.863 14.9334 144.323 13.7068C144.783 12.4801 145.438 11.4252 146.285 10.542C147.133 9.63423 148.139 8.92277 149.301 8.40756C150.488 7.89237 151.796 7.63477 153.226 7.63477C154.824 7.63477 156.217 7.9537 157.404 8.59157C158.591 9.2049 159.56 10.039 160.311 11.094C161.086 12.1489 161.644 13.351 161.983 14.7004C162.322 16.0497 162.443 17.4604 162.346 18.9324H148.793Z" fill="#120923"/>
<path d="M135.662 17.6076C135.662 16.8225 135.59 16.0743 135.444 15.3628C135.299 14.6268 135.045 13.9889 134.681 13.4492C134.342 12.8849 133.894 12.4311 133.337 12.0876C132.78 11.7441 132.077 11.5724 131.229 11.5724C130.381 11.5724 129.667 11.7441 129.085 12.0876C128.504 12.4311 128.032 12.8849 127.668 13.4492C127.329 14.0135 127.075 14.6636 126.905 15.3996C126.76 16.1111 126.687 16.8593 126.687 17.6444C126.687 18.3804 126.772 19.1164 126.941 19.8524C127.111 20.5884 127.378 21.2508 127.741 21.8396C128.128 22.4039 128.601 22.87 129.158 23.238C129.739 23.5815 130.43 23.7532 131.229 23.7532C132.077 23.7532 132.78 23.5815 133.337 23.238C133.918 22.8945 134.378 22.4407 134.717 21.8764C135.057 21.2876 135.299 20.6252 135.444 19.8892C135.59 19.1532 135.662 18.3927 135.662 17.6076ZM135.735 24.7468H135.662C135.057 25.7772 134.257 26.5255 133.264 26.9916C132.295 27.4332 131.193 27.654 129.957 27.654C128.552 27.654 127.317 27.3841 126.251 26.8444C125.185 26.2801 124.301 25.5319 123.599 24.5996C122.92 23.6428 122.399 22.5511 122.036 21.3244C121.697 20.0977 121.527 18.822 121.527 17.4972C121.527 16.2215 121.697 14.9948 122.036 13.8172C122.399 12.6151 122.92 11.5601 123.599 10.6524C124.301 9.74466 125.173 9.02093 126.215 8.48119C127.256 7.91693 128.468 7.63479 129.848 7.63479C130.963 7.63479 132.016 7.88013 133.01 8.37079C134.027 8.83693 134.826 9.53613 135.408 10.4684H135.481V0.900391H140.64V27.1756H135.735V24.7468Z" fill="#120923"/>
<path d="M103.995 15.6204C103.753 14.2956 103.317 13.2897 102.687 12.6028C102.081 11.9158 101.149 11.5724 99.8889 11.5724C99.0653 11.5724 98.3749 11.7196 97.8177 12.014C97.2848 12.2838 96.8487 12.6273 96.5096 13.0444C96.1947 13.4614 95.9645 13.903 95.8192 14.3692C95.6981 14.8353 95.6254 15.2524 95.6012 15.6204H103.995ZM95.6012 18.9324C95.6739 20.6252 96.0978 21.8518 96.873 22.6124C97.6481 23.3729 98.7625 23.7532 100.216 23.7532C101.258 23.7532 102.154 23.4956 102.905 22.9804C103.656 22.4406 104.116 21.8764 104.286 21.2876H108.828C108.101 23.5692 106.987 25.2006 105.485 26.182C103.983 27.1633 102.166 27.654 100.034 27.654C98.5565 27.654 97.2242 27.4209 96.0372 26.9548C94.8502 26.4641 93.8449 25.7772 93.0213 24.894C92.1977 24.0108 91.5557 22.9558 91.0955 21.7292C90.6594 20.5025 90.4414 19.1532 90.4414 17.6812C90.4414 16.2582 90.6715 14.9334 91.1318 13.7068C91.5921 12.4801 92.2461 11.4252 93.094 10.542C93.9418 9.63423 94.9471 8.92277 96.1099 8.40756C97.2969 7.89237 98.605 7.63477 100.034 7.63477C101.633 7.63477 103.026 7.9537 104.213 8.59157C105.4 9.2049 106.369 10.039 107.12 11.094C107.895 12.1489 108.452 13.351 108.791 14.7004C109.13 16.0497 109.252 17.4604 109.155 18.9324H95.6012Z" fill="#120923"/>
<path d="M82.125 0.900391H87.2848V27.1756H82.125V0.900391Z" fill="#120923"/>
<path d="M61.9766 23.2384L71.7511 12.088H62.7033V8.15039H78.546V12.088L68.7715 23.2384H79.2364V27.176H61.9766V23.2384Z" fill="#120923"/>
<path d="M43.1328 23.2384L52.9073 12.088H43.8595V8.15039H59.7022V12.088L49.9277 23.2384H60.3926V27.176H43.1328V23.2384Z" fill="#120923"/>
<path d="M40.381 27.176H35.4756V24.5264H35.3666C34.7125 25.6304 33.8647 26.4277 32.823 26.9184C31.7814 27.4091 30.7155 27.6544 29.6254 27.6544C28.2446 27.6544 27.1061 27.4704 26.2098 27.1024C25.3377 26.7344 24.6473 26.2192 24.1386 25.5568C23.6299 24.8699 23.2665 24.048 23.0485 23.0912C22.8547 22.1099 22.7578 21.0304 22.7578 19.8528V8.15039H27.9176V18.896C27.9176 20.4661 28.1598 21.6437 28.6443 22.4288C29.1288 23.1893 29.9888 23.5696 31.2242 23.5696C32.6292 23.5696 33.6466 23.1525 34.2765 22.3184C34.9063 21.4597 35.2212 20.0613 35.2212 18.1232V8.15039H40.381V27.176Z" fill="#120923"/>
<path d="M10.0268 23.7532C10.8746 23.7532 11.5771 23.5814 12.1343 23.238C12.7157 22.8945 13.1759 22.4529 13.5151 21.9132C13.8784 21.3489 14.1328 20.6988 14.2781 19.9628C14.4235 19.2268 14.4962 18.4785 14.4962 17.718C14.4962 16.9574 14.4114 16.2092 14.2418 15.4732C14.0965 14.7372 13.8421 14.087 13.4787 13.5228C13.1154 12.934 12.643 12.4678 12.0616 12.1244C11.5045 11.7564 10.8141 11.5724 9.99045 11.5724C9.1426 11.5724 8.42798 11.7564 7.8466 12.1244C7.28944 12.4678 6.82917 12.9217 6.46581 13.486C6.12667 14.0502 5.88443 14.7004 5.73908 15.4364C5.59374 16.1724 5.52106 16.9329 5.52106 17.718C5.52106 18.4785 5.59374 19.2268 5.73908 19.9628C5.90865 20.6988 6.16301 21.3489 6.50215 21.9132C6.86551 22.4529 7.33788 22.8945 7.91927 23.238C8.50065 23.5814 9.20316 23.7532 10.0268 23.7532ZM0.542969 8.14997H5.44839V10.5788H5.52106C6.15089 9.54837 6.9503 8.8001 7.91927 8.33397C8.88824 7.86783 9.95411 7.63477 11.1169 7.63477C12.5946 7.63477 13.8663 7.9169 14.9322 8.48117C15.9981 9.04543 16.8823 9.7937 17.5848 10.726C18.2873 11.6582 18.8081 12.75 19.1472 14.0012C19.4864 15.2278 19.6559 16.5158 19.6559 17.8652C19.6559 19.1409 19.4864 20.3676 19.1472 21.5452C18.8081 22.7228 18.2873 23.7654 17.5848 24.6732C16.9065 25.5809 16.0465 26.3046 15.0049 26.8444C13.9875 27.3841 12.7884 27.654 11.4076 27.654C10.2448 27.654 9.16682 27.4209 8.17362 26.9548C7.20465 26.4641 6.40525 25.7526 5.77542 24.8204H5.70274V33.8364H0.542969V8.14997Z" fill="#120923"/>
</svg>
