<svg width="28" height="22" viewBox="0 0 28 22" fill="none" xmlns="http://www.w3.org/2000/svg">
<path fill-rule="evenodd" clip-rule="evenodd" d="M28 4V4.21067L15.048 12.1813C14.7328 12.3752 14.37 12.4779 14 12.4779C13.63 12.4779 13.2672 12.3752 12.952 12.1813L0 4.21067V4C0 2.93913 0.421427 1.92172 1.17157 1.17157C1.92172 0.421427 2.93913 0 4 0H24C25.0609 0 26.0783 0.421427 26.8284 1.17157C27.5786 1.92172 28 2.93913 28 4ZM0 17.9999V6.5599L11.904 13.8839C12.5343 14.2717 13.2599 14.477 14 14.477C14.7401 14.477 15.4657 14.2717 16.096 13.8839L28 6.5599V17.9999C28 19.0608 27.5786 20.0782 26.8284 20.8283C26.0783 21.5785 25.0609 21.9999 24 21.9999H4C2.93913 21.9999 1.92172 21.5785 1.17157 20.8283C0.421427 20.0782 0 19.0608 0 17.9999Z" fill="white" fill-opacity="0.4"/>
<path fill-rule="evenodd" clip-rule="evenodd" d="M28 4V4.21067L15.048 12.1813C14.7328 12.3752 14.37 12.4779 14 12.4779C13.63 12.4779 13.2672 12.3752 12.952 12.1813L0 4.21067V4C0 2.93913 0.421427 1.92172 1.17157 1.17157C1.92172 0.421427 2.93913 0 4 0H24C25.0609 0 26.0783 0.421427 26.8284 1.17157C27.5786 1.92172 28 2.93913 28 4ZM0 17.9999V6.5599L11.904 13.8839C12.5343 14.2717 13.2599 14.477 14 14.477C14.7401 14.477 15.4657 14.2717 16.096 13.8839L28 6.5599V17.9999C28 19.0608 27.5786 20.0782 26.8284 20.8283C26.0783 21.5785 25.0609 21.9999 24 21.9999H4C2.93913 21.9999 1.92172 21.5785 1.17157 20.8283C0.421427 20.0782 0 19.0608 0 17.9999Z" fill="white" fill-opacity="0.4"/>
</svg>
