<svg width="934" height="934" viewBox="0 0 934 934" fill="none" xmlns="http://www.w3.org/2000/svg">
<g filter="url(#filter0_f_79_4580)">
<g filter="url(#filter1_i_79_4580)">
<path fill-rule="evenodd" clip-rule="evenodd" d="M258.189 675.198C254.744 678.643 249.147 678.651 245.804 675.107C192.7 618.829 163.001 544.291 163.001 466.692C163.001 389.092 192.7 314.555 245.804 258.276C249.147 254.733 254.744 254.74 258.189 258.185L284.045 284.042C287.433 287.43 287.442 292.873 284.577 296.714C267.827 319.161 267.106 348.227 284.161 365.282C301.216 382.336 330.282 381.616 352.728 364.866C356.569 362 362.012 362.009 365.401 365.397L460.458 460.454C463.902 463.899 463.902 469.484 460.458 472.929L379.468 553.918C375.07 558.316 367.549 556.899 364.021 551.777C361.63 548.307 358.869 544.976 355.743 541.85C332.682 518.789 298.497 515.584 279.389 534.692C260.282 553.799 263.486 587.984 286.547 611.045C289.674 614.171 293.005 616.933 296.474 619.323C301.597 622.852 303.014 630.373 298.616 634.771L258.189 675.198Z" fill="url(#paint0_linear_79_4580)"/>
</g>
<g opacity="0.4" filter="url(#filter2_i_79_4580)">
<path fill-rule="evenodd" clip-rule="evenodd" d="M675.196 675.192C678.641 678.637 678.649 684.234 675.105 687.577C618.826 740.681 544.289 770.38 466.69 770.38C389.09 770.38 314.553 740.681 258.274 687.577C254.73 684.234 254.738 678.638 258.183 675.193L298.61 634.766C303.008 630.368 301.591 622.847 296.469 619.318C293 616.928 289.67 614.167 286.544 611.041C263.483 587.98 260.278 553.796 279.386 534.688C298.493 515.58 332.678 518.785 355.739 541.846C358.865 544.972 361.626 548.302 364.016 551.771C367.545 556.893 375.065 558.31 379.463 553.912L460.452 472.924C463.897 469.479 469.482 469.479 472.927 472.924L525.988 525.985C530.621 530.617 528.773 538.655 523.152 542.021C518.375 544.882 513.822 548.407 509.644 552.585C485.924 576.305 483.253 612.092 503.679 632.518C524.104 652.943 559.891 650.272 583.611 626.552C587.79 622.374 591.315 617.821 594.176 613.044C597.542 607.423 605.579 605.576 610.212 610.208L675.196 675.192Z" fill="url(#paint1_linear_79_4580)"/>
</g>
<g opacity="0.4" filter="url(#filter3_i_79_4580)">
<path fill-rule="evenodd" clip-rule="evenodd" d="M284.158 365.278C267.103 348.223 267.824 319.156 284.574 296.709C287.44 292.869 287.431 287.426 284.043 284.037L258.183 258.178C254.738 254.733 254.73 249.138 258.273 245.794C285.105 220.478 316.344 200.244 350.471 186.108C387.317 170.846 426.808 162.991 466.69 162.991C506.571 162.991 546.062 170.846 582.908 186.108C617.036 200.244 648.275 220.478 675.106 245.794C678.65 249.138 678.641 254.733 675.196 258.178L630.921 302.453C627.01 306.364 620.513 305.714 616.676 301.73C616.394 301.437 616.108 301.145 615.819 300.856C594.076 279.113 560.96 276.976 541.852 296.084C522.744 315.192 524.881 348.308 546.624 370.051C546.913 370.341 547.204 370.626 547.498 370.909C551.482 374.745 552.131 381.243 548.22 385.154L472.927 460.447C469.482 463.892 463.897 463.892 460.452 460.447L365.398 365.393C362.01 362.005 356.567 361.996 352.726 364.862C330.279 381.612 301.213 382.333 284.158 365.278Z" fill="url(#paint2_linear_79_4580)"/>
</g>
<g filter="url(#filter4_i_79_4580)">
<path fill-rule="evenodd" clip-rule="evenodd" d="M525.99 525.988C530.623 530.621 528.775 538.659 523.154 542.025C518.376 544.886 513.823 548.411 509.644 552.59C485.924 576.31 483.253 612.097 503.679 632.523C524.104 652.948 559.891 650.277 583.611 626.557C587.79 622.378 591.316 617.825 594.177 613.047C597.543 607.426 605.581 605.578 610.213 610.211L675.197 675.195C678.642 678.64 684.239 678.648 687.582 675.104C740.686 618.825 770.385 544.288 770.385 466.688C770.385 389.089 740.685 314.552 687.582 258.273C684.238 254.729 678.642 254.737 675.197 258.182L630.922 302.458C627.01 306.369 620.512 305.719 616.676 301.735C616.393 301.441 616.106 301.148 615.816 300.858C594.073 279.115 560.957 276.979 541.849 296.086C522.741 315.194 524.878 348.31 546.621 370.054C546.911 370.344 547.203 370.63 547.497 370.913C551.482 374.75 552.132 381.248 548.221 385.159L472.928 460.451C469.483 463.896 469.483 469.481 472.928 472.926L525.99 525.988Z" fill="url(#paint3_linear_79_4580)"/>
</g>
</g>
<g filter="url(#filter5_i_79_4580)">
<path fill-rule="evenodd" clip-rule="evenodd" d="M278.889 654.495C268.884 664.501 252.562 664.567 243.474 653.721C199.723 601.509 175.477 535.35 175.477 466.692C175.477 398.033 199.723 331.874 243.474 279.662C252.562 268.816 268.884 268.882 278.889 278.888L279.693 279.691C289.534 289.532 289.028 305.349 283.854 318.269C276.488 336.664 278.82 356.607 291.661 369.448C304.502 382.289 324.445 384.621 342.839 377.255C355.76 372.081 371.577 371.575 381.418 381.416L448.577 448.575C458.582 458.58 458.582 474.803 448.577 484.808L391.827 541.557C383.395 549.989 368.732 547.193 360.3 538.761V538.761C338.186 516.648 305.406 513.574 287.084 531.897C268.761 550.22 271.834 583 293.948 605.113V605.113C302.38 613.545 305.176 628.209 296.744 636.641L278.889 654.495Z" fill="url(#paint4_linear_79_4580)"/>
</g>
<g opacity="0.4" filter="url(#filter6_i_79_4580)">
<path fill-rule="evenodd" clip-rule="evenodd" d="M654.493 654.492C664.499 664.497 664.565 680.819 653.719 689.907C601.507 733.658 535.348 757.904 466.69 757.904C398.031 757.904 331.872 733.658 279.66 689.908C268.814 680.82 268.88 664.497 278.886 654.492L296.742 636.636C305.173 628.204 302.377 613.543 293.946 605.112V605.112C271.833 582.998 268.759 550.218 287.082 531.895C305.405 513.573 338.185 516.646 360.298 538.759V538.759C368.729 547.191 383.391 549.986 391.822 541.555L448.573 484.804C458.578 474.799 474.801 474.799 484.806 484.804L511.895 511.893C521.697 521.695 517.681 539.255 507.879 549.057V549.057C485.134 571.802 482.573 606.119 502.159 625.705C521.745 645.291 556.062 642.73 578.807 619.985V619.985C588.61 610.183 606.169 606.168 615.971 615.97L654.493 654.492Z" fill="url(#paint5_linear_79_4580)"/>
</g>
<g opacity="0.4" filter="url(#filter7_i_79_4580)">
<path fill-rule="evenodd" clip-rule="evenodd" d="M291.655 369.446C278.814 356.605 276.482 336.661 283.849 318.266C289.023 305.345 289.53 289.528 279.688 279.686L278.884 278.882C268.878 268.876 268.811 252.556 279.657 243.468C302.335 224.466 327.817 208.998 355.244 197.637C390.576 183.002 428.444 175.47 466.687 175.47C504.93 175.47 542.799 183.002 578.131 197.637C605.558 208.998 631.04 224.466 653.718 243.468C664.564 252.556 664.497 268.876 654.491 278.882L625.001 308.372C620.82 312.553 613.871 311.852 609.69 307.671V307.671C588.84 286.821 557.084 284.772 538.761 303.095C520.439 321.418 522.488 353.173 543.338 374.023V374.023C547.519 378.204 548.22 385.153 544.038 389.335L484.804 448.569C474.799 458.574 458.576 458.574 448.571 448.569L381.415 381.413C371.574 371.572 355.756 372.078 342.836 377.253C324.44 384.62 304.497 382.288 291.655 369.446Z" fill="url(#paint6_linear_79_4580)"/>
</g>
<g filter="url(#filter8_i_79_4580)">
<path fill-rule="evenodd" clip-rule="evenodd" d="M511.895 511.893C521.698 521.697 517.681 539.259 507.878 549.062V549.062C485.133 571.807 482.572 606.124 502.158 625.71C521.745 645.296 556.061 642.735 578.806 619.99V619.99C588.61 610.187 606.172 606.17 615.975 615.973L654.495 654.493C664.5 664.499 680.822 664.565 689.911 653.719C733.661 601.507 757.907 535.348 757.907 466.689C757.906 398.031 733.661 331.872 689.91 279.66C680.822 268.814 664.5 268.88 654.495 278.885L625.006 308.374C620.824 312.556 613.873 311.855 609.69 307.673V307.673C588.84 286.823 557.085 284.774 538.762 303.097C520.439 321.419 522.488 353.175 543.338 374.025V374.025C547.521 378.207 548.222 385.158 544.039 389.341L484.807 448.573C474.802 458.578 474.802 474.801 484.807 484.806L511.895 511.893Z" fill="url(#paint7_linear_79_4580)"/>
</g>
<defs>
<filter id="filter0_f_79_4580" x="-63.6339" y="-63.6349" width="1060.65" height="1060.65" filterUnits="userSpaceOnUse" color-interpolation-filters="sRGB">
<feFlood flood-opacity="0" result="BackgroundImageFix"/>
<feBlend mode="normal" in="SourceGraphic" in2="BackgroundImageFix" result="shape"/>
<feGaussianBlur stdDeviation="51.0201" result="effect1_foregroundBlur_79_4580"/>
</filter>
<filter id="filter1_i_79_4580" x="163.002" y="255.61" width="312.87" height="434.994" filterUnits="userSpaceOnUse" color-interpolation-filters="sRGB">
<feFlood flood-opacity="0" result="BackgroundImageFix"/>
<feBlend mode="normal" in="SourceGraphic" in2="BackgroundImageFix" result="shape"/>
<feColorMatrix in="SourceAlpha" type="matrix" values="0 0 0 0 0 0 0 0 0 0 0 0 0 0 0 0 0 0 127 0" result="hardAlpha"/>
<feOffset dx="12.8308" dy="12.8308"/>
<feGaussianBlur stdDeviation="20.9302"/>
<feComposite in2="hardAlpha" operator="arithmetic" k2="-1" k3="1"/>
<feColorMatrix type="matrix" values="0 0 0 0 1 0 0 0 0 0.809843 0 0 0 0 0.672143 0 0 0 0.13 0"/>
<feBlend mode="normal" in2="shape" result="effect1_innerShadow_79_4580"/>
</filter>
<filter id="filter2_i_79_4580" x="255.607" y="470.34" width="434.995" height="312.871" filterUnits="userSpaceOnUse" color-interpolation-filters="sRGB">
<feFlood flood-opacity="0" result="BackgroundImageFix"/>
<feBlend mode="normal" in="SourceGraphic" in2="BackgroundImageFix" result="shape"/>
<feColorMatrix in="SourceAlpha" type="matrix" values="0 0 0 0 0 0 0 0 0 0 0 0 0 0 0 0 0 0 127 0" result="hardAlpha"/>
<feOffset dx="12.8308" dy="12.8308"/>
<feGaussianBlur stdDeviation="20.9302"/>
<feComposite in2="hardAlpha" operator="arithmetic" k2="-1" k3="1"/>
<feColorMatrix type="matrix" values="0 0 0 0 1 0 0 0 0 0.809843 0 0 0 0 0.672143 0 0 0 0.13 0"/>
<feBlend mode="normal" in2="shape" result="effect1_innerShadow_79_4580"/>
</filter>
<filter id="filter3_i_79_4580" x="255.607" y="162.99" width="434.995" height="312.871" filterUnits="userSpaceOnUse" color-interpolation-filters="sRGB">
<feFlood flood-opacity="0" result="BackgroundImageFix"/>
<feBlend mode="normal" in="SourceGraphic" in2="BackgroundImageFix" result="shape"/>
<feColorMatrix in="SourceAlpha" type="matrix" values="0 0 0 0 0 0 0 0 0 0 0 0 0 0 0 0 0 0 127 0" result="hardAlpha"/>
<feOffset dx="12.8308" dy="12.8308"/>
<feGaussianBlur stdDeviation="20.9302"/>
<feComposite in2="hardAlpha" operator="arithmetic" k2="-1" k3="1"/>
<feColorMatrix type="matrix" values="0 0 0 0 1 0 0 0 0 0.809843 0 0 0 0 0.672143 0 0 0 0.13 0"/>
<feBlend mode="normal" in2="shape" result="effect1_innerShadow_79_4580"/>
</filter>
<filter id="filter4_i_79_4580" x="470.344" y="255.606" width="312.872" height="434.995" filterUnits="userSpaceOnUse" color-interpolation-filters="sRGB">
<feFlood flood-opacity="0" result="BackgroundImageFix"/>
<feBlend mode="normal" in="SourceGraphic" in2="BackgroundImageFix" result="shape"/>
<feColorMatrix in="SourceAlpha" type="matrix" values="0 0 0 0 0 0 0 0 0 0 0 0 0 0 0 0 0 0 127 0" result="hardAlpha"/>
<feOffset dx="12.8308" dy="12.8308"/>
<feGaussianBlur stdDeviation="20.9302"/>
<feComposite in2="hardAlpha" operator="arithmetic" k2="-1" k3="1"/>
<feColorMatrix type="matrix" values="0 0 0 0 1 0 0 0 0 0.809843 0 0 0 0 0.672143 0 0 0 0.13 0"/>
<feBlend mode="normal" in2="shape" result="effect1_innerShadow_79_4580"/>
</filter>
<filter id="filter5_i_79_4580" x="175.477" y="271.453" width="294.585" height="404.458" filterUnits="userSpaceOnUse" color-interpolation-filters="sRGB">
<feFlood flood-opacity="0" result="BackgroundImageFix"/>
<feBlend mode="normal" in="SourceGraphic" in2="BackgroundImageFix" result="shape"/>
<feColorMatrix in="SourceAlpha" type="matrix" values="0 0 0 0 0 0 0 0 0 0 0 0 0 0 0 0 0 0 127 0" result="hardAlpha"/>
<feOffset dx="13.9813" dy="13.9813"/>
<feGaussianBlur stdDeviation="22.8071"/>
<feComposite in2="hardAlpha" operator="arithmetic" k2="-1" k3="1"/>
<feColorMatrix type="matrix" values="0 0 0 0 1 0 0 0 0 0.809843 0 0 0 0 0.672143 0 0 0 0.13 0"/>
<feBlend mode="normal" in2="shape" result="effect1_innerShadow_79_4580"/>
</filter>
<filter id="filter6_i_79_4580" x="271.451" y="477.3" width="404.458" height="294.585" filterUnits="userSpaceOnUse" color-interpolation-filters="sRGB">
<feFlood flood-opacity="0" result="BackgroundImageFix"/>
<feBlend mode="normal" in="SourceGraphic" in2="BackgroundImageFix" result="shape"/>
<feColorMatrix in="SourceAlpha" type="matrix" values="0 0 0 0 0 0 0 0 0 0 0 0 0 0 0 0 0 0 127 0" result="hardAlpha"/>
<feOffset dx="13.9813" dy="13.9813"/>
<feGaussianBlur stdDeviation="22.8071"/>
<feComposite in2="hardAlpha" operator="arithmetic" k2="-1" k3="1"/>
<feColorMatrix type="matrix" values="0 0 0 0 1 0 0 0 0 0.809843 0 0 0 0 0.672143 0 0 0 0.13 0"/>
<feBlend mode="normal" in2="shape" result="effect1_innerShadow_79_4580"/>
</filter>
<filter id="filter7_i_79_4580" x="271.449" y="175.47" width="404.458" height="294.585" filterUnits="userSpaceOnUse" color-interpolation-filters="sRGB">
<feFlood flood-opacity="0" result="BackgroundImageFix"/>
<feBlend mode="normal" in="SourceGraphic" in2="BackgroundImageFix" result="shape"/>
<feColorMatrix in="SourceAlpha" type="matrix" values="0 0 0 0 0 0 0 0 0 0 0 0 0 0 0 0 0 0 127 0" result="hardAlpha"/>
<feOffset dx="13.9813" dy="13.9813"/>
<feGaussianBlur stdDeviation="22.8071"/>
<feComposite in2="hardAlpha" operator="arithmetic" k2="-1" k3="1"/>
<feColorMatrix type="matrix" values="0 0 0 0 1 0 0 0 0 0.809843 0 0 0 0 0.672143 0 0 0 0.13 0"/>
<feBlend mode="normal" in2="shape" result="effect1_innerShadow_79_4580"/>
</filter>
<filter id="filter8_i_79_4580" x="477.303" y="271.451" width="294.585" height="404.458" filterUnits="userSpaceOnUse" color-interpolation-filters="sRGB">
<feFlood flood-opacity="0" result="BackgroundImageFix"/>
<feBlend mode="normal" in="SourceGraphic" in2="BackgroundImageFix" result="shape"/>
<feColorMatrix in="SourceAlpha" type="matrix" values="0 0 0 0 0 0 0 0 0 0 0 0 0 0 0 0 0 0 127 0" result="hardAlpha"/>
<feOffset dx="13.9813" dy="13.9813"/>
<feGaussianBlur stdDeviation="22.8071"/>
<feComposite in2="hardAlpha" operator="arithmetic" k2="-1" k3="1"/>
<feColorMatrix type="matrix" values="0 0 0 0 1 0 0 0 0 0.809843 0 0 0 0 0.672143 0 0 0 0.13 0"/>
<feBlend mode="normal" in2="shape" result="effect1_innerShadow_79_4580"/>
</filter>
<linearGradient id="paint0_linear_79_4580" x1="256.45" y1="275.56" x2="236.601" y2="648.267" gradientUnits="userSpaceOnUse">
<stop stop-color="#FF4980"/>
<stop offset="1" stop-color="#FF82A7"/>
</linearGradient>
<linearGradient id="paint1_linear_79_4580" x1="410.838" y1="431.418" x2="320.378" y2="790.29" gradientUnits="userSpaceOnUse">
<stop stop-color="#FF9548"/>
<stop offset="1" stop-color="#FFBC8B"/>
</linearGradient>
<linearGradient id="paint2_linear_79_4580" x1="174.03" y1="833.036" x2="-198.657" y2="67.0126" gradientUnits="userSpaceOnUse">
<stop stop-color="#76BDFF"/>
<stop offset="1" stop-color="#0C84F2"/>
</linearGradient>
<linearGradient id="paint3_linear_79_4580" x1="589.755" y1="695.661" x2="616.665" y2="234.754" gradientUnits="userSpaceOnUse">
<stop stop-color="#94FFD5"/>
<stop offset="0.499941" stop-color="#66F6BD"/>
<stop offset="1" stop-color="#44F0AC"/>
</linearGradient>
<linearGradient id="paint4_linear_79_4580" x1="265.72" y1="283.989" x2="246.747" y2="640.259" gradientUnits="userSpaceOnUse">
<stop stop-color="#FF4980"/>
<stop offset="1" stop-color="#FF82A7"/>
</linearGradient>
<linearGradient id="paint5_linear_79_4580" x1="413.131" y1="432.805" x2="326.541" y2="775.885" gradientUnits="userSpaceOnUse">
<stop stop-color="#FF9548"/>
<stop offset="1" stop-color="#FFBC8B"/>
</linearGradient>
<linearGradient id="paint6_linear_79_4580" x1="186.674" y1="817.141" x2="-169.709" y2="84.9181" gradientUnits="userSpaceOnUse">
<stop stop-color="#76BDFF"/>
<stop offset="1" stop-color="#0C84F2"/>
</linearGradient>
<linearGradient id="paint7_linear_79_4580" x1="584.12" y1="685.729" x2="609.825" y2="244.856" gradientUnits="userSpaceOnUse">
<stop stop-color="#94FFD5"/>
<stop offset="0.499941" stop-color="#66F6BD"/>
<stop offset="1" stop-color="#44F0AC"/>
</linearGradient>
</defs>
</svg>
