<svg width="482" height="482" viewBox="0 0 482 482" fill="none" xmlns="http://www.w3.org/2000/svg">
<g filter="url(#filter0_f_59_2853)">
<g filter="url(#filter1_i_59_2853)">
<path fill-rule="evenodd" clip-rule="evenodd" d="M240.996 109.252C240.996 104.478 244.871 100.58 249.637 100.873C283.719 102.974 315.984 117.443 340.269 141.728C364.554 166.013 379.023 198.278 381.124 232.36C381.417 237.126 377.519 241.001 372.745 241.001H364.869C360.173 241.001 356.464 237.181 355.143 232.675C352.037 222.076 343.66 214.483 333.813 214.483C323.967 214.483 315.59 222.076 312.484 232.675C311.163 237.181 307.454 241.001 302.758 241.001L249.641 241.001C244.866 241.001 240.996 237.131 240.996 232.356V189.958C240.996 184.21 246.948 180.164 252.697 180.164C267.773 180.164 279.995 170.038 279.995 157.545C279.995 145.053 267.773 134.926 252.697 134.926C246.948 134.926 240.996 130.881 240.996 125.132V109.252Z" fill="url(#paint0_linear_59_2853)"/>
</g>
<g filter="url(#filter2_i_59_2853)">
<path fill-rule="evenodd" clip-rule="evenodd" d="M109.254 241C104.479 241 100.581 237.125 100.875 232.359C102.975 198.278 117.444 166.012 141.729 141.727C166.014 117.442 198.28 102.973 232.362 100.873C237.127 100.579 241.002 104.477 241.002 109.251V125.131C241.002 130.88 246.954 134.925 252.702 134.925C267.779 134.925 280.001 145.052 280.001 157.544C280.001 170.036 267.779 180.163 252.702 180.163C246.954 180.163 241.002 184.208 241.002 189.956L241.002 232.355C241.002 237.13 237.132 241 232.358 241H209.611C203.191 241 198.767 233.953 198.877 227.533C198.88 227.343 198.882 227.153 198.882 226.962C198.882 211.455 188.057 198.883 174.703 198.883C161.35 198.883 150.524 211.455 150.524 226.962C150.524 227.153 150.526 227.343 150.529 227.533C150.64 233.953 146.216 241 139.795 241H109.254Z" fill="url(#paint1_linear_59_2853)"/>
</g>
<g filter="url(#filter3_i_59_2853)">
<path fill-rule="evenodd" clip-rule="evenodd" d="M333.819 214.482C343.665 214.482 352.042 222.076 355.149 232.675C356.47 237.182 360.179 241.001 364.875 241.001H372.752C377.527 241.001 381.425 244.875 381.131 249.641C380.177 265.123 376.662 280.36 370.71 294.728C363.655 311.761 353.314 327.238 340.277 340.274C327.24 353.311 311.763 363.652 294.73 370.708C280.363 376.659 265.125 380.174 249.643 381.129C244.878 381.422 241.004 377.524 241.004 372.75L241.004 348.937C241.004 346.086 243.612 343.957 246.462 343.957C260.677 343.957 272.201 333.83 272.201 321.338C272.201 308.846 260.677 298.719 246.462 298.719C243.612 298.719 241.004 296.589 241.004 293.738L241.004 249.646C241.004 244.872 244.874 241.001 249.649 241.001H302.763C307.459 241.001 311.168 237.182 312.489 232.675C315.596 222.076 323.973 214.482 333.819 214.482Z" fill="url(#paint2_linear_59_2853)"/>
</g>
<g filter="url(#filter4_i_59_2853)">
<path fill-rule="evenodd" clip-rule="evenodd" d="M209.608 241.001C203.187 241.001 198.763 233.953 198.873 227.533C198.877 227.343 198.878 227.152 198.878 226.961C198.878 211.454 188.053 198.882 174.699 198.882C161.346 198.882 150.521 211.454 150.521 226.961C150.521 227.152 150.522 227.343 150.525 227.533C150.636 233.953 146.212 241.001 139.791 241.001L109.25 241.001C104.476 241.001 100.577 244.876 100.871 249.641C102.971 283.723 117.441 315.989 141.725 340.274C166.01 364.559 198.276 379.028 232.358 381.128C237.123 381.422 240.998 377.524 240.998 372.749L240.998 348.937C240.998 346.086 243.607 343.955 246.459 343.955C260.674 343.955 272.198 333.828 272.198 321.336C272.198 308.844 260.674 298.717 246.459 298.717C243.607 298.717 240.998 296.587 240.998 293.735L240.998 249.646C240.998 244.871 237.128 241.001 232.354 241.001L209.608 241.001Z" fill="url(#paint3_linear_59_2853)"/>
</g>
</g>
<g filter="url(#filter5_i_59_2853)">
<path fill-rule="evenodd" clip-rule="evenodd" d="M241 129.455C241 122.827 246.385 117.394 252.982 118.037C281.35 120.8 308.032 133.312 328.36 153.64C348.899 174.179 361.459 201.205 364.047 229.902C364.598 236.014 359.571 241.001 353.433 241.001C347.397 241.001 342.706 235.985 340.279 230.457C336.939 222.848 330.311 217.665 322.679 217.665C315.314 217.665 308.883 222.493 305.441 229.67C302.621 235.547 297.577 241.001 291.059 241.001L253 241.001C246.373 241.001 241 235.628 241 229.001L241 196.083C241 191.024 246.238 187.465 251.296 187.465C264.564 187.465 275.319 178.553 275.319 167.56C275.319 156.567 264.564 147.655 251.296 147.655C246.238 147.655 241 144.095 241 139.036L241 129.455Z" fill="url(#paint4_linear_59_2853)"/>
</g>
<g filter="url(#filter6_i_59_2853)">
<path fill-rule="evenodd" clip-rule="evenodd" d="M129.458 241C122.831 241 117.397 235.614 118.04 229.018C120.803 200.65 133.316 173.967 153.644 153.639C173.972 133.311 200.654 120.799 229.022 118.036C235.619 117.393 241.004 122.826 241.004 129.454L241.004 139.035C241.004 144.094 246.241 147.654 251.3 147.654C264.567 147.654 275.323 156.565 275.323 167.558C275.323 178.551 264.567 187.463 251.3 187.463C246.241 187.463 241.004 191.023 241.004 196.081L241.004 229C241.004 235.627 235.632 241 229.004 241H213.882C208.001 241 203.938 234.527 203.938 228.646C203.938 215 194.412 203.937 182.661 203.937C170.91 203.937 161.384 215 161.384 228.646C161.384 234.527 157.32 241 151.439 241L129.458 241Z" fill="url(#paint5_linear_59_2853)"/>
</g>
<g filter="url(#filter7_i_59_2853)">
<path fill-rule="evenodd" clip-rule="evenodd" d="M322.681 217.664C330.313 217.664 336.941 222.847 340.281 230.456C342.708 235.984 347.399 241.001 353.436 241.001C359.574 241.001 364.602 245.986 364.05 252.1C362.93 264.519 359.934 276.72 355.146 288.28C348.937 303.269 339.837 316.889 328.364 328.361C316.892 339.833 303.272 348.934 288.283 355.142C276.997 359.817 265.1 362.784 252.985 363.965C246.389 364.607 241.004 359.174 241.004 352.547L241.004 335.984C241.004 333.476 243.299 331.601 245.807 331.601C258.316 331.601 268.457 322.69 268.457 311.697C268.457 300.704 258.316 291.792 245.807 291.792C243.299 291.792 241.004 289.918 241.004 287.409L241.004 253.001C241.004 246.373 246.376 241.001 253.004 241.001H291.06C297.579 241.001 302.623 235.547 305.442 229.67C308.885 222.492 315.316 217.664 322.681 217.664Z" fill="url(#paint6_linear_59_2853)"/>
</g>
<g filter="url(#filter8_i_59_2853)">
<path fill-rule="evenodd" clip-rule="evenodd" d="M213.88 241.001C207.998 241.001 203.934 234.527 203.934 228.646C203.934 214.999 194.408 203.937 182.657 203.937C170.906 203.937 161.38 214.999 161.38 228.646C161.38 234.527 157.316 241.001 151.434 241.001L129.454 241.001C122.827 241.001 117.394 246.386 118.036 252.982C120.799 281.351 133.312 308.033 153.64 328.361C173.968 348.689 200.65 361.202 229.019 363.965C235.615 364.607 241 359.174 241 352.547L241 335.985C241 333.476 243.296 331.601 245.806 331.601C258.315 331.601 268.456 322.689 268.456 311.696C268.456 300.703 258.315 291.791 245.806 291.791C243.296 291.791 241 289.916 241 287.407L241 253.001C241 246.373 235.628 241.001 229 241.001L213.88 241.001Z" fill="url(#paint7_linear_59_2853)"/>
</g>
<defs>
<filter id="filter0_f_59_2853" x="0.855469" y="0.856934" width="480.293" height="480.287" filterUnits="userSpaceOnUse" color-interpolation-filters="sRGB">
<feFlood flood-opacity="0" result="BackgroundImageFix"/>
<feBlend mode="normal" in="SourceGraphic" in2="BackgroundImageFix" result="shape"/>
<feGaussianBlur stdDeviation="50" result="effect1_foregroundBlur_59_2853"/>
</filter>
<filter id="filter1_i_59_2853" x="240.996" y="100.858" width="152.719" height="152.717" filterUnits="userSpaceOnUse" color-interpolation-filters="sRGB">
<feFlood flood-opacity="0" result="BackgroundImageFix"/>
<feBlend mode="normal" in="SourceGraphic" in2="BackgroundImageFix" result="shape"/>
<feColorMatrix in="SourceAlpha" type="matrix" values="0 0 0 0 0 0 0 0 0 0 0 0 0 0 0 0 0 0 127 0" result="hardAlpha"/>
<feOffset dx="12.5742" dy="12.5742"/>
<feGaussianBlur stdDeviation="20.5117"/>
<feComposite in2="hardAlpha" operator="arithmetic" k2="-1" k3="1"/>
<feColorMatrix type="matrix" values="0 0 0 0 1 0 0 0 0 0.809843 0 0 0 0 0.672143 0 0 0 0.13 0"/>
<feBlend mode="normal" in2="shape" result="effect1_innerShadow_59_2853"/>
</filter>
<filter id="filter2_i_59_2853" x="100.859" y="100.857" width="191.715" height="152.717" filterUnits="userSpaceOnUse" color-interpolation-filters="sRGB">
<feFlood flood-opacity="0" result="BackgroundImageFix"/>
<feBlend mode="normal" in="SourceGraphic" in2="BackgroundImageFix" result="shape"/>
<feColorMatrix in="SourceAlpha" type="matrix" values="0 0 0 0 0 0 0 0 0 0 0 0 0 0 0 0 0 0 127 0" result="hardAlpha"/>
<feOffset dx="12.5742" dy="12.5742"/>
<feGaussianBlur stdDeviation="20.5117"/>
<feComposite in2="hardAlpha" operator="arithmetic" k2="-1" k3="1"/>
<feColorMatrix type="matrix" values="0 0 0 0 1 0 0 0 0 0.809843 0 0 0 0 0.672143 0 0 0 0.13 0"/>
<feBlend mode="normal" in2="shape" result="effect1_innerShadow_59_2853"/>
</filter>
<filter id="filter3_i_59_2853" x="241.004" y="214.482" width="152.719" height="179.236" filterUnits="userSpaceOnUse" color-interpolation-filters="sRGB">
<feFlood flood-opacity="0" result="BackgroundImageFix"/>
<feBlend mode="normal" in="SourceGraphic" in2="BackgroundImageFix" result="shape"/>
<feColorMatrix in="SourceAlpha" type="matrix" values="0 0 0 0 0 0 0 0 0 0 0 0 0 0 0 0 0 0 127 0" result="hardAlpha"/>
<feOffset dx="12.5742" dy="12.5742"/>
<feGaussianBlur stdDeviation="20.5117"/>
<feComposite in2="hardAlpha" operator="arithmetic" k2="-1" k3="1"/>
<feColorMatrix type="matrix" values="0 0 0 0 1 0 0 0 0 0.809843 0 0 0 0 0.672143 0 0 0 0.13 0"/>
<feBlend mode="normal" in2="shape" result="effect1_innerShadow_59_2853"/>
</filter>
<filter id="filter4_i_59_2853" x="100.855" y="198.882" width="183.918" height="194.835" filterUnits="userSpaceOnUse" color-interpolation-filters="sRGB">
<feFlood flood-opacity="0" result="BackgroundImageFix"/>
<feBlend mode="normal" in="SourceGraphic" in2="BackgroundImageFix" result="shape"/>
<feColorMatrix in="SourceAlpha" type="matrix" values="0 0 0 0 0 0 0 0 0 0 0 0 0 0 0 0 0 0 127 0" result="hardAlpha"/>
<feOffset dx="12.5742" dy="12.5742"/>
<feGaussianBlur stdDeviation="20.5117"/>
<feComposite in2="hardAlpha" operator="arithmetic" k2="-1" k3="1"/>
<feColorMatrix type="matrix" values="0 0 0 0 1 0 0 0 0 0.809843 0 0 0 0 0.672143 0 0 0 0.13 0"/>
<feBlend mode="normal" in2="shape" result="effect1_innerShadow_59_2853"/>
</filter>
<filter id="filter5_i_59_2853" x="241" y="117.985" width="135.664" height="135.59" filterUnits="userSpaceOnUse" color-interpolation-filters="sRGB">
<feFlood flood-opacity="0" result="BackgroundImageFix"/>
<feBlend mode="normal" in="SourceGraphic" in2="BackgroundImageFix" result="shape"/>
<feColorMatrix in="SourceAlpha" type="matrix" values="0 0 0 0 0 0 0 0 0 0 0 0 0 0 0 0 0 0 127 0" result="hardAlpha"/>
<feOffset dx="12.5742" dy="12.5742"/>
<feGaussianBlur stdDeviation="20.5117"/>
<feComposite in2="hardAlpha" operator="arithmetic" k2="-1" k3="1"/>
<feColorMatrix type="matrix" values="0 0 0 0 1 0 0 0 0 0.809843 0 0 0 0 0.672143 0 0 0 0.13 0"/>
<feBlend mode="normal" in2="shape" result="effect1_innerShadow_59_2853"/>
</filter>
<filter id="filter6_i_59_2853" x="117.988" y="117.984" width="169.91" height="135.59" filterUnits="userSpaceOnUse" color-interpolation-filters="sRGB">
<feFlood flood-opacity="0" result="BackgroundImageFix"/>
<feBlend mode="normal" in="SourceGraphic" in2="BackgroundImageFix" result="shape"/>
<feColorMatrix in="SourceAlpha" type="matrix" values="0 0 0 0 0 0 0 0 0 0 0 0 0 0 0 0 0 0 127 0" result="hardAlpha"/>
<feOffset dx="12.5742" dy="12.5742"/>
<feGaussianBlur stdDeviation="20.5117"/>
<feComposite in2="hardAlpha" operator="arithmetic" k2="-1" k3="1"/>
<feColorMatrix type="matrix" values="0 0 0 0 1 0 0 0 0 0.809843 0 0 0 0 0.672143 0 0 0 0.13 0"/>
<feBlend mode="normal" in2="shape" result="effect1_innerShadow_59_2853"/>
</filter>
<filter id="filter7_i_59_2853" x="241.004" y="217.664" width="135.664" height="158.926" filterUnits="userSpaceOnUse" color-interpolation-filters="sRGB">
<feFlood flood-opacity="0" result="BackgroundImageFix"/>
<feBlend mode="normal" in="SourceGraphic" in2="BackgroundImageFix" result="shape"/>
<feColorMatrix in="SourceAlpha" type="matrix" values="0 0 0 0 0 0 0 0 0 0 0 0 0 0 0 0 0 0 127 0" result="hardAlpha"/>
<feOffset dx="12.5742" dy="12.5742"/>
<feGaussianBlur stdDeviation="20.5117"/>
<feComposite in2="hardAlpha" operator="arithmetic" k2="-1" k3="1"/>
<feColorMatrix type="matrix" values="0 0 0 0 1 0 0 0 0 0.809843 0 0 0 0 0.672143 0 0 0 0.13 0"/>
<feBlend mode="normal" in2="shape" result="effect1_innerShadow_59_2853"/>
</filter>
<filter id="filter8_i_59_2853" x="117.984" y="203.937" width="163.047" height="172.654" filterUnits="userSpaceOnUse" color-interpolation-filters="sRGB">
<feFlood flood-opacity="0" result="BackgroundImageFix"/>
<feBlend mode="normal" in="SourceGraphic" in2="BackgroundImageFix" result="shape"/>
<feColorMatrix in="SourceAlpha" type="matrix" values="0 0 0 0 0 0 0 0 0 0 0 0 0 0 0 0 0 0 127 0" result="hardAlpha"/>
<feOffset dx="12.5742" dy="12.5742"/>
<feGaussianBlur stdDeviation="20.5117"/>
<feComposite in2="hardAlpha" operator="arithmetic" k2="-1" k3="1"/>
<feColorMatrix type="matrix" values="0 0 0 0 1 0 0 0 0 0.809843 0 0 0 0 0.672143 0 0 0 0.13 0"/>
<feBlend mode="normal" in2="shape" result="effect1_innerShadow_59_2853"/>
</filter>
<linearGradient id="paint0_linear_59_2853" x1="372.02" y1="234.762" x2="256.834" y2="106.617" gradientUnits="userSpaceOnUse">
<stop stop-color="#FF4980"/>
<stop offset="1" stop-color="#FF82A7"/>
</linearGradient>
<linearGradient id="paint1_linear_59_2853" x1="270.798" y1="234.281" x2="183.191" y2="87.5794" gradientUnits="userSpaceOnUse">
<stop stop-color="#FF9548"/>
<stop offset="1" stop-color="#FFBC8B"/>
</linearGradient>
<linearGradient id="paint2_linear_59_2853" x1="216.948" y1="25.7983" x2="588.682" y2="154.175" gradientUnits="userSpaceOnUse">
<stop stop-color="#76BDFF"/>
<stop offset="1" stop-color="#0C84F2"/>
</linearGradient>
<linearGradient id="paint3_linear_59_2853" x1="126.087" y1="206.373" x2="267.806" y2="365.655" gradientUnits="userSpaceOnUse">
<stop stop-color="#94FFD5"/>
<stop offset="0.499941" stop-color="#66F6BD"/>
<stop offset="1" stop-color="#44F0AC"/>
</linearGradient>
<linearGradient id="paint4_linear_59_2853" x1="356.079" y1="235.524" x2="254.977" y2="122.981" gradientUnits="userSpaceOnUse">
<stop stop-color="#FF4980"/>
<stop offset="1" stop-color="#FF82A7"/>
</linearGradient>
<linearGradient id="paint5_linear_59_2853" x1="267.24" y1="235.102" x2="190.36" y2="106.292" gradientUnits="userSpaceOnUse">
<stop stop-color="#FF9548"/>
<stop offset="1" stop-color="#FFBC8B"/>
</linearGradient>
<linearGradient id="paint6_linear_59_2853" x1="219.876" y1="51.9733" x2="546.357" y2="164.744" gradientUnits="userSpaceOnUse">
<stop stop-color="#76BDFF"/>
<stop offset="1" stop-color="#0C84F2"/>
</linearGradient>
<linearGradient id="paint7_linear_59_2853" x1="140.143" y1="210.515" x2="264.616" y2="350.397" gradientUnits="userSpaceOnUse">
<stop stop-color="#94FFD5"/>
<stop offset="0.499941" stop-color="#66F6BD"/>
<stop offset="1" stop-color="#44F0AC"/>
</linearGradient>
</defs>
</svg>
