<svg width="100" height="100" viewBox="0 0 100 100" fill="none" xmlns="http://www.w3.org/2000/svg">
<g filter="url(#filter0_i_84_1023)">
<path d="M74.6649 40.2447H63.5574C62.5818 40.2447 62.0999 39.5835 61.9353 39.2949C61.7707 39.0064 61.4416 38.2489 61.9118 37.3833L65.8259 30.1694C66.6839 28.5944 66.778 26.7309 66.0727 25.0717C65.3675 23.4125 63.9805 22.2102 62.2644 21.7654L59.5022 21.056C58.8322 20.8877 58.1152 21.1041 57.6451 21.6331L42.6587 38.6817C40.1835 41.4926 37.2732 44.8135 33.5279 44.8135H27.8369C25.5096 44.8135 23.6289 46.16 23.6289 47.8192V71.8292C23.6289 73.4883 25.5096 74.8349 27.8369 74.8349H48.8648C49.1234 74.859 49.382 74.871 49.6523 74.871H68.3648C72.5845 74.871 76.3222 71.9614 77.4389 67.8015L81.4587 48.9494C81.5763 48.4204 81.6351 47.8914 81.6351 47.3503C81.6115 43.4308 78.4967 40.2447 74.6649 40.2447Z" fill="url(#paint0_linear_84_1023)"/>
</g>
<g filter="url(#filter1_bi_84_1023)">
<rect x="18.3633" y="38.5967" width="14.4831" height="40.4032" rx="3" fill="#CDBCF1" fill-opacity="0.5"/>
</g>
<defs>
<filter id="filter0_i_84_1023" x="23.6289" y="21" width="74.0078" height="69.8711" filterUnits="userSpaceOnUse" color-interpolation-filters="sRGB">
<feFlood flood-opacity="0" result="BackgroundImageFix"/>
<feBlend mode="normal" in="SourceGraphic" in2="BackgroundImageFix" result="shape"/>
<feColorMatrix in="SourceAlpha" type="matrix" values="0 0 0 0 0 0 0 0 0 0 0 0 0 0 0 0 0 0 127 0" result="hardAlpha"/>
<feOffset dx="16" dy="16"/>
<feGaussianBlur stdDeviation="26.1"/>
<feComposite in2="hardAlpha" operator="arithmetic" k2="-1" k3="1"/>
<feColorMatrix type="matrix" values="0 0 0 0 1 0 0 0 0 0.809843 0 0 0 0 0.672143 0 0 0 0.13 0"/>
<feBlend mode="normal" in2="shape" result="effect1_innerShadow_84_1023"/>
</filter>
<filter id="filter1_bi_84_1023" x="14.3633" y="34.5967" width="22.4844" height="48.4033" filterUnits="userSpaceOnUse" color-interpolation-filters="sRGB">
<feFlood flood-opacity="0" result="BackgroundImageFix"/>
<feGaussianBlur in="BackgroundImageFix" stdDeviation="2"/>
<feComposite in2="SourceAlpha" operator="in" result="effect1_backgroundBlur_84_1023"/>
<feBlend mode="normal" in="SourceGraphic" in2="effect1_backgroundBlur_84_1023" result="shape"/>
<feColorMatrix in="SourceAlpha" type="matrix" values="0 0 0 0 0 0 0 0 0 0 0 0 0 0 0 0 0 0 127 0" result="hardAlpha"/>
<feOffset dx="0.2" dy="0.1"/>
<feGaussianBlur stdDeviation="0.5"/>
<feComposite in2="hardAlpha" operator="arithmetic" k2="-1" k3="1"/>
<feColorMatrix type="matrix" values="0 0 0 0 1 0 0 0 0 1 0 0 0 0 1 0 0 0 0.6 0"/>
<feBlend mode="normal" in2="shape" result="effect2_innerShadow_84_1023"/>
</filter>
<linearGradient id="paint0_linear_84_1023" x1="78.6553" y1="72.2881" x2="42.5606" y2="21.3745" gradientUnits="userSpaceOnUse">
<stop stop-color="#5648FF"/>
<stop offset="1" stop-color="#B78BFF"/>
</linearGradient>
</defs>
</svg>
