<svg width="65" height="64" viewBox="0 0 65 64" fill="none" xmlns="http://www.w3.org/2000/svg">
<path fill-rule="evenodd" clip-rule="evenodd" d="M7.91845 30.2332C23.2192 23.6004 33.4222 19.2277 38.5272 17.115C53.1032 11.0828 56.132 10.035 58.1061 10.0004C58.5402 9.99276 59.5111 10.0998 60.1399 10.6075C60.6709 11.0362 60.817 11.6153 60.8869 12.0218C60.9568 12.4282 61.0439 13.3541 60.9747 14.0776C60.1848 22.3351 56.767 42.3741 55.0282 51.6227C54.2925 55.5361 52.8438 56.8483 51.4413 56.9767C48.3933 57.2558 46.0788 54.9725 43.1267 53.0471C38.5072 50.0342 35.8975 48.1587 31.4135 45.2187C26.2315 41.821 29.5908 39.9535 32.544 36.9016C33.3169 36.1029 46.7463 23.9492 47.0063 22.8467C47.0388 22.7088 47.0689 22.1948 46.762 21.9234C46.4552 21.652 46.0022 21.7448 45.6753 21.8186C45.212 21.9233 37.8324 26.7764 23.5364 36.3781C21.4417 37.8092 19.5444 38.5065 17.8444 38.47C15.9704 38.4297 12.3655 37.4157 9.68568 36.549C6.39873 35.4859 3.78633 34.9238 4.01381 33.1184C4.1323 32.178 5.43384 31.2163 7.91845 30.2332Z" fill="url(#paint0_linear_60_948)"/>
<defs>
<linearGradient id="paint0_linear_60_948" x1="32.5" y1="10" x2="32.5" y2="56.6514" gradientUnits="userSpaceOnUse">
<stop stop-color="#2AABEE"/>
<stop offset="1" stop-color="#229ED9"/>
</linearGradient>
</defs>
</svg>
