<svg width="32" height="32" viewBox="0 0 32 32" fill="none" xmlns="http://www.w3.org/2000/svg">
<path d="M10.0669 29.001C22.1394 29.001 28.7444 18.9966 28.7444 10.3235C28.7444 10.0422 28.7381 9.75471 28.7256 9.47346C30.0105 8.54426 31.1193 7.39332 32 6.07471C30.8034 6.60711 29.5329 6.95482 28.2319 7.10596C29.6017 6.28485 30.6274 4.99494 31.1187 3.47533C29.8301 4.23905 28.4208 4.77779 26.9513 5.06846C25.9611 4.01639 24.652 3.3198 23.2262 3.08638C21.8005 2.85296 20.3376 3.09571 19.0637 3.77711C17.7897 4.4585 16.7757 5.54058 16.1785 6.85606C15.5812 8.17153 15.4339 9.64713 15.7594 11.0547C13.15 10.9238 10.5972 10.2459 8.26664 9.06511C5.93604 7.8843 3.87959 6.22689 2.23062 4.20033C1.39253 5.6453 1.13608 7.35517 1.51337 8.98243C1.89067 10.6097 2.87342 12.0322 4.26188 12.961C3.2195 12.9279 2.19997 12.6472 1.2875 12.1422V12.2235C1.28657 13.7398 1.8108 15.2098 2.77108 16.3833C3.73136 17.5569 5.06843 18.3617 6.555 18.661C5.58941 18.9251 4.57598 18.9636 3.59313 18.7735C4.01261 20.0776 4.82876 21.2182 5.92769 22.0361C7.02662 22.854 8.35349 23.3084 9.72313 23.336C7.3979 25.1625 4.52557 26.1531 1.56875 26.1485C1.04438 26.1477 0.520532 26.1155 0 26.0522C3.00381 27.9793 6.49804 29.0028 10.0669 29.001Z" fill="url(#paint0_linear_123_187)"/>
<defs>
<linearGradient id="paint0_linear_123_187" x1="-5.49286" y1="-26.4367" x2="70.1787" y2="11.8118" gradientUnits="userSpaceOnUse">
<stop stop-color="#76BDFF"/>
<stop offset="1" stop-color="#0C84F2"/>
</linearGradient>
</defs>
</svg>
