<svg width="64" height="64" viewBox="0 0 64 64" fill="none" xmlns="http://www.w3.org/2000/svg">
<path d="M55.619 6.24205C54.0287 4.77465 47.602 0.109317 33.2872 0.0459348C33.2872 0.0459348 16.4063 -0.972026 8.17717 6.57625C3.59635 11.158 1.98489 17.8622 1.81491 26.1739C1.64493 34.4857 1.42501 50.0624 16.4399 54.286H16.4544L16.4447 60.7308C16.4447 60.7308 16.3487 63.3401 18.0668 63.8721C20.1449 64.5175 21.3646 62.5344 23.3486 60.3966C24.4377 59.2231 25.9416 57.4993 27.0748 56.1817C37.3437 57.046 45.2415 55.0706 46.1385 54.7786C48.2119 54.1064 59.9444 52.6035 61.8526 37.0277C63.8222 20.9737 60.8999 10.819 55.619 6.24205Z" fill="white"/>
<path d="M52.2795 9.48531C50.9351 8.26376 45.1317 4.61734 33.0228 4.56453C33.0228 4.56453 18.6839 3.62243 11.7234 9.92707C7.84937 13.7521 6.54427 19.4402 6.40118 26.3815C6.25808 33.3229 5.5167 46.5833 18.2134 50.1106C18.2134 50.1106 18.1634 59.9551 18.1577 60.8203C18.1577 61.4254 18.2537 61.8393 18.5994 61.9247C18.8482 61.9852 19.2208 61.8565 19.5377 61.5406C21.5678 59.5018 28.0674 51.6606 28.0674 51.6606C36.7883 52.2301 43.7267 50.5082 44.4729 50.2643C46.2323 49.6986 55.7483 48.8814 57.3588 35.8726C59.0231 22.4634 56.7471 13.3104 52.2795 9.48531Z" fill="#7360F2"/>
<path fill-rule="evenodd" clip-rule="evenodd" d="M33.5324 20.7664C33.5557 20.3199 33.9365 19.9768 34.383 20.0001C36.0536 20.0873 37.4434 20.593 38.4333 21.6164C39.4194 22.636 39.9028 24.0603 39.9876 25.7709C40.0098 26.2175 39.6657 26.5974 39.2191 26.6196C38.7726 26.6418 38.3926 26.2977 38.3705 25.8511C38.2978 24.3868 37.8961 23.39 37.2694 22.7421C36.6466 22.0981 35.6961 21.69 34.2987 21.6171C33.8522 21.5938 33.5091 21.2129 33.5324 20.7664Z" fill="white"/>
<path fill-rule="evenodd" clip-rule="evenodd" d="M32.3069 16.4048C32.3395 15.9589 32.7275 15.6239 33.1734 15.6565C36.5731 15.9053 39.3095 17.0669 41.3027 19.2427L41.303 19.243C43.2746 21.3974 44.2117 24.0774 44.1436 27.2209C44.1339 27.6679 43.7637 28.0224 43.3167 28.0128C42.8697 28.0031 42.5152 27.6329 42.5249 27.1859C42.5849 24.4137 41.7696 22.1512 40.1086 20.3361C38.4525 18.5286 36.1376 17.4969 33.0552 17.2713C32.6093 17.2387 32.2742 16.8507 32.3069 16.4048Z" fill="white"/>
<path fill-rule="evenodd" clip-rule="evenodd" d="M30.875 12.259C30.8781 11.8119 31.2431 11.452 31.6902 11.4551C36.3884 11.4878 40.3596 13.0519 43.5481 16.1601C46.7632 19.2944 48.3532 23.5614 48.3935 28.8609C48.3969 29.308 48.0372 29.6732 47.5901 29.6766C47.143 29.68 46.7778 29.3203 46.7744 28.8732C46.7366 23.9073 45.2593 20.0895 42.4179 17.3195C39.5498 14.5236 35.9887 13.1042 31.6789 13.0742C31.2318 13.0711 30.8719 12.7061 30.875 12.259Z" fill="white"/>
<path d="M34.5035 36.6544C34.5035 36.6544 35.6415 36.7504 36.2542 35.9956L37.4489 34.4927C38.0251 33.7474 39.4156 33.2721 40.7774 34.0307C41.7979 34.6127 42.7886 35.2454 43.7458 35.9265C44.6495 36.591 46.5001 38.1352 46.5058 38.1352C47.3874 38.8795 47.591 39.9724 46.9908 41.1248C46.9908 41.1315 46.986 41.143 46.986 41.1488C46.3249 42.2948 45.4857 43.3282 44.4997 44.2104C44.4882 44.2161 44.4882 44.2219 44.4776 44.2276C43.621 44.9434 42.7794 45.3503 41.9529 45.4482C41.8312 45.4695 41.7075 45.4773 41.5841 45.4713C41.2196 45.4748 40.857 45.419 40.5104 45.3061L40.4835 45.2667C39.2101 44.9076 37.0839 44.0087 33.5432 42.0553C31.4942 40.9383 29.5435 39.6497 27.712 38.2034C26.794 37.4789 25.9183 36.7023 25.0893 35.8775L25.0009 35.7891L24.9126 35.7008L24.8242 35.6124C24.7945 35.5836 24.7656 35.5538 24.7359 35.5241C23.911 34.695 23.1344 33.8194 22.4099 32.9014C20.9638 31.0701 19.6753 29.1197 18.558 27.0711C16.6047 23.5294 15.7058 21.4051 15.3466 20.1298L15.3072 20.1029C15.1947 19.7563 15.1392 19.3937 15.143 19.0293C15.1363 18.9059 15.1437 18.7822 15.1651 18.6605C15.2682 17.8352 15.6757 16.993 16.3876 16.1338C16.3934 16.1233 16.3992 16.1233 16.4049 16.1117C17.2868 15.1258 18.3203 14.2868 19.4665 13.6264C19.4722 13.6264 19.4838 13.6206 19.4905 13.6206C20.6429 13.0204 21.7358 13.224 22.4791 14.1008C22.4848 14.1065 24.0262 15.9571 24.6879 16.8608C25.369 17.819 26.0017 18.8106 26.5836 19.8321C27.3422 21.1929 26.8669 22.5864 26.1216 23.1606L24.6187 24.3553C23.86 24.968 23.9599 26.106 23.9599 26.106C23.9599 26.106 26.186 34.5311 34.5035 36.6544Z" fill="white"/>
</svg>
