<svg width="32" height="33" viewBox="0 0 32 33" fill="none" xmlns="http://www.w3.org/2000/svg">
<g clip-path="url(#clip0_79_7771)">
<path d="M27.8114 3.62103C27.0163 2.88733 23.803 0.554659 16.6456 0.522967C16.6456 0.522967 8.20512 0.0139868 4.09054 3.78813C1.80013 6.07902 0.9944 9.43109 0.90941 13.587C0.82442 17.7428 0.71446 25.5312 8.22193 27.643H8.22913L8.22433 30.8654C8.22433 30.8654 8.17631 32.17 9.03533 32.4361C10.0744 32.7587 10.6842 31.7672 11.6763 30.6983C12.2208 30.1115 12.9727 29.2496 13.5393 28.5908C18.6738 29.023 22.6227 28.0353 23.0712 27.8893C24.1079 27.5532 29.9741 26.8017 30.9282 19.0139C31.9131 10.9868 30.4519 5.90952 27.8114 3.62103Z" fill="white"/>
<path d="M26.1437 5.24217C25.4714 4.63139 22.5698 2.80818 16.5153 2.78177C16.5153 2.78177 9.34587 2.31073 5.8656 5.46305C3.92859 7.37557 3.27604 10.2196 3.20449 13.6903C3.13295 17.161 2.76226 23.7912 9.11059 25.5548C9.11059 25.5548 9.08562 30.477 9.08274 30.9097C9.08274 31.2122 9.13076 31.4191 9.30362 31.4619C9.42798 31.4921 9.61429 31.4278 9.77275 31.2698C10.7878 30.2504 14.0376 26.3298 14.0376 26.3298C18.398 26.6146 21.8673 25.7536 22.2404 25.6316C23.12 25.3488 27.8781 24.9402 28.6833 18.4358C29.5154 11.7312 28.3774 7.15469 26.1437 5.24217Z" fill="#7360F2"/>
<path fill-rule="evenodd" clip-rule="evenodd" d="M16.7662 10.8837C16.7778 10.6605 16.9683 10.4889 17.1915 10.5006C18.0268 10.5441 18.7217 10.797 19.2166 11.3087C19.7097 11.8185 19.9514 12.5306 19.9938 13.3859C20.0049 13.6092 19.8329 13.7992 19.6096 13.8103C19.3863 13.8214 19.1963 13.6493 19.1852 13.4261C19.1489 12.6939 18.948 12.1955 18.6347 11.8715C18.3233 11.5495 17.848 11.3455 17.1493 11.309C16.9261 11.2974 16.7545 11.107 16.7662 10.8837Z" fill="white"/>
<path fill-rule="evenodd" clip-rule="evenodd" d="M16.1573 8.70241C16.1737 8.47945 16.3676 8.31193 16.5906 8.32825C18.2904 8.45265 19.6587 9.03346 20.6553 10.1213L20.6554 10.1215C21.6412 11.1987 22.1097 12.5387 22.0757 14.1105C22.0709 14.334 21.8858 14.5112 21.6623 14.5064C21.4388 14.5015 21.2615 14.3164 21.2663 14.0929C21.2963 12.7068 20.8887 11.5756 20.0582 10.6681C19.2302 9.7643 18.0727 9.24845 16.5315 9.13565C16.3085 9.11934 16.141 8.92536 16.1573 8.70241Z" fill="white"/>
<path fill-rule="evenodd" clip-rule="evenodd" d="M15.4414 6.6295C15.443 6.40595 15.6255 6.22599 15.849 6.22755C18.1981 6.24391 20.1837 7.02594 21.778 8.58007C23.3855 10.1472 24.1805 12.2807 24.2007 14.9304C24.2024 15.154 24.0225 15.3366 23.799 15.3383C23.5754 15.34 23.3928 15.1601 23.3911 14.9366C23.3722 12.4536 22.6336 10.5447 21.2128 9.15977C19.7788 7.7618 17.9983 7.05211 15.8434 7.0371C15.6198 7.03554 15.4399 6.85305 15.4414 6.6295Z" fill="white"/>
<path d="M17.2517 18.8272C17.2517 18.8272 17.8208 18.8752 18.1271 18.4978L18.7244 17.7463C19.0125 17.3737 19.7078 17.136 20.3887 17.5154C20.8989 17.8064 21.3943 18.1227 21.8729 18.4632C22.3247 18.7955 23.25 19.5676 23.2529 19.5676C23.6937 19.9398 23.7955 20.4862 23.4954 21.0624C23.4954 21.0658 23.493 21.0715 23.493 21.0744C23.1625 21.6474 22.7428 22.1641 22.2498 22.6052C22.2441 22.6081 22.2441 22.6109 22.2388 22.6138C21.8105 22.9717 21.3897 23.1751 20.9764 23.2241C20.9156 23.2348 20.8537 23.2386 20.792 23.2356C20.6098 23.2374 20.4285 23.2095 20.2552 23.153L20.2418 23.1334C19.6051 22.9538 18.542 22.5043 16.7716 21.5277C15.7471 20.9691 14.7717 20.3249 13.856 19.6017C13.397 19.2395 12.9591 18.8512 12.5446 18.4387L12.5005 18.3946L12.4563 18.3504L12.4121 18.3062C12.3972 18.2918 12.3828 18.2769 12.3679 18.262C11.9555 17.8475 11.5672 17.4097 11.205 16.9507C10.4819 16.035 9.83764 15.0599 9.279 14.0356C8.30233 12.2647 7.85289 11.2026 7.67331 10.5649L7.65362 10.5515C7.59733 10.3781 7.5696 10.1968 7.57151 10.0146C7.56815 9.95294 7.57186 9.89108 7.58256 9.83024C7.63409 9.41761 7.83785 8.9965 8.19381 8.56691C8.19669 8.56163 8.19958 8.56163 8.20246 8.55587C8.6434 8.06288 9.16015 7.64339 9.73324 7.31319C9.73612 7.31319 9.74188 7.31031 9.74524 7.31031C10.3214 7.0102 10.8679 7.112 11.2395 7.55039C11.2424 7.55327 12.0131 8.47856 12.3439 8.9304C12.6845 9.40948 13.0008 9.90532 13.2918 10.416C13.6711 11.0964 13.4334 11.7932 13.0608 12.0803L12.3094 12.6777C11.93 12.984 11.98 13.553 11.98 13.553C11.98 13.553 13.093 17.7655 17.2517 18.8272Z" fill="white"/>
</g>
<defs>
<clipPath id="clip0_79_7771">
<rect width="32" height="32" fill="white" transform="translate(0 0.5)"/>
</clipPath>
</defs>
</svg>
