<svg width="32" height="33" viewBox="0 0 32 33" fill="none" xmlns="http://www.w3.org/2000/svg">
<g clip-path="url(#clip0_79_7737)">
<path d="M0 32.5L2.2617 24.2871C0.863419 21.8764 0.129895 19.1464 0.137536 16.3555C0.137536 7.61027 7.28939 0.5 16.0688 0.5C20.3324 0.5 24.3362 2.15019 27.339 5.14639C30.3495 8.14259 32.0076 12.1274 32 16.3631C32 25.1084 24.8481 32.2186 16.0611 32.2186H16.0535C13.3868 32.2186 10.766 31.5494 8.43552 30.2871L0 32.5ZM8.84049 27.4202L9.32187 27.7091C11.3543 28.9107 13.6848 29.5418 16.0611 29.5494H16.0688C23.3658 29.5494 29.3104 23.6407 29.3104 16.3707C29.3104 12.8498 27.935 9.54183 25.4365 7.04753C22.9379 4.55323 19.6065 3.18441 16.0688 3.18441C8.77172 3.17681 2.82712 9.08555 2.82712 16.3555C2.82712 18.8422 3.52244 21.2681 4.85195 23.3669L5.16523 23.8688L3.82808 28.7281L8.84049 27.4202Z" fill="white"/>
<path d="M0.558594 31.9444L2.74388 24.0129C1.39145 21.6935 0.680848 19.0547 0.680848 16.3627C0.688489 7.92161 7.5882 1.05469 16.0696 1.05469C20.188 1.05469 24.0466 2.65165 26.9502 5.54138C29.8537 8.43112 31.4506 12.279 31.4506 16.3703C31.4506 24.8113 24.5433 31.6783 16.0696 31.6783H16.0619C13.4869 31.6783 10.9578 31.0319 8.7114 29.8152L0.558594 31.9444Z" fill="url(#paint0_linear_79_7737)"/>
<path d="M0 32.5L2.2617 24.2871C0.863419 21.8764 0.129895 19.1464 0.137536 16.3555C0.137536 7.61027 7.28939 0.5 16.0688 0.5C20.3324 0.5 24.3362 2.15019 27.339 5.14639C30.3495 8.14259 32.0076 12.1274 32 16.3631C32 25.1084 24.8481 32.2186 16.0611 32.2186H16.0535C13.3868 32.2186 10.766 31.5494 8.43552 30.2871L0 32.5ZM8.84049 27.4202L9.32187 27.7091C11.3543 28.9107 13.6848 29.5418 16.0611 29.5494H16.0688C23.3658 29.5494 29.3104 23.6407 29.3104 16.3707C29.3104 12.8498 27.935 9.54183 25.4365 7.04753C22.9379 4.55323 19.6065 3.18441 16.0688 3.18441C8.77172 3.17681 2.82712 9.08555 2.82712 16.3555C2.82712 18.8422 3.52244 21.2681 4.85195 23.3669L5.16523 23.8688L3.82808 28.7281L8.84049 27.4202Z" fill="url(#paint1_linear_79_7737)"/>
<path fill-rule="evenodd" clip-rule="evenodd" d="M12.0874 9.72424C11.7894 9.06265 11.4761 9.04744 11.1934 9.03983C10.9641 9.03223 10.6967 9.03223 10.4293 9.03223C10.1619 9.03223 9.73396 9.13109 9.3672 9.52652C9.00044 9.92196 7.97656 10.8801 7.97656 12.8345C7.97656 14.7813 9.40541 16.6672 9.60407 16.9334C9.80273 17.1995 12.3624 21.3288 16.4044 22.9182C19.7664 24.2414 20.4541 23.9752 21.18 23.9068C21.9059 23.8383 23.5334 22.9486 23.8696 22.0208C24.1981 21.0931 24.1981 20.3022 24.0988 20.1349C23.9995 19.9676 23.732 19.8687 23.3347 19.671C22.9374 19.4733 20.9813 18.5151 20.6146 18.3782C20.2478 18.249 19.9804 18.1805 19.7206 18.576C19.4532 18.9714 18.6891 19.8611 18.4598 20.1273C18.2306 20.3934 17.9937 20.4239 17.5964 20.2261C17.1991 20.0284 15.9154 19.6102 14.3949 18.2566C13.2106 17.2071 12.4083 15.9068 12.179 15.5113C11.9498 15.1159 12.1561 14.903 12.3548 14.7052C12.5305 14.5303 12.7521 14.2414 12.9508 14.0132C13.1494 13.7851 13.2182 13.6178 13.3481 13.3516C13.478 13.0855 13.4169 12.8573 13.3175 12.6596C13.2182 12.4695 12.4388 10.5075 12.0874 9.72424Z" fill="white"/>
</g>
<defs>
<linearGradient id="paint0_linear_79_7737" x1="16.0038" y1="31.9429" x2="16.0038" y2="1.05361" gradientUnits="userSpaceOnUse">
<stop stop-color="#20B038"/>
<stop offset="1" stop-color="#60D66A"/>
</linearGradient>
<linearGradient id="paint1_linear_79_7737" x1="16.0031" y1="32.497" x2="16.0031" y2="0.5" gradientUnits="userSpaceOnUse">
<stop stop-color="#F9F9F9"/>
<stop offset="1" stop-color="white"/>
</linearGradient>
<clipPath id="clip0_79_7737">
<rect width="32" height="32" fill="white" transform="translate(0 0.5)"/>
</clipPath>
</defs>
</svg>
