<svg width="64" height="64" viewBox="0 0 64 64" fill="none" xmlns="http://www.w3.org/2000/svg">
<g clip-path="url(#clip0_60_942)">
<path d="M0 64L4.5234 47.5742C1.72684 42.7529 0.25979 37.2928 0.275071 31.711C0.275071 14.2205 14.5788 0 32.1375 0C40.6647 0 48.6724 3.30038 54.6781 9.29278C60.6991 15.2852 64.0152 23.2548 64 31.7262C64 49.2167 49.6962 63.4373 32.1222 63.4373H32.1069C26.7736 63.4373 21.532 62.0989 16.871 59.5742L0 64ZM17.681 53.8403L18.6437 54.4183C22.7087 56.8213 27.3696 58.0837 32.1222 58.0989H32.1375C46.7316 58.0989 58.6208 46.2814 58.6208 31.7415C58.6208 24.6996 55.8701 18.0837 50.8729 13.0951C45.8758 8.10647 39.213 5.36882 32.1375 5.36882C17.5434 5.35361 5.65425 17.1711 5.65425 31.711C5.65425 36.6844 7.04488 41.5361 9.70391 45.7339L10.3305 46.7377L7.65615 56.4563L17.681 53.8403Z" fill="white"/>
<path d="M1.11719 62.8898L5.48777 47.0267C2.7829 42.3879 1.3617 37.1104 1.3617 31.7263C1.37698 14.8442 15.1764 1.11035 32.1391 1.11035C40.376 1.11035 48.0933 4.30427 53.9003 10.0837C59.7074 15.8632 62.9013 23.559 62.9013 31.7415C62.9013 48.6237 49.0866 62.3575 32.1391 62.3575H32.1238C26.9739 62.3575 21.9156 61.0647 17.4228 58.6313L1.11719 62.8898Z" fill="url(#paint0_linear_60_942)"/>
<path d="M0 64L4.5234 47.5742C1.72684 42.7529 0.25979 37.2928 0.275071 31.711C0.275071 14.2205 14.5788 0 32.1375 0C40.6647 0 48.6724 3.30038 54.6781 9.29278C60.6991 15.2852 64.0152 23.2548 64 31.7262C64 49.2167 49.6962 63.4373 32.1222 63.4373H32.1069C26.7736 63.4373 21.532 62.0989 16.871 59.5742L0 64ZM17.681 53.8403L18.6437 54.4183C22.7087 56.8213 27.3696 58.0837 32.1222 58.0989H32.1375C46.7316 58.0989 58.6208 46.2814 58.6208 31.7415C58.6208 24.6996 55.8701 18.0837 50.8729 13.0951C45.8758 8.10647 39.213 5.36882 32.1375 5.36882C17.5434 5.35361 5.65425 17.1711 5.65425 31.711C5.65425 36.6844 7.04488 41.5361 9.70391 45.7339L10.3305 46.7377L7.65615 56.4563L17.681 53.8403Z" fill="url(#paint1_linear_60_942)"/>
<path fill-rule="evenodd" clip-rule="evenodd" d="M24.1747 18.4485C23.5787 17.1253 22.9522 17.0949 22.3867 17.0797C21.9283 17.0645 21.3934 17.0645 20.8586 17.0645C20.3237 17.0645 19.4679 17.2622 18.7344 18.053C18.0009 18.8439 15.9531 20.7603 15.9531 24.669C15.9531 28.5626 18.8108 32.3344 19.2081 32.8667C19.6055 33.3991 24.7248 41.6576 32.8089 44.8363C39.5329 47.4827 40.9082 46.9504 42.36 46.8135C43.8118 46.6766 47.0668 44.8972 47.7392 43.0416C48.3963 41.1861 48.3963 39.6044 48.1976 39.2698C47.999 38.9352 47.4641 38.7375 46.6694 38.342C45.8748 37.9466 41.9627 36.0302 41.2291 35.7565C40.4956 35.4979 39.9608 35.361 39.4412 36.1519C38.9063 36.9428 37.3781 38.7223 36.9197 39.2546C36.4612 39.7869 35.9875 39.8477 35.1928 39.4523C34.3982 39.0569 31.8309 38.2204 28.7898 35.5131C26.4211 33.4143 24.8165 30.8135 24.3581 30.0226C23.8996 29.2318 24.3122 28.8059 24.7096 28.4105C25.061 28.0607 25.5042 27.4827 25.9015 27.0264C26.2989 26.5702 26.4364 26.2356 26.6962 25.7032C26.956 25.1709 26.8337 24.7146 26.6351 24.3192C26.4364 23.939 24.8777 20.015 24.1747 18.4485Z" fill="white"/>
</g>
<defs>
<linearGradient id="paint0_linear_60_942" x1="32.0076" y1="62.8868" x2="32.0076" y2="1.10819" gradientUnits="userSpaceOnUse">
<stop stop-color="#20B038"/>
<stop offset="1" stop-color="#60D66A"/>
</linearGradient>
<linearGradient id="paint1_linear_60_942" x1="32.0062" y1="63.994" x2="32.0062" y2="0" gradientUnits="userSpaceOnUse">
<stop stop-color="#F9F9F9"/>
<stop offset="1" stop-color="white"/>
</linearGradient>
<clipPath id="clip0_60_942">
<rect width="64" height="64" fill="white"/>
</clipPath>
</defs>
</svg>
