<svg width="32" height="24" viewBox="0 0 32 24" fill="none" xmlns="http://www.w3.org/2000/svg">
<path d="M31.6812 5.60039C31.6812 5.60039 31.3688 3.39414 30.4062 2.42539C29.1875 1.15039 27.825 1.14414 27.2 1.06914C22.725 0.74414 16.0063 0.744141 16.0063 0.744141H15.9937C15.9937 0.744141 9.275 0.74414 4.8 1.06914C4.175 1.14414 2.8125 1.15039 1.59375 2.42539C0.63125 3.39414 0.325 5.60039 0.325 5.60039C0.325 5.60039 0 8.19414 0 10.7816V13.2066C0 15.7941 0.31875 18.3879 0.31875 18.3879C0.31875 18.3879 0.63125 20.5941 1.5875 21.5629C2.80625 22.8379 4.40625 22.7941 5.11875 22.9316C7.68125 23.1754 16 23.2504 16 23.2504C16 23.2504 22.725 23.2379 27.2 22.9191C27.825 22.8441 29.1875 22.8379 30.4062 21.5629C31.3688 20.5941 31.6812 18.3879 31.6812 18.3879C31.6812 18.3879 32 15.8004 32 13.2066V10.7816C32 8.19414 31.6812 5.60039 31.6812 5.60039ZM12.6938 16.1504V7.15664L21.3375 11.6691L12.6938 16.1504Z" fill="url(#paint0_linear_123_196)"/>
<defs>
<linearGradient id="paint0_linear_123_196" x1="-5.49286" y1="-24.736" x2="65.3538" y2="16.6341" gradientUnits="userSpaceOnUse">
<stop stop-color="#76BDFF"/>
<stop offset="1" stop-color="#0C84F2"/>
</linearGradient>
</defs>
</svg>
