<svg width="479" height="261" viewBox="0 0 479 261" fill="none" xmlns="http://www.w3.org/2000/svg">
<g filter="url(#filter0_f_375_4804)">
<rect x="83.5586" y="83" width="311.884" height="95" rx="47.5" fill="url(#paint0_linear_375_4804)" fill-opacity="0.7"/>
</g>
<rect x="84.3086" y="83.75" width="310.384" height="93.5" rx="46.75" stroke="url(#paint1_linear_375_4804)" stroke-width="1.5"/>
<rect opacity="0.3" x="75.75" y="75.75" width="327.5" height="109.5" rx="54.75" stroke="url(#paint2_linear_375_4804)" stroke-width="1.5"/>
<rect x="89" y="91" width="221" height="79" rx="39.5" fill="white"/>
<path d="M146.766 136.516C147.414 136.516 147.973 136.426 148.441 136.246C148.918 136.059 149.328 135.816 149.672 135.52C150.023 135.223 150.312 134.887 150.539 134.512C150.773 134.137 150.965 133.758 151.113 133.375L154.125 134.512C153.883 135.105 153.566 135.688 153.176 136.258C152.785 136.828 152.297 137.332 151.711 137.77C151.125 138.207 150.426 138.562 149.613 138.836C148.809 139.102 147.859 139.234 146.766 139.234C145.336 139.234 144.098 139.023 143.051 138.602C142.004 138.172 141.137 137.578 140.449 136.82C139.77 136.055 139.262 135.148 138.926 134.102C138.598 133.055 138.434 131.91 138.434 130.668C138.434 129.379 138.598 128.215 138.926 127.176C139.262 126.137 139.766 125.254 140.438 124.527C141.109 123.793 141.957 123.23 142.98 122.84C144.012 122.441 145.223 122.242 146.613 122.242C147.691 122.242 148.633 122.355 149.438 122.582C150.25 122.809 150.949 123.129 151.535 123.543C152.129 123.949 152.617 124.434 153 124.996C153.391 125.551 153.695 126.164 153.914 126.836L150.867 127.668C150.758 127.316 150.59 126.98 150.363 126.66C150.137 126.332 149.848 126.043 149.496 125.793C149.152 125.543 148.746 125.344 148.277 125.195C147.809 125.039 147.277 124.961 146.684 124.961C145.848 124.961 145.129 125.098 144.527 125.371C143.926 125.637 143.43 126.02 143.039 126.52C142.656 127.02 142.371 127.621 142.184 128.324C142.004 129.02 141.914 129.801 141.914 130.668C141.914 131.527 142.004 132.316 142.184 133.035C142.371 133.746 142.66 134.359 143.051 134.875C143.441 135.391 143.941 135.793 144.551 136.082C145.168 136.371 145.906 136.516 146.766 136.516ZM168.516 132.648C168.516 133.617 168.379 134.504 168.105 135.309C167.84 136.113 167.438 136.809 166.898 137.395C166.359 137.973 165.688 138.426 164.883 138.754C164.078 139.074 163.141 139.234 162.07 139.234C161.039 139.234 160.129 139.074 159.34 138.754C158.551 138.434 157.887 137.984 157.348 137.406C156.816 136.828 156.414 136.137 156.141 135.332C155.867 134.52 155.73 133.625 155.73 132.648C155.73 131.703 155.859 130.832 156.117 130.035C156.383 129.23 156.781 128.535 157.312 127.949C157.844 127.363 158.512 126.906 159.316 126.578C160.121 126.25 161.062 126.086 162.141 126.086C163.281 126.086 164.254 126.25 165.059 126.578C165.863 126.906 166.52 127.363 167.027 127.949C167.543 128.527 167.918 129.219 168.152 130.023C168.395 130.82 168.516 131.695 168.516 132.648ZM165.07 132.648C165.07 131.141 164.824 130.047 164.332 129.367C163.84 128.688 163.125 128.348 162.188 128.348C161.219 128.348 160.477 128.691 159.961 129.379C159.445 130.066 159.188 131.156 159.188 132.648C159.188 133.406 159.254 134.059 159.387 134.605C159.527 135.152 159.723 135.602 159.973 135.953C160.223 136.305 160.523 136.566 160.875 136.738C161.227 136.902 161.613 136.984 162.035 136.984C162.52 136.984 162.949 136.902 163.324 136.738C163.707 136.566 164.027 136.305 164.285 135.953C164.543 135.602 164.738 135.152 164.871 134.605C165.004 134.059 165.07 133.406 165.07 132.648ZM179.355 139V131.887C179.355 131.395 179.316 130.945 179.238 130.539C179.16 130.125 179.031 129.773 178.852 129.484C178.672 129.188 178.438 128.957 178.148 128.793C177.859 128.629 177.508 128.547 177.094 128.547C176.695 128.547 176.332 128.637 176.004 128.816C175.684 128.988 175.406 129.238 175.172 129.566C174.938 129.887 174.754 130.273 174.621 130.727C174.496 131.172 174.434 131.664 174.434 132.203V139H171.141V129.156C171.141 128.883 171.137 128.602 171.129 128.312C171.129 128.023 171.121 127.75 171.105 127.492C171.098 127.227 171.09 126.992 171.082 126.789C171.074 126.578 171.062 126.422 171.047 126.32H174.188C174.203 126.414 174.219 126.566 174.234 126.777C174.25 126.98 174.266 127.207 174.281 127.457C174.297 127.707 174.309 127.957 174.316 128.207C174.332 128.457 174.34 128.668 174.34 128.84H174.387C174.832 127.871 175.391 127.168 176.062 126.73C176.734 126.293 177.535 126.074 178.465 126.074C179.23 126.074 179.875 126.199 180.398 126.449C180.93 126.699 181.359 127.043 181.688 127.48C182.023 127.918 182.266 128.434 182.414 129.027C182.562 129.621 182.637 130.262 182.637 130.949V139H179.355ZM189.059 139.211C188.09 139.211 187.344 138.949 186.82 138.426C186.297 137.895 186.035 137.094 186.035 136.023V128.547H184.43V126.32H186.199L187.23 123.344H189.293V126.32H191.695V128.547H189.293V135.133C189.293 135.75 189.41 136.207 189.645 136.504C189.879 136.793 190.242 136.938 190.734 136.938C190.938 136.938 191.121 136.922 191.285 136.891C191.449 136.859 191.633 136.82 191.836 136.773V138.812C191.43 138.945 191 139.043 190.547 139.105C190.094 139.176 189.598 139.211 189.059 139.211ZM196.734 139.234C196.125 139.234 195.578 139.152 195.094 138.988C194.617 138.816 194.211 138.57 193.875 138.25C193.539 137.922 193.281 137.52 193.102 137.043C192.922 136.566 192.832 136.023 192.832 135.414C192.832 134.664 192.961 134.035 193.219 133.527C193.484 133.012 193.844 132.598 194.297 132.285C194.75 131.965 195.281 131.734 195.891 131.594C196.5 131.445 197.148 131.367 197.836 131.359L200.566 131.312V130.668C200.566 130.207 200.523 129.824 200.438 129.52C200.359 129.207 200.242 128.953 200.086 128.758C199.93 128.562 199.734 128.426 199.5 128.348C199.273 128.262 199.012 128.219 198.715 128.219C198.441 128.219 198.195 128.246 197.977 128.301C197.766 128.355 197.582 128.453 197.426 128.594C197.27 128.727 197.141 128.91 197.039 129.145C196.945 129.371 196.879 129.66 196.84 130.012L193.406 129.848C193.5 129.293 193.672 128.789 193.922 128.336C194.172 127.875 194.516 127.477 194.953 127.141C195.398 126.805 195.941 126.547 196.582 126.367C197.23 126.18 197.988 126.086 198.855 126.086C199.645 126.086 200.348 126.184 200.965 126.379C201.582 126.574 202.105 126.867 202.535 127.258C202.965 127.641 203.293 128.113 203.52 128.676C203.746 129.238 203.859 129.891 203.859 130.633V135.25C203.859 135.547 203.871 135.812 203.895 136.047C203.926 136.281 203.977 136.48 204.047 136.645C204.125 136.801 204.23 136.922 204.363 137.008C204.504 137.086 204.684 137.125 204.902 137.125C205.152 137.125 205.395 137.102 205.629 137.055V138.836C205.434 138.883 205.258 138.926 205.102 138.965C204.945 139.004 204.789 139.035 204.633 139.059C204.477 139.082 204.309 139.102 204.129 139.117C203.957 139.133 203.754 139.141 203.52 139.141C202.691 139.141 202.078 138.938 201.68 138.531C201.289 138.125 201.055 137.527 200.977 136.738H200.906C200.469 137.527 199.906 138.141 199.219 138.578C198.539 139.016 197.711 139.234 196.734 139.234ZM200.566 133.129L198.879 133.152C198.527 133.168 198.191 133.199 197.871 133.246C197.559 133.285 197.281 133.375 197.039 133.516C196.805 133.648 196.617 133.844 196.477 134.102C196.336 134.359 196.266 134.711 196.266 135.156C196.266 135.758 196.402 136.207 196.676 136.504C196.957 136.793 197.328 136.938 197.789 136.938C198.211 136.938 198.594 136.848 198.938 136.668C199.281 136.488 199.57 136.254 199.805 135.965C200.047 135.668 200.234 135.328 200.367 134.945C200.5 134.562 200.566 134.172 200.566 133.773V133.129ZM212.449 139.234C211.441 139.234 210.559 139.078 209.801 138.766C209.051 138.453 208.426 138.012 207.926 137.441C207.426 136.871 207.051 136.188 206.801 135.391C206.551 134.586 206.426 133.699 206.426 132.73C206.426 131.676 206.562 130.738 206.836 129.918C207.109 129.09 207.504 128.395 208.02 127.832C208.535 127.262 209.168 126.828 209.918 126.531C210.676 126.234 211.535 126.086 212.496 126.086C213.316 126.086 214.043 126.195 214.676 126.414C215.316 126.633 215.867 126.934 216.328 127.316C216.789 127.691 217.16 128.137 217.441 128.652C217.73 129.168 217.93 129.723 218.039 130.316L214.723 130.48C214.629 129.832 214.395 129.316 214.02 128.934C213.645 128.543 213.113 128.348 212.426 128.348C211.543 128.348 210.898 128.711 210.492 129.438C210.086 130.164 209.883 131.219 209.883 132.602C209.883 135.523 210.746 136.984 212.473 136.984C213.098 136.984 213.621 136.789 214.043 136.398C214.465 136 214.727 135.41 214.828 134.629L218.133 134.781C218.055 135.367 217.875 135.93 217.594 136.469C217.32 137 216.945 137.473 216.469 137.887C216 138.293 215.43 138.621 214.758 138.871C214.086 139.113 213.316 139.234 212.449 139.234ZM223.77 139.211C222.801 139.211 222.055 138.949 221.531 138.426C221.008 137.895 220.746 137.094 220.746 136.023V128.547H219.141V126.32H220.91L221.941 123.344H224.004V126.32H226.406V128.547H224.004V135.133C224.004 135.75 224.121 136.207 224.355 136.504C224.59 136.793 224.953 136.938 225.445 136.938C225.648 136.938 225.832 136.922 225.996 136.891C226.16 136.859 226.344 136.82 226.547 136.773V138.812C226.141 138.945 225.711 139.043 225.258 139.105C224.805 139.176 224.309 139.211 223.77 139.211ZM238.301 126.32V133.434C238.301 133.926 238.34 134.379 238.418 134.793C238.496 135.199 238.625 135.551 238.805 135.848C238.984 136.137 239.215 136.363 239.496 136.527C239.785 136.691 240.137 136.773 240.551 136.773C240.949 136.773 241.309 136.688 241.629 136.516C241.957 136.336 242.238 136.086 242.473 135.766C242.707 135.438 242.887 135.051 243.012 134.605C243.145 134.152 243.211 133.656 243.211 133.117V126.32H246.504V136.164C246.504 136.43 246.504 136.711 246.504 137.008C246.512 137.297 246.52 137.574 246.527 137.84C246.543 138.098 246.555 138.332 246.562 138.543C246.578 138.746 246.59 138.898 246.598 139H243.457C243.449 138.906 243.434 138.758 243.41 138.555C243.395 138.344 243.379 138.113 243.363 137.863L243.34 137.113C243.324 136.863 243.316 136.652 243.316 136.48H243.258C242.82 137.441 242.262 138.141 241.582 138.578C240.91 139.016 240.109 139.234 239.18 139.234C238.422 139.234 237.777 139.109 237.246 138.859C236.715 138.609 236.281 138.27 235.945 137.84C235.617 137.402 235.379 136.887 235.23 136.293C235.082 135.699 235.008 135.059 235.008 134.371V126.32H238.301ZM260.555 135.297C260.555 135.906 260.426 136.453 260.168 136.938C259.918 137.422 259.551 137.836 259.066 138.18C258.582 138.516 257.988 138.777 257.285 138.965C256.582 139.145 255.781 139.234 254.883 139.234C254.078 139.234 253.352 139.176 252.703 139.059C252.055 138.941 251.484 138.75 250.992 138.484C250.508 138.211 250.102 137.859 249.773 137.43C249.445 137 249.199 136.469 249.035 135.836L251.93 135.402C252.023 135.754 252.152 136.039 252.316 136.258C252.48 136.477 252.684 136.645 252.926 136.762C253.168 136.879 253.449 136.957 253.77 136.996C254.098 137.035 254.469 137.055 254.883 137.055C255.258 137.055 255.605 137.035 255.926 136.996C256.254 136.949 256.535 136.875 256.77 136.773C257.012 136.664 257.199 136.516 257.332 136.328C257.465 136.133 257.531 135.891 257.531 135.602C257.531 135.273 257.434 135.016 257.238 134.828C257.051 134.633 256.789 134.477 256.453 134.359C256.125 134.234 255.734 134.129 255.281 134.043C254.836 133.949 254.359 133.844 253.852 133.727C253.32 133.609 252.797 133.469 252.281 133.305C251.766 133.141 251.305 132.918 250.898 132.637C250.492 132.355 250.164 132 249.914 131.57C249.664 131.133 249.539 130.582 249.539 129.918C249.539 129.316 249.656 128.781 249.891 128.312C250.125 127.836 250.469 127.434 250.922 127.105C251.375 126.77 251.934 126.516 252.598 126.344C253.27 126.164 254.039 126.074 254.906 126.074C255.594 126.074 256.234 126.141 256.828 126.273C257.422 126.398 257.953 126.602 258.422 126.883C258.891 127.156 259.281 127.508 259.594 127.938C259.914 128.367 260.137 128.887 260.262 129.496L257.344 129.801C257.289 129.496 257.191 129.246 257.051 129.051C256.91 128.848 256.734 128.688 256.523 128.57C256.32 128.453 256.082 128.375 255.809 128.336C255.535 128.289 255.234 128.266 254.906 128.266C254.125 128.266 253.539 128.367 253.148 128.57C252.758 128.766 252.562 129.098 252.562 129.566C252.562 129.855 252.641 130.086 252.797 130.258C252.961 130.43 253.188 130.574 253.477 130.691C253.773 130.801 254.121 130.898 254.52 130.984C254.926 131.062 255.367 131.16 255.844 131.277C256.43 131.402 257.004 131.551 257.566 131.723C258.137 131.887 258.641 132.117 259.078 132.414C259.523 132.703 259.879 133.078 260.145 133.539C260.418 134 260.555 134.586 260.555 135.297Z" fill="#120923"/>
<path fill-rule="evenodd" clip-rule="evenodd" d="M352.335 121.417H337.335C336.645 121.417 336.085 121.977 336.085 122.667C336.085 123.357 336.645 123.917 337.335 123.917H349.317L334.784 138.45C334.296 138.938 334.296 139.729 334.784 140.218C335.272 140.706 336.064 140.706 336.552 140.218L351.085 125.684V137.667C351.085 138.357 351.645 138.917 352.335 138.917C353.025 138.917 353.585 138.357 353.585 137.667V122.667C353.585 121.977 353.025 121.417 352.335 121.417H352.335Z" fill="white"/>
<defs>
<filter id="filter0_f_375_4804" x="0.958595" y="0.400002" width="477.083" height="260.2" filterUnits="userSpaceOnUse" color-interpolation-filters="sRGB">
<feFlood flood-opacity="0" result="BackgroundImageFix"/>
<feBlend mode="normal" in="SourceGraphic" in2="BackgroundImageFix" result="shape"/>
<feGaussianBlur stdDeviation="41.3" result="effect1_foregroundBlur_375_4804"/>
</filter>
<linearGradient id="paint0_linear_375_4804" x1="108.236" y1="76.5" x2="343.808" y2="205.332" gradientUnits="userSpaceOnUse">
<stop stop-color="#FECF83"/>
<stop offset="0.204545" stop-color="#79FAC7"/>
<stop offset="0.409081" stop-color="#FF9F59"/>
<stop offset="0.644351" stop-color="#FF6392"/>
<stop offset="0.824173" stop-color="#A87CF3"/>
<stop offset="1" stop-color="#5AAFFE"/>
</linearGradient>
<linearGradient id="paint1_linear_375_4804" x1="108.236" y1="76.5" x2="343.808" y2="205.332" gradientUnits="userSpaceOnUse">
<stop stop-color="#FECF83"/>
<stop offset="0.204545" stop-color="#79FAC7"/>
<stop offset="0.409081" stop-color="#FF9F59"/>
<stop offset="0.644351" stop-color="#FF6392"/>
<stop offset="0.824173" stop-color="#A87CF3"/>
<stop offset="1" stop-color="#5AAFFE"/>
</linearGradient>
<linearGradient id="paint2_linear_375_4804" x1="101.032" y1="67.4053" x2="360.581" y2="195.557" gradientUnits="userSpaceOnUse">
<stop stop-color="#FECF83"/>
<stop offset="0.204545" stop-color="#79FAC7"/>
<stop offset="0.409081" stop-color="#FF9F59"/>
<stop offset="0.644351" stop-color="#FF6392"/>
<stop offset="0.824173" stop-color="#A87CF3"/>
<stop offset="1" stop-color="#5AAFFE"/>
</linearGradient>
</defs>
</svg>
