<svg width="360" height="231" viewBox="0 0 360 231" fill="none" xmlns="http://www.w3.org/2000/svg">
<g filter="url(#filter0_f_69_7769)">
<rect x="30" y="83" width="300" height="65" rx="32.5" fill="url(#paint0_linear_69_7769)" fill-opacity="0.7"/>
</g>
<rect x="30.75" y="83.75" width="298.5" height="63.5" rx="31.75" stroke="url(#paint1_linear_69_7769)" stroke-width="1.5"/>
<rect opacity="0.3" x="24.75" y="77.75" width="310.5" height="75.5" rx="37.75" stroke="url(#paint2_linear_69_7769)" stroke-width="1.5"/>
<rect x="36" y="89" width="222" height="53" rx="26.5" fill="white"/>
<path d="M111.844 119.344C112.276 119.344 112.648 119.284 112.961 119.164C113.279 119.039 113.552 118.878 113.781 118.68C114.016 118.482 114.208 118.258 114.359 118.008C114.516 117.758 114.643 117.505 114.742 117.25L116.75 118.008C116.589 118.404 116.378 118.792 116.117 119.172C115.857 119.552 115.531 119.888 115.141 120.18C114.75 120.471 114.284 120.708 113.742 120.891C113.206 121.068 112.573 121.156 111.844 121.156C110.891 121.156 110.065 121.016 109.367 120.734C108.669 120.448 108.091 120.052 107.633 119.547C107.18 119.036 106.841 118.432 106.617 117.734C106.398 117.036 106.289 116.273 106.289 115.445C106.289 114.586 106.398 113.81 106.617 113.117C106.841 112.424 107.177 111.836 107.625 111.352C108.073 110.862 108.638 110.487 109.32 110.227C110.008 109.961 110.815 109.828 111.742 109.828C112.461 109.828 113.089 109.904 113.625 110.055C114.167 110.206 114.633 110.419 115.023 110.695C115.419 110.966 115.745 111.289 116 111.664C116.26 112.034 116.464 112.443 116.609 112.891L114.578 113.445C114.505 113.211 114.393 112.987 114.242 112.773C114.091 112.555 113.898 112.362 113.664 112.195C113.435 112.029 113.164 111.896 112.852 111.797C112.539 111.693 112.185 111.641 111.789 111.641C111.232 111.641 110.753 111.732 110.352 111.914C109.951 112.091 109.62 112.346 109.359 112.68C109.104 113.013 108.914 113.414 108.789 113.883C108.669 114.346 108.609 114.867 108.609 115.445C108.609 116.018 108.669 116.544 108.789 117.023C108.914 117.497 109.107 117.906 109.367 118.25C109.628 118.594 109.961 118.862 110.367 119.055C110.779 119.247 111.271 119.344 111.844 119.344ZM126.344 116.766C126.344 117.411 126.253 118.003 126.07 118.539C125.893 119.076 125.625 119.539 125.266 119.93C124.906 120.315 124.458 120.617 123.922 120.836C123.385 121.049 122.76 121.156 122.047 121.156C121.359 121.156 120.753 121.049 120.227 120.836C119.701 120.622 119.258 120.323 118.898 119.938C118.544 119.552 118.276 119.091 118.094 118.555C117.911 118.013 117.82 117.417 117.82 116.766C117.82 116.135 117.906 115.555 118.078 115.023C118.255 114.487 118.521 114.023 118.875 113.633C119.229 113.242 119.674 112.938 120.211 112.719C120.747 112.5 121.375 112.391 122.094 112.391C122.854 112.391 123.503 112.5 124.039 112.719C124.576 112.938 125.013 113.242 125.352 113.633C125.695 114.018 125.945 114.479 126.102 115.016C126.263 115.547 126.344 116.13 126.344 116.766ZM124.047 116.766C124.047 115.76 123.883 115.031 123.555 114.578C123.227 114.125 122.75 113.898 122.125 113.898C121.479 113.898 120.984 114.128 120.641 114.586C120.297 115.044 120.125 115.771 120.125 116.766C120.125 117.271 120.169 117.706 120.258 118.07C120.352 118.435 120.482 118.734 120.648 118.969C120.815 119.203 121.016 119.378 121.25 119.492C121.484 119.602 121.742 119.656 122.023 119.656C122.346 119.656 122.633 119.602 122.883 119.492C123.138 119.378 123.352 119.203 123.523 118.969C123.695 118.734 123.826 118.435 123.914 118.07C124.003 117.706 124.047 117.271 124.047 116.766ZM133.57 121V116.258C133.57 115.93 133.544 115.63 133.492 115.359C133.44 115.083 133.354 114.849 133.234 114.656C133.115 114.458 132.958 114.305 132.766 114.195C132.573 114.086 132.339 114.031 132.062 114.031C131.797 114.031 131.555 114.091 131.336 114.211C131.122 114.326 130.938 114.492 130.781 114.711C130.625 114.924 130.503 115.182 130.414 115.484C130.331 115.781 130.289 116.109 130.289 116.469V121H128.094V114.438C128.094 114.255 128.091 114.068 128.086 113.875C128.086 113.682 128.081 113.5 128.07 113.328C128.065 113.151 128.06 112.995 128.055 112.859C128.049 112.719 128.042 112.615 128.031 112.547H130.125C130.135 112.609 130.146 112.711 130.156 112.852C130.167 112.987 130.177 113.138 130.188 113.305C130.198 113.471 130.206 113.638 130.211 113.805C130.221 113.971 130.227 114.112 130.227 114.227H130.258C130.555 113.581 130.927 113.112 131.375 112.82C131.823 112.529 132.357 112.383 132.977 112.383C133.487 112.383 133.917 112.466 134.266 112.633C134.62 112.799 134.906 113.029 135.125 113.32C135.349 113.612 135.51 113.956 135.609 114.352C135.708 114.747 135.758 115.174 135.758 115.633V121H133.57ZM140.039 121.141C139.393 121.141 138.896 120.966 138.547 120.617C138.198 120.263 138.023 119.729 138.023 119.016V114.031H136.953V112.547H138.133L138.82 110.562H140.195V112.547H141.797V114.031H140.195V118.422C140.195 118.833 140.273 119.138 140.43 119.336C140.586 119.529 140.828 119.625 141.156 119.625C141.292 119.625 141.414 119.615 141.523 119.594C141.633 119.573 141.755 119.547 141.891 119.516V120.875C141.62 120.964 141.333 121.029 141.031 121.07C140.729 121.117 140.398 121.141 140.039 121.141ZM145.156 121.156C144.75 121.156 144.385 121.102 144.062 120.992C143.745 120.878 143.474 120.714 143.25 120.5C143.026 120.281 142.854 120.013 142.734 119.695C142.615 119.378 142.555 119.016 142.555 118.609C142.555 118.109 142.641 117.69 142.812 117.352C142.99 117.008 143.229 116.732 143.531 116.523C143.833 116.31 144.188 116.156 144.594 116.062C145 115.964 145.432 115.911 145.891 115.906L147.711 115.875V115.445C147.711 115.138 147.682 114.883 147.625 114.68C147.573 114.471 147.495 114.302 147.391 114.172C147.286 114.042 147.156 113.951 147 113.898C146.849 113.841 146.674 113.812 146.477 113.812C146.294 113.812 146.13 113.831 145.984 113.867C145.844 113.904 145.721 113.969 145.617 114.062C145.513 114.151 145.427 114.273 145.359 114.43C145.297 114.581 145.253 114.773 145.227 115.008L142.938 114.898C143 114.529 143.115 114.193 143.281 113.891C143.448 113.583 143.677 113.318 143.969 113.094C144.266 112.87 144.628 112.698 145.055 112.578C145.487 112.453 145.992 112.391 146.57 112.391C147.096 112.391 147.565 112.456 147.977 112.586C148.388 112.716 148.737 112.911 149.023 113.172C149.31 113.427 149.529 113.742 149.68 114.117C149.831 114.492 149.906 114.927 149.906 115.422V118.5C149.906 118.698 149.914 118.875 149.93 119.031C149.951 119.188 149.984 119.32 150.031 119.43C150.083 119.534 150.154 119.615 150.242 119.672C150.336 119.724 150.456 119.75 150.602 119.75C150.768 119.75 150.93 119.734 151.086 119.703V120.891C150.956 120.922 150.839 120.951 150.734 120.977C150.63 121.003 150.526 121.023 150.422 121.039C150.318 121.055 150.206 121.068 150.086 121.078C149.971 121.089 149.836 121.094 149.68 121.094C149.128 121.094 148.719 120.958 148.453 120.688C148.193 120.417 148.036 120.018 147.984 119.492H147.938C147.646 120.018 147.271 120.427 146.812 120.719C146.359 121.01 145.807 121.156 145.156 121.156ZM147.711 117.086L146.586 117.102C146.352 117.112 146.128 117.133 145.914 117.164C145.706 117.19 145.521 117.25 145.359 117.344C145.203 117.432 145.078 117.562 144.984 117.734C144.891 117.906 144.844 118.141 144.844 118.438C144.844 118.839 144.935 119.138 145.117 119.336C145.305 119.529 145.552 119.625 145.859 119.625C146.141 119.625 146.396 119.565 146.625 119.445C146.854 119.326 147.047 119.169 147.203 118.977C147.365 118.779 147.49 118.552 147.578 118.297C147.667 118.042 147.711 117.781 147.711 117.516V117.086ZM155.633 121.156C154.961 121.156 154.372 121.052 153.867 120.844C153.367 120.635 152.951 120.341 152.617 119.961C152.284 119.581 152.034 119.125 151.867 118.594C151.701 118.057 151.617 117.466 151.617 116.82C151.617 116.117 151.708 115.492 151.891 114.945C152.073 114.393 152.336 113.93 152.68 113.555C153.023 113.174 153.445 112.885 153.945 112.688C154.451 112.49 155.023 112.391 155.664 112.391C156.211 112.391 156.695 112.464 157.117 112.609C157.544 112.755 157.911 112.956 158.219 113.211C158.526 113.461 158.773 113.758 158.961 114.102C159.154 114.445 159.286 114.815 159.359 115.211L157.148 115.32C157.086 114.888 156.93 114.544 156.68 114.289C156.43 114.029 156.076 113.898 155.617 113.898C155.029 113.898 154.599 114.141 154.328 114.625C154.057 115.109 153.922 115.812 153.922 116.734C153.922 118.682 154.497 119.656 155.648 119.656C156.065 119.656 156.414 119.526 156.695 119.266C156.977 119 157.151 118.607 157.219 118.086L159.422 118.188C159.37 118.578 159.25 118.953 159.062 119.312C158.88 119.667 158.63 119.982 158.312 120.258C158 120.529 157.62 120.747 157.172 120.914C156.724 121.076 156.211 121.156 155.633 121.156ZM163.18 121.141C162.534 121.141 162.036 120.966 161.688 120.617C161.339 120.263 161.164 119.729 161.164 119.016V114.031H160.094V112.547H161.273L161.961 110.562H163.336V112.547H164.938V114.031H163.336V118.422C163.336 118.833 163.414 119.138 163.57 119.336C163.727 119.529 163.969 119.625 164.297 119.625C164.432 119.625 164.555 119.615 164.664 119.594C164.773 119.573 164.896 119.547 165.031 119.516V120.875C164.76 120.964 164.474 121.029 164.172 121.07C163.87 121.117 163.539 121.141 163.18 121.141ZM172.867 112.547V117.289C172.867 117.617 172.893 117.919 172.945 118.195C172.997 118.466 173.083 118.701 173.203 118.898C173.323 119.091 173.477 119.242 173.664 119.352C173.857 119.461 174.091 119.516 174.367 119.516C174.633 119.516 174.872 119.458 175.086 119.344C175.305 119.224 175.492 119.057 175.648 118.844C175.805 118.625 175.924 118.367 176.008 118.07C176.096 117.768 176.141 117.438 176.141 117.078V112.547H178.336V119.109C178.336 119.286 178.336 119.474 178.336 119.672C178.341 119.865 178.346 120.049 178.352 120.227C178.362 120.398 178.37 120.555 178.375 120.695C178.385 120.831 178.393 120.932 178.398 121H176.305C176.299 120.938 176.289 120.839 176.273 120.703C176.263 120.562 176.253 120.409 176.242 120.242L176.227 119.742C176.216 119.576 176.211 119.435 176.211 119.32H176.172C175.88 119.961 175.508 120.427 175.055 120.719C174.607 121.01 174.073 121.156 173.453 121.156C172.948 121.156 172.518 121.073 172.164 120.906C171.81 120.74 171.521 120.513 171.297 120.227C171.078 119.935 170.919 119.591 170.82 119.195C170.721 118.799 170.672 118.372 170.672 117.914V112.547H172.867ZM187.703 118.531C187.703 118.938 187.617 119.302 187.445 119.625C187.279 119.948 187.034 120.224 186.711 120.453C186.388 120.677 185.992 120.852 185.523 120.977C185.055 121.096 184.521 121.156 183.922 121.156C183.385 121.156 182.901 121.117 182.469 121.039C182.036 120.961 181.656 120.833 181.328 120.656C181.005 120.474 180.734 120.24 180.516 119.953C180.297 119.667 180.133 119.312 180.023 118.891L181.953 118.602C182.016 118.836 182.102 119.026 182.211 119.172C182.32 119.318 182.456 119.43 182.617 119.508C182.779 119.586 182.966 119.638 183.18 119.664C183.398 119.69 183.646 119.703 183.922 119.703C184.172 119.703 184.404 119.69 184.617 119.664C184.836 119.633 185.023 119.583 185.18 119.516C185.341 119.443 185.466 119.344 185.555 119.219C185.643 119.089 185.688 118.927 185.688 118.734C185.688 118.516 185.622 118.344 185.492 118.219C185.367 118.089 185.193 117.984 184.969 117.906C184.75 117.823 184.49 117.753 184.188 117.695C183.891 117.633 183.573 117.562 183.234 117.484C182.88 117.406 182.531 117.312 182.188 117.203C181.844 117.094 181.536 116.945 181.266 116.758C180.995 116.57 180.776 116.333 180.609 116.047C180.443 115.755 180.359 115.388 180.359 114.945C180.359 114.544 180.438 114.188 180.594 113.875C180.75 113.557 180.979 113.289 181.281 113.07C181.583 112.846 181.956 112.677 182.398 112.562C182.846 112.443 183.359 112.383 183.938 112.383C184.396 112.383 184.823 112.427 185.219 112.516C185.615 112.599 185.969 112.734 186.281 112.922C186.594 113.104 186.854 113.339 187.062 113.625C187.276 113.911 187.424 114.258 187.508 114.664L185.562 114.867C185.526 114.664 185.461 114.497 185.367 114.367C185.273 114.232 185.156 114.125 185.016 114.047C184.88 113.969 184.721 113.917 184.539 113.891C184.357 113.859 184.156 113.844 183.938 113.844C183.417 113.844 183.026 113.911 182.766 114.047C182.505 114.177 182.375 114.398 182.375 114.711C182.375 114.904 182.427 115.057 182.531 115.172C182.641 115.286 182.792 115.383 182.984 115.461C183.182 115.534 183.414 115.599 183.68 115.656C183.951 115.708 184.245 115.773 184.562 115.852C184.953 115.935 185.336 116.034 185.711 116.148C186.091 116.258 186.427 116.411 186.719 116.609C187.016 116.802 187.253 117.052 187.43 117.359C187.612 117.667 187.703 118.057 187.703 118.531Z" fill="#120923"/>
<path fill-rule="evenodd" clip-rule="evenodd" d="M297.665 109.359C297.672 109.094 297.574 108.828 297.372 108.626C297.242 108.496 297.085 108.409 296.919 108.366C296.856 108.349 296.789 108.339 296.721 108.335C296.702 108.334 296.684 108.333 296.665 108.333C296.665 108.333 296.665 108.333 296.665 108.333H284.665C284.113 108.333 283.665 108.781 283.665 109.333C283.665 109.886 284.113 110.333 284.665 110.333H294.251L282.625 121.959C282.234 122.35 282.234 122.983 282.625 123.374C283.015 123.764 283.649 123.764 284.039 123.374L295.665 111.748V121.333C295.665 121.886 296.113 122.333 296.665 122.333C297.217 122.333 297.665 121.886 297.665 121.333V109.359Z" fill="white"/>
<defs>
<filter id="filter0_f_69_7769" x="-52.6" y="0.400002" width="465.2" height="230.2" filterUnits="userSpaceOnUse" color-interpolation-filters="sRGB">
<feFlood flood-opacity="0" result="BackgroundImageFix"/>
<feBlend mode="normal" in="SourceGraphic" in2="BackgroundImageFix" result="shape"/>
<feGaussianBlur stdDeviation="41.3" result="effect1_foregroundBlur_69_7769"/>
</filter>
<linearGradient id="paint0_linear_69_7769" x1="53.7374" y1="78.5526" x2="238.743" y2="220.794" gradientUnits="userSpaceOnUse">
<stop stop-color="#FECF83"/>
<stop offset="0.204545" stop-color="#79FAC7"/>
<stop offset="0.409081" stop-color="#FF9F59"/>
<stop offset="0.644351" stop-color="#FF6392"/>
<stop offset="0.824173" stop-color="#A87CF3"/>
<stop offset="1" stop-color="#5AAFFE"/>
</linearGradient>
<linearGradient id="paint1_linear_69_7769" x1="53.7374" y1="78.5526" x2="238.743" y2="220.794" gradientUnits="userSpaceOnUse">
<stop stop-color="#FECF83"/>
<stop offset="0.204545" stop-color="#79FAC7"/>
<stop offset="0.409081" stop-color="#FF9F59"/>
<stop offset="0.644351" stop-color="#FF6392"/>
<stop offset="0.824173" stop-color="#A87CF3"/>
<stop offset="1" stop-color="#5AAFFE"/>
</linearGradient>
<linearGradient id="paint2_linear_69_7769" x1="48.6869" y1="71.7316" x2="259.006" y2="213.694" gradientUnits="userSpaceOnUse">
<stop stop-color="#FECF83"/>
<stop offset="0.204545" stop-color="#79FAC7"/>
<stop offset="0.409081" stop-color="#FF9F59"/>
<stop offset="0.644351" stop-color="#FF6392"/>
<stop offset="0.824173" stop-color="#A87CF3"/>
<stop offset="1" stop-color="#5AAFFE"/>
</linearGradient>
</defs>
</svg>
