<svg width="1201" height="522" viewBox="0 0 1201 522" fill="none" xmlns="http://www.w3.org/2000/svg">
<circle cx="27.2108" cy="246.264" r="8.24984" transform="rotate(-90 27.2108 246.264)" fill="#FBFAFD"/>
<circle cx="385.769" cy="246.264" r="8.24984" transform="rotate(-90 385.769 246.264)" fill="#FBFAFD"/>
<circle cx="852.043" cy="246.264" r="8.24984" transform="rotate(-90 852.043 246.264)" fill="#FBFAFD"/>
<circle cx="27.2108" cy="193.929" r="8.24984" transform="rotate(-90 27.2108 193.929)" fill="#FBFAFD"/>
<circle cx="385.769" cy="193.929" r="8.24984" transform="rotate(-90 385.769 193.929)" fill="#FBFAFD"/>
<circle cx="852.043" cy="193.929" r="8.24984" transform="rotate(-90 852.043 193.929)" fill="#FBFAFD"/>
<circle cx="27.2108" cy="141.594" r="8.24984" transform="rotate(-90 27.2108 141.594)" fill="#FBFAFD"/>
<circle cx="385.769" cy="141.594" r="8.24984" transform="rotate(-90 385.769 141.594)" fill="#FBFAFD"/>
<circle cx="852.043" cy="141.594" r="8.24984" transform="rotate(-90 852.043 141.594)" fill="#FBFAFD"/>
<circle cx="27.2108" cy="89.2589" r="8.24984" transform="rotate(-90 27.2108 89.2589)" fill="#FBFAFD"/>
<circle cx="385.769" cy="89.2589" r="8.24984" transform="rotate(-90 385.769 89.2589)" fill="#FBFAFD"/>
<circle cx="852.043" cy="89.2589" r="8.24984" transform="rotate(-90 852.043 89.2589)" fill="#FBFAFD"/>
<circle cx="27.2108" cy="507.639" r="8.24984" transform="rotate(-90 27.2108 507.639)" fill="#FBFAFD"/>
<circle cx="27.2108" cy="36.924" r="8.24984" transform="rotate(-90 27.2108 36.924)" fill="#FBFAFD"/>
<circle cx="385.769" cy="507.639" r="8.24984" transform="rotate(-90 385.769 507.639)" fill="#FBFAFD"/>
<circle cx="385.769" cy="36.924" r="8.24984" transform="rotate(-90 385.769 36.924)" fill="#FBFAFD"/>
<circle cx="852.043" cy="507.639" r="8.24984" transform="rotate(-90 852.043 507.639)" fill="#FBFAFD"/>
<circle cx="852.043" cy="36.924" r="8.24984" transform="rotate(-90 852.043 36.924)" fill="#FBFAFD"/>
<circle cx="27.2108" cy="455.304" r="8.24984" transform="rotate(-90 27.2108 455.304)" fill="#FBFAFD"/>
<circle cx="385.769" cy="455.305" r="8.24984" transform="rotate(-90 385.769 455.305)" fill="#FBFAFD"/>
<circle cx="852.043" cy="455.304" r="8.24984" transform="rotate(-90 852.043 455.304)" fill="#FBFAFD"/>
<circle cx="27.2108" cy="402.969" r="8.24984" transform="rotate(-90 27.2108 402.969)" fill="#FBFAFD"/>
<circle cx="385.769" cy="402.969" r="8.24984" transform="rotate(-90 385.769 402.969)" fill="#FBFAFD"/>
<circle cx="852.043" cy="402.969" r="8.24984" transform="rotate(-90 852.043 402.969)" fill="#FBFAFD"/>
<circle cx="27.2108" cy="350.634" r="8.24984" transform="rotate(-90 27.2108 350.634)" fill="#FBFAFD"/>
<circle cx="385.769" cy="350.634" r="8.24984" transform="rotate(-90 385.769 350.634)" fill="#FBFAFD"/>
<circle cx="852.043" cy="350.634" r="8.24984" transform="rotate(-90 852.043 350.634)" fill="#FBFAFD"/>
<circle cx="27.2108" cy="298.299" r="8.24984" transform="rotate(-90 27.2108 298.299)" fill="#FBFAFD"/>
<circle cx="385.769" cy="298.299" r="8.24984" transform="rotate(-90 385.769 298.299)" fill="#FBFAFD"/>
<circle cx="852.043" cy="298.299" r="8.24984" transform="rotate(-90 852.043 298.299)" fill="#FBFAFD"/>
<circle cx="63.0467" cy="246.264" r="8.24984" transform="rotate(-90 63.0467 246.264)" fill="#FBFAFD"/>
<circle cx="421.605" cy="246.264" r="8.24984" transform="rotate(-90 421.605 246.264)" fill="#FBFAFD"/>
<circle cx="887.879" cy="246.264" r="8.24984" transform="rotate(-90 887.879 246.264)" fill="#FBFAFD"/>
<circle cx="63.0467" cy="193.929" r="8.24984" transform="rotate(-90 63.0467 193.929)" fill="#FBFAFD"/>
<circle cx="421.605" cy="193.929" r="8.24984" transform="rotate(-90 421.605 193.929)" fill="#FBFAFD"/>
<circle cx="887.879" cy="193.929" r="8.24984" transform="rotate(-90 887.879 193.929)" fill="#FBFAFD"/>
<circle cx="63.0467" cy="141.594" r="8.24984" transform="rotate(-90 63.0467 141.594)" fill="#FBFAFD"/>
<circle cx="421.605" cy="141.594" r="8.24984" transform="rotate(-90 421.605 141.594)" fill="#FBFAFD"/>
<circle cx="887.879" cy="141.594" r="8.24984" transform="rotate(-90 887.879 141.594)" fill="#FBFAFD"/>
<circle cx="63.0467" cy="89.2589" r="8.24984" transform="rotate(-90 63.0467 89.2589)" fill="#FBFAFD"/>
<circle cx="421.605" cy="89.2589" r="8.24984" transform="rotate(-90 421.605 89.2589)" fill="#FBFAFD"/>
<circle cx="887.879" cy="89.2589" r="8.24984" transform="rotate(-90 887.879 89.2589)" fill="#FBFAFD"/>
<circle cx="63.0467" cy="507.639" r="8.24984" transform="rotate(-90 63.0467 507.639)" fill="#FBFAFD"/>
<circle cx="63.0467" cy="36.924" r="8.24984" transform="rotate(-90 63.0467 36.924)" fill="#FBFAFD"/>
<circle cx="421.605" cy="507.639" r="8.24984" transform="rotate(-90 421.605 507.639)" fill="#FBFAFD"/>
<circle cx="421.605" cy="36.924" r="8.24984" transform="rotate(-90 421.605 36.924)" fill="#FBFAFD"/>
<circle cx="887.879" cy="507.639" r="8.24984" transform="rotate(-90 887.879 507.639)" fill="#FBFAFD"/>
<circle cx="887.879" cy="36.924" r="8.24984" transform="rotate(-90 887.879 36.924)" fill="#FBFAFD"/>
<circle cx="63.0467" cy="455.305" r="8.24984" transform="rotate(-90 63.0467 455.305)" fill="#FBFAFD"/>
<circle cx="421.605" cy="455.304" r="8.24984" transform="rotate(-90 421.605 455.304)" fill="#FBFAFD"/>
<circle cx="887.879" cy="455.304" r="8.24984" transform="rotate(-90 887.879 455.304)" fill="#FBFAFD"/>
<circle cx="63.0467" cy="402.969" r="8.24984" transform="rotate(-90 63.0467 402.969)" fill="#FBFAFD"/>
<circle cx="421.605" cy="402.969" r="8.24984" transform="rotate(-90 421.605 402.969)" fill="#FBFAFD"/>
<circle cx="887.875" cy="402.969" r="8.24984" transform="rotate(-90 887.875 402.969)" fill="#FBFAFD"/>
<circle cx="63.0467" cy="350.634" r="8.24984" transform="rotate(-90 63.0467 350.634)" fill="#FBFAFD"/>
<circle cx="421.605" cy="350.634" r="8.24984" transform="rotate(-90 421.605 350.634)" fill="#FBFAFD"/>
<circle cx="887.879" cy="350.634" r="8.24984" transform="rotate(-90 887.879 350.634)" fill="#FBFAFD"/>
<circle cx="63.0467" cy="298.299" r="8.24984" transform="rotate(-90 63.0467 298.299)" fill="#FBFAFD"/>
<circle cx="421.605" cy="298.299" r="8.24984" transform="rotate(-90 421.605 298.299)" fill="#FBFAFD"/>
<circle cx="887.879" cy="298.299" r="8.24984" transform="rotate(-90 887.879 298.299)" fill="#FBFAFD"/>
<circle cx="98.8827" cy="246.264" r="8.24984" transform="rotate(-90 98.8827 246.264)" fill="#FBFAFD"/>
<circle cx="457.441" cy="246.264" r="8.24984" transform="rotate(-90 457.441 246.264)" fill="#FBFAFD"/>
<circle cx="923.711" cy="246.264" r="8.24984" transform="rotate(-90 923.711 246.264)" fill="#FBFAFD"/>
<circle cx="98.8827" cy="193.929" r="8.24984" transform="rotate(-90 98.8827 193.929)" fill="#FBFAFD"/>
<circle cx="457.441" cy="193.929" r="8.24984" transform="rotate(-90 457.441 193.929)" fill="#FBFAFD"/>
<circle cx="923.711" cy="193.929" r="8.24984" transform="rotate(-90 923.711 193.929)" fill="#FBFAFD"/>
<circle cx="98.8827" cy="141.594" r="8.24984" transform="rotate(-90 98.8827 141.594)" fill="#FBFAFD"/>
<circle cx="457.441" cy="141.594" r="8.24984" transform="rotate(-90 457.441 141.594)" fill="#FBFAFD"/>
<circle cx="923.711" cy="141.594" r="8.24984" transform="rotate(-90 923.711 141.594)" fill="#FBFAFD"/>
<circle cx="98.8827" cy="89.2589" r="8.24984" transform="rotate(-90 98.8827 89.2589)" fill="#FBFAFD"/>
<circle cx="457.441" cy="89.2589" r="8.24984" transform="rotate(-90 457.441 89.2589)" fill="#FBFAFD"/>
<circle cx="923.711" cy="89.2589" r="8.24984" transform="rotate(-90 923.711 89.2589)" fill="#FBFAFD"/>
<circle cx="98.8827" cy="507.639" r="8.24984" transform="rotate(-90 98.8827 507.639)" fill="#FBFAFD"/>
<circle cx="98.8827" cy="36.924" r="8.24984" transform="rotate(-90 98.8827 36.924)" fill="#FBFAFD"/>
<circle cx="457.441" cy="507.639" r="8.24984" transform="rotate(-90 457.441 507.639)" fill="#FBFAFD"/>
<circle cx="457.441" cy="36.924" r="8.24984" transform="rotate(-90 457.441 36.924)" fill="#FBFAFD"/>
<circle cx="923.711" cy="507.639" r="8.24984" transform="rotate(-90 923.711 507.639)" fill="#FBFAFD"/>
<circle cx="923.711" cy="36.924" r="8.24984" transform="rotate(-90 923.711 36.924)" fill="#FBFAFD"/>
<circle cx="98.8827" cy="455.305" r="8.24984" transform="rotate(-90 98.8827 455.305)" fill="#FBFAFD"/>
<circle cx="457.441" cy="455.305" r="8.24984" transform="rotate(-90 457.441 455.305)" fill="#FBFAFD"/>
<circle cx="923.711" cy="455.305" r="8.24984" transform="rotate(-90 923.711 455.305)" fill="#FBFAFD"/>
<circle cx="98.8827" cy="402.969" r="8.24984" transform="rotate(-90 98.8827 402.969)" fill="#FBFAFD"/>
<circle cx="457.441" cy="402.969" r="8.24984" transform="rotate(-90 457.441 402.969)" fill="#FBFAFD"/>
<circle cx="923.711" cy="402.969" r="8.24984" transform="rotate(-90 923.711 402.969)" fill="#FBFAFD"/>
<circle cx="98.8827" cy="350.634" r="8.24984" transform="rotate(-90 98.8827 350.634)" fill="#FBFAFD"/>
<circle cx="457.441" cy="350.634" r="8.24984" transform="rotate(-90 457.441 350.634)" fill="#FBFAFD"/>
<circle cx="923.711" cy="350.634" r="8.24984" transform="rotate(-90 923.711 350.634)" fill="#FBFAFD"/>
<circle cx="98.8827" cy="298.299" r="8.24984" transform="rotate(-90 98.8827 298.299)" fill="#FBFAFD"/>
<circle cx="457.441" cy="298.299" r="8.24984" transform="rotate(-90 457.441 298.299)" fill="#FBFAFD"/>
<circle cx="923.711" cy="298.299" r="8.24984" transform="rotate(-90 923.711 298.299)" fill="#FBFAFD"/>
<circle cx="134.715" cy="246.264" r="8.24984" transform="rotate(-90 134.715 246.264)" fill="#FBFAFD"/>
<circle cx="493.277" cy="246.264" r="8.24984" transform="rotate(-90 493.277 246.264)" fill="#FBFAFD"/>
<circle cx="959.547" cy="246.264" r="8.24984" transform="rotate(-90 959.547 246.264)" fill="#FBFAFD"/>
<circle cx="134.715" cy="193.929" r="8.24984" transform="rotate(-90 134.715 193.929)" fill="#FBFAFD"/>
<circle cx="493.277" cy="193.929" r="8.24984" transform="rotate(-90 493.277 193.929)" fill="#FBFAFD"/>
<circle cx="959.547" cy="193.929" r="8.24984" transform="rotate(-90 959.547 193.929)" fill="#FBFAFD"/>
<circle cx="134.715" cy="141.594" r="8.24984" transform="rotate(-90 134.715 141.594)" fill="#FBFAFD"/>
<circle cx="493.277" cy="141.594" r="8.24984" transform="rotate(-90 493.277 141.594)" fill="#FBFAFD"/>
<circle cx="959.547" cy="141.594" r="8.24984" transform="rotate(-90 959.547 141.594)" fill="#FBFAFD"/>
<circle cx="134.715" cy="89.2589" r="8.24984" transform="rotate(-90 134.715 89.2589)" fill="#FBFAFD"/>
<circle cx="493.277" cy="89.2589" r="8.24984" transform="rotate(-90 493.277 89.2589)" fill="#FBFAFD"/>
<circle cx="959.547" cy="89.2589" r="8.24984" transform="rotate(-90 959.547 89.2589)" fill="#FBFAFD"/>
<circle cx="134.715" cy="507.639" r="8.24984" transform="rotate(-90 134.715 507.639)" fill="#FBFAFD"/>
<circle cx="134.715" cy="36.924" r="8.24984" transform="rotate(-90 134.715 36.924)" fill="#FBFAFD"/>
<circle cx="493.277" cy="507.639" r="8.24984" transform="rotate(-90 493.277 507.639)" fill="#FBFAFD"/>
<circle cx="493.277" cy="36.924" r="8.24984" transform="rotate(-90 493.277 36.924)" fill="#FBFAFD"/>
<circle cx="959.547" cy="507.639" r="8.24984" transform="rotate(-90 959.547 507.639)" fill="#FBFAFD"/>
<circle cx="959.547" cy="36.924" r="8.24984" transform="rotate(-90 959.547 36.924)" fill="#FBFAFD"/>
<circle cx="134.715" cy="455.304" r="8.24984" transform="rotate(-90 134.715 455.304)" fill="#FBFAFD"/>
<circle cx="493.277" cy="455.305" r="8.24984" transform="rotate(-90 493.277 455.305)" fill="#FBFAFD"/>
<circle cx="959.547" cy="455.304" r="8.24984" transform="rotate(-90 959.547 455.304)" fill="#FBFAFD"/>
<circle cx="134.719" cy="402.969" r="8.24984" transform="rotate(-90 134.719 402.969)" fill="#FBFAFD"/>
<circle cx="493.277" cy="402.969" r="8.24984" transform="rotate(-90 493.277 402.969)" fill="#FBFAFD"/>
<circle cx="959.547" cy="402.969" r="8.24984" transform="rotate(-90 959.547 402.969)" fill="#FBFAFD"/>
<circle cx="134.715" cy="350.634" r="8.24984" transform="rotate(-90 134.715 350.634)" fill="#FBFAFD"/>
<circle cx="493.277" cy="350.634" r="8.24984" transform="rotate(-90 493.277 350.634)" fill="#FBFAFD"/>
<circle cx="959.547" cy="350.634" r="8.24984" transform="rotate(-90 959.547 350.634)" fill="#FBFAFD"/>
<circle cx="134.715" cy="298.299" r="8.24984" transform="rotate(-90 134.715 298.299)" fill="#FBFAFD"/>
<circle cx="493.277" cy="298.299" r="8.24984" transform="rotate(-90 493.277 298.299)" fill="#FBFAFD"/>
<circle cx="959.547" cy="298.299" r="8.24984" transform="rotate(-90 959.547 298.299)" fill="#FBFAFD"/>
<circle cx="170.551" cy="246.264" r="8.24984" transform="rotate(-90 170.551 246.264)" fill="#FBFAFD"/>
<circle cx="529.109" cy="246.264" r="8.24984" transform="rotate(-90 529.109 246.264)" fill="#FBFAFD"/>
<circle cx="995.383" cy="246.264" r="8.24984" transform="rotate(-90 995.383 246.264)" fill="#FBFAFD"/>
<circle cx="170.551" cy="193.929" r="8.24984" transform="rotate(-90 170.551 193.929)" fill="#FBFAFD"/>
<circle cx="529.109" cy="193.929" r="8.24984" transform="rotate(-90 529.109 193.929)" fill="#FBFAFD"/>
<circle cx="995.383" cy="193.929" r="8.24984" transform="rotate(-90 995.383 193.929)" fill="#FBFAFD"/>
<circle cx="170.551" cy="141.594" r="8.24984" transform="rotate(-90 170.551 141.594)" fill="#FBFAFD"/>
<circle cx="529.109" cy="141.594" r="8.24984" transform="rotate(-90 529.109 141.594)" fill="#FBFAFD"/>
<circle cx="995.383" cy="141.594" r="8.24984" transform="rotate(-90 995.383 141.594)" fill="#FBFAFD"/>
<circle cx="170.551" cy="89.2589" r="8.24984" transform="rotate(-90 170.551 89.2589)" fill="#FBFAFD"/>
<circle cx="529.109" cy="89.2589" r="8.24984" transform="rotate(-90 529.109 89.2589)" fill="#FBFAFD"/>
<circle cx="995.383" cy="89.2589" r="8.24984" transform="rotate(-90 995.383 89.2589)" fill="#FBFAFD"/>
<circle cx="170.551" cy="507.639" r="8.24984" transform="rotate(-90 170.551 507.639)" fill="#FBFAFD"/>
<circle cx="170.551" cy="36.924" r="8.24984" transform="rotate(-90 170.551 36.924)" fill="#FBFAFD"/>
<circle cx="529.109" cy="507.639" r="8.24984" transform="rotate(-90 529.109 507.639)" fill="#FBFAFD"/>
<circle cx="529.109" cy="36.924" r="8.24984" transform="rotate(-90 529.109 36.924)" fill="#FBFAFD"/>
<circle cx="995.383" cy="507.639" r="8.24984" transform="rotate(-90 995.383 507.639)" fill="#FBFAFD"/>
<circle cx="995.383" cy="36.924" r="8.24984" transform="rotate(-90 995.383 36.924)" fill="#FBFAFD"/>
<circle cx="170.551" cy="455.304" r="8.24984" transform="rotate(-90 170.551 455.304)" fill="#FBFAFD"/>
<circle cx="529.109" cy="455.305" r="8.24984" transform="rotate(-90 529.109 455.305)" fill="#FBFAFD"/>
<circle cx="995.383" cy="455.305" r="8.24984" transform="rotate(-90 995.383 455.305)" fill="#FBFAFD"/>
<circle cx="170.551" cy="402.969" r="8.24984" transform="rotate(-90 170.551 402.969)" fill="#FBFAFD"/>
<circle cx="529.109" cy="402.969" r="8.24984" transform="rotate(-90 529.109 402.969)" fill="#FBFAFD"/>
<circle cx="995.383" cy="402.969" r="8.24984" transform="rotate(-90 995.383 402.969)" fill="#FBFAFD"/>
<circle cx="170.551" cy="350.634" r="8.24984" transform="rotate(-90 170.551 350.634)" fill="#FBFAFD"/>
<circle cx="529.109" cy="350.634" r="8.24984" transform="rotate(-90 529.109 350.634)" fill="#FBFAFD"/>
<circle cx="995.383" cy="350.634" r="8.24984" transform="rotate(-90 995.383 350.634)" fill="#FBFAFD"/>
<circle cx="170.551" cy="298.299" r="8.24984" transform="rotate(-90 170.551 298.299)" fill="#FBFAFD"/>
<circle cx="529.109" cy="298.299" r="8.24984" transform="rotate(-90 529.109 298.299)" fill="#FBFAFD"/>
<circle cx="995.383" cy="298.299" r="8.24984" transform="rotate(-90 995.383 298.299)" fill="#FBFAFD"/>
<circle cx="206.387" cy="246.264" r="8.24984" transform="rotate(-90 206.387 246.264)" fill="#FBFAFD"/>
<circle cx="564.945" cy="246.264" r="8.24984" transform="rotate(-90 564.945 246.264)" fill="#FBFAFD"/>
<circle cx="1031.22" cy="246.264" r="8.24984" transform="rotate(-90 1031.22 246.264)" fill="#FBFAFD"/>
<circle cx="206.387" cy="193.929" r="8.24984" transform="rotate(-90 206.387 193.929)" fill="#FBFAFD"/>
<circle cx="564.945" cy="193.929" r="8.24984" transform="rotate(-90 564.945 193.929)" fill="#FBFAFD"/>
<circle cx="1031.22" cy="193.929" r="8.24984" transform="rotate(-90 1031.22 193.929)" fill="#FBFAFD"/>
<circle cx="206.387" cy="141.594" r="8.24984" transform="rotate(-90 206.387 141.594)" fill="#FBFAFD"/>
<circle cx="564.945" cy="141.594" r="8.24984" transform="rotate(-90 564.945 141.594)" fill="#FBFAFD"/>
<circle cx="1031.22" cy="141.594" r="8.24984" transform="rotate(-90 1031.22 141.594)" fill="#FBFAFD"/>
<circle cx="206.387" cy="89.2589" r="8.24984" transform="rotate(-90 206.387 89.2589)" fill="#FBFAFD"/>
<circle cx="564.945" cy="89.2589" r="8.24984" transform="rotate(-90 564.945 89.2589)" fill="#FBFAFD"/>
<circle cx="1031.22" cy="89.2589" r="8.24984" transform="rotate(-90 1031.22 89.2589)" fill="#FBFAFD"/>
<circle cx="206.387" cy="507.639" r="8.24984" transform="rotate(-90 206.387 507.639)" fill="#FBFAFD"/>
<circle cx="206.387" cy="36.924" r="8.24984" transform="rotate(-90 206.387 36.924)" fill="#FBFAFD"/>
<circle cx="564.945" cy="507.639" r="8.24984" transform="rotate(-90 564.945 507.639)" fill="#FBFAFD"/>
<circle cx="564.945" cy="36.924" r="8.24984" transform="rotate(-90 564.945 36.924)" fill="#FBFAFD"/>
<circle cx="1031.22" cy="507.639" r="8.24984" transform="rotate(-90 1031.22 507.639)" fill="#FBFAFD"/>
<circle cx="1031.22" cy="36.924" r="8.24984" transform="rotate(-90 1031.22 36.924)" fill="#FBFAFD"/>
<circle cx="206.387" cy="455.305" r="8.24984" transform="rotate(-90 206.387 455.305)" fill="#FBFAFD"/>
<circle cx="564.945" cy="455.304" r="8.24984" transform="rotate(-90 564.945 455.304)" fill="#FBFAFD"/>
<circle cx="1031.22" cy="455.304" r="8.24984" transform="rotate(-90 1031.22 455.304)" fill="#FBFAFD"/>
<circle cx="206.387" cy="402.969" r="8.24984" transform="rotate(-90 206.387 402.969)" fill="#FBFAFD"/>
<circle cx="564.945" cy="402.969" r="8.24984" transform="rotate(-90 564.945 402.969)" fill="#FBFAFD"/>
<circle cx="1031.22" cy="402.969" r="8.24984" transform="rotate(-90 1031.22 402.969)" fill="#FBFAFD"/>
<circle cx="206.387" cy="350.634" r="8.24984" transform="rotate(-90 206.387 350.634)" fill="#FBFAFD"/>
<circle cx="564.945" cy="350.634" r="8.24984" transform="rotate(-90 564.945 350.634)" fill="#FBFAFD"/>
<circle cx="1031.22" cy="350.634" r="8.24984" transform="rotate(-90 1031.22 350.634)" fill="#FBFAFD"/>
<circle cx="206.387" cy="298.299" r="8.24984" transform="rotate(-90 206.387 298.299)" fill="#FBFAFD"/>
<circle cx="564.945" cy="298.299" r="8.24984" transform="rotate(-90 564.945 298.299)" fill="#FBFAFD"/>
<circle cx="1031.22" cy="298.299" r="8.24984" transform="rotate(-90 1031.22 298.299)" fill="#FBFAFD"/>
<circle cx="242.222" cy="246.264" r="8.24984" transform="rotate(-90 242.222 246.264)" fill="#FBFAFD"/>
<circle cx="600.781" cy="246.264" r="8.24984" transform="rotate(-90 600.781 246.264)" fill="#FBFAFD"/>
<circle cx="1067.05" cy="246.264" r="8.24984" transform="rotate(-90 1067.05 246.264)" fill="#FBFAFD"/>
<circle cx="242.222" cy="193.929" r="8.24984" transform="rotate(-90 242.222 193.929)" fill="#FBFAFD"/>
<circle cx="600.781" cy="193.929" r="8.24984" transform="rotate(-90 600.781 193.929)" fill="#FBFAFD"/>
<circle cx="1067.05" cy="193.929" r="8.24984" transform="rotate(-90 1067.05 193.929)" fill="#FBFAFD"/>
<circle cx="242.222" cy="141.594" r="8.24984" transform="rotate(-90 242.222 141.594)" fill="#FBFAFD"/>
<circle cx="600.781" cy="141.594" r="8.24984" transform="rotate(-90 600.781 141.594)" fill="#FBFAFD"/>
<circle cx="1067.05" cy="141.594" r="8.24984" transform="rotate(-90 1067.05 141.594)" fill="#FBFAFD"/>
<circle cx="242.222" cy="89.2589" r="8.24984" transform="rotate(-90 242.222 89.2589)" fill="#FBFAFD"/>
<circle cx="600.781" cy="89.2589" r="8.24984" transform="rotate(-90 600.781 89.2589)" fill="#FBFAFD"/>
<circle cx="1067.05" cy="89.2589" r="8.24984" transform="rotate(-90 1067.05 89.2589)" fill="#FBFAFD"/>
<circle cx="242.222" cy="507.639" r="8.24984" transform="rotate(-90 242.222 507.639)" fill="#FBFAFD"/>
<circle cx="242.222" cy="36.924" r="8.24984" transform="rotate(-90 242.222 36.924)" fill="#FBFAFD"/>
<circle cx="600.781" cy="507.639" r="8.24984" transform="rotate(-90 600.781 507.639)" fill="#FBFAFD"/>
<circle cx="600.781" cy="36.924" r="8.24984" transform="rotate(-90 600.781 36.924)" fill="#FBFAFD"/>
<circle cx="1067.05" cy="507.639" r="8.24984" transform="rotate(-90 1067.05 507.639)" fill="#FBFAFD"/>
<circle cx="1067.05" cy="36.924" r="8.24984" transform="rotate(-90 1067.05 36.924)" fill="#FBFAFD"/>
<circle cx="242.222" cy="455.305" r="8.24984" transform="rotate(-90 242.222 455.305)" fill="#FBFAFD"/>
<circle cx="600.781" cy="455.304" r="8.24984" transform="rotate(-90 600.781 455.304)" fill="#FBFAFD"/>
<circle cx="1067.05" cy="455.304" r="8.24984" transform="rotate(-90 1067.05 455.304)" fill="#FBFAFD"/>
<circle cx="242.222" cy="402.969" r="8.24984" transform="rotate(-90 242.222 402.969)" fill="#FBFAFD"/>
<circle cx="600.781" cy="402.969" r="8.24984" transform="rotate(-90 600.781 402.969)" fill="#FBFAFD"/>
<circle cx="1067.05" cy="402.969" r="8.24984" transform="rotate(-90 1067.05 402.969)" fill="#FBFAFD"/>
<circle cx="242.222" cy="350.634" r="8.24984" transform="rotate(-90 242.222 350.634)" fill="#FBFAFD"/>
<circle cx="600.781" cy="350.634" r="8.24984" transform="rotate(-90 600.781 350.634)" fill="#FBFAFD"/>
<circle cx="1067.05" cy="350.634" r="8.24984" transform="rotate(-90 1067.05 350.634)" fill="#FBFAFD"/>
<circle cx="242.222" cy="298.299" r="8.24984" transform="rotate(-90 242.222 298.299)" fill="#FBFAFD"/>
<circle cx="600.781" cy="298.299" r="8.24984" transform="rotate(-90 600.781 298.299)" fill="#FBFAFD"/>
<circle cx="1067.05" cy="298.299" r="8.24984" transform="rotate(-90 1067.05 298.299)" fill="#FBFAFD"/>
<circle cx="278.058" cy="246.264" r="8.24984" transform="rotate(-90 278.058 246.264)" fill="#FBFAFD"/>
<circle cx="744.328" cy="246.264" r="8.24984" transform="rotate(-90 744.328 246.264)" fill="#FBFAFD"/>
<circle cx="636.617" cy="246.264" r="8.24984" transform="rotate(-90 636.617 246.264)" fill="#FBFAFD"/>
<circle cx="1102.89" cy="246.264" r="8.24984" transform="rotate(-90 1102.89 246.264)" fill="#FBFAFD"/>
<circle cx="278.058" cy="193.929" r="8.24984" transform="rotate(-90 278.058 193.929)" fill="#FBFAFD"/>
<circle cx="744.328" cy="193.929" r="8.24984" transform="rotate(-90 744.328 193.929)" fill="#FBFAFD"/>
<circle cx="636.617" cy="193.929" r="8.24984" transform="rotate(-90 636.617 193.929)" fill="#FBFAFD"/>
<circle cx="1102.89" cy="193.929" r="8.24984" transform="rotate(-90 1102.89 193.929)" fill="#FBFAFD"/>
<circle cx="278.058" cy="141.594" r="8.24984" transform="rotate(-90 278.058 141.594)" fill="#FBFAFD"/>
<circle cx="744.328" cy="141.594" r="8.24984" transform="rotate(-90 744.328 141.594)" fill="#FBFAFD"/>
<circle cx="636.617" cy="141.594" r="8.24984" transform="rotate(-90 636.617 141.594)" fill="#FBFAFD"/>
<circle cx="1102.89" cy="141.594" r="8.24984" transform="rotate(-90 1102.89 141.594)" fill="#FBFAFD"/>
<circle cx="278.058" cy="89.2589" r="8.24984" transform="rotate(-90 278.058 89.2589)" fill="#FBFAFD"/>
<circle cx="744.328" cy="89.2589" r="8.24984" transform="rotate(-90 744.328 89.2589)" fill="#FBFAFD"/>
<circle cx="636.617" cy="89.2589" r="8.24984" transform="rotate(-90 636.617 89.2589)" fill="#FBFAFD"/>
<circle cx="1102.89" cy="89.2589" r="8.24984" transform="rotate(-90 1102.89 89.2589)" fill="#FBFAFD"/>
<circle cx="278.058" cy="507.639" r="8.24984" transform="rotate(-90 278.058 507.639)" fill="#FBFAFD"/>
<circle cx="278.058" cy="36.924" r="8.24984" transform="rotate(-90 278.058 36.924)" fill="#FBFAFD"/>
<circle cx="744.328" cy="507.639" r="8.24984" transform="rotate(-90 744.328 507.639)" fill="#FBFAFD"/>
<circle cx="744.328" cy="36.924" r="8.24984" transform="rotate(-90 744.328 36.924)" fill="#FBFAFD"/>
<circle cx="636.617" cy="507.639" r="8.24984" transform="rotate(-90 636.617 507.639)" fill="#FBFAFD"/>
<circle cx="636.617" cy="36.924" r="8.24984" transform="rotate(-90 636.617 36.924)" fill="#FBFAFD"/>
<circle cx="1102.89" cy="507.639" r="8.24984" transform="rotate(-90 1102.89 507.639)" fill="#FBFAFD"/>
<circle cx="1102.89" cy="36.924" r="8.24984" transform="rotate(-90 1102.89 36.924)" fill="#FBFAFD"/>
<circle cx="278.058" cy="455.304" r="8.24984" transform="rotate(-90 278.058 455.304)" fill="#FBFAFD"/>
<circle cx="744.328" cy="455.304" r="8.24984" transform="rotate(-90 744.328 455.304)" fill="#FBFAFD"/>
<circle cx="636.617" cy="455.305" r="8.24984" transform="rotate(-90 636.617 455.305)" fill="#FBFAFD"/>
<circle cx="1102.89" cy="455.304" r="8.24984" transform="rotate(-90 1102.89 455.304)" fill="#FBFAFD"/>
<circle cx="278.058" cy="402.969" r="8.24984" transform="rotate(-90 278.058 402.969)" fill="#FBFAFD"/>
<circle cx="744.328" cy="402.969" r="8.24984" transform="rotate(-90 744.328 402.969)" fill="#FBFAFD"/>
<circle cx="636.617" cy="402.969" r="8.24984" transform="rotate(-90 636.617 402.969)" fill="#FBFAFD"/>
<circle cx="1102.89" cy="402.969" r="8.24984" transform="rotate(-90 1102.89 402.969)" fill="#FBFAFD"/>
<circle cx="278.058" cy="350.634" r="8.24984" transform="rotate(-90 278.058 350.634)" fill="#FBFAFD"/>
<circle cx="744.328" cy="350.634" r="8.24984" transform="rotate(-90 744.328 350.634)" fill="#FBFAFD"/>
<circle cx="636.617" cy="350.634" r="8.24984" transform="rotate(-90 636.617 350.634)" fill="#FBFAFD"/>
<circle cx="1102.89" cy="350.634" r="8.24984" transform="rotate(-90 1102.89 350.634)" fill="#FBFAFD"/>
<circle cx="278.058" cy="298.299" r="8.24984" transform="rotate(-90 278.058 298.299)" fill="#FBFAFD"/>
<circle cx="744.328" cy="298.299" r="8.24984" transform="rotate(-90 744.328 298.299)" fill="#FBFAFD"/>
<circle cx="636.617" cy="298.299" r="8.24984" transform="rotate(-90 636.617 298.299)" fill="#FBFAFD"/>
<circle cx="1102.89" cy="298.299" r="8.24984" transform="rotate(-90 1102.89 298.299)" fill="#FBFAFD"/>
<circle cx="313.89" cy="246.264" r="8.24984" transform="rotate(-90 313.89 246.264)" fill="#FBFAFD"/>
<circle cx="780.164" cy="246.264" r="8.24984" transform="rotate(-90 780.164 246.264)" fill="#FBFAFD"/>
<circle cx="672.453" cy="246.264" r="8.24984" transform="rotate(-90 672.453 246.264)" fill="#FBFAFD"/>
<circle cx="1138.72" cy="246.264" r="8.24984" transform="rotate(-90 1138.72 246.264)" fill="#FBFAFD"/>
<circle cx="313.89" cy="193.929" r="8.24984" transform="rotate(-90 313.89 193.929)" fill="#FBFAFD"/>
<circle cx="780.164" cy="193.929" r="8.24984" transform="rotate(-90 780.164 193.929)" fill="#FBFAFD"/>
<circle cx="672.453" cy="193.929" r="8.24984" transform="rotate(-90 672.453 193.929)" fill="#FBFAFD"/>
<circle cx="1138.72" cy="193.929" r="8.24984" transform="rotate(-90 1138.72 193.929)" fill="#FBFAFD"/>
<circle cx="313.89" cy="141.594" r="8.24984" transform="rotate(-90 313.89 141.594)" fill="#FBFAFD"/>
<circle cx="780.164" cy="141.594" r="8.24984" transform="rotate(-90 780.164 141.594)" fill="#FBFAFD"/>
<circle cx="672.453" cy="141.594" r="8.24984" transform="rotate(-90 672.453 141.594)" fill="#FBFAFD"/>
<circle cx="1138.72" cy="141.594" r="8.24984" transform="rotate(-90 1138.72 141.594)" fill="#FBFAFD"/>
<circle cx="313.89" cy="89.2589" r="8.24984" transform="rotate(-90 313.89 89.2589)" fill="#FBFAFD"/>
<circle cx="780.164" cy="89.2589" r="8.24984" transform="rotate(-90 780.164 89.2589)" fill="#FBFAFD"/>
<circle cx="672.453" cy="89.2589" r="8.24984" transform="rotate(-90 672.453 89.2589)" fill="#FBFAFD"/>
<circle cx="1138.72" cy="89.2589" r="8.24984" transform="rotate(-90 1138.72 89.2589)" fill="#FBFAFD"/>
<circle cx="313.89" cy="507.639" r="8.24984" transform="rotate(-90 313.89 507.639)" fill="#FBFAFD"/>
<circle cx="313.89" cy="36.924" r="8.24984" transform="rotate(-90 313.89 36.924)" fill="#FBFAFD"/>
<circle cx="780.164" cy="507.639" r="8.24984" transform="rotate(-90 780.164 507.639)" fill="#FBFAFD"/>
<circle cx="780.164" cy="36.924" r="8.24984" transform="rotate(-90 780.164 36.924)" fill="#FBFAFD"/>
<circle cx="672.453" cy="507.639" r="8.24984" transform="rotate(-90 672.453 507.639)" fill="#FBFAFD"/>
<circle cx="672.453" cy="36.924" r="8.24984" transform="rotate(-90 672.453 36.924)" fill="#FBFAFD"/>
<circle cx="1138.72" cy="507.639" r="8.24984" transform="rotate(-90 1138.72 507.639)" fill="#FBFAFD"/>
<circle cx="1138.72" cy="36.924" r="8.24984" transform="rotate(-90 1138.72 36.924)" fill="#FBFAFD"/>
<circle cx="313.89" cy="455.305" r="8.24984" transform="rotate(-90 313.89 455.305)" fill="#FBFAFD"/>
<circle cx="780.164" cy="455.305" r="8.24984" transform="rotate(-90 780.164 455.305)" fill="#FBFAFD"/>
<circle cx="672.453" cy="455.305" r="8.24984" transform="rotate(-90 672.453 455.305)" fill="#FBFAFD"/>
<circle cx="1138.72" cy="455.304" r="8.24984" transform="rotate(-90 1138.72 455.304)" fill="#FBFAFD"/>
<circle cx="313.89" cy="402.969" r="8.24984" transform="rotate(-90 313.89 402.969)" fill="#FBFAFD"/>
<circle cx="780.164" cy="402.969" r="8.24984" transform="rotate(-90 780.164 402.969)" fill="#FBFAFD"/>
<circle cx="672.453" cy="402.969" r="8.24984" transform="rotate(-90 672.453 402.969)" fill="#FBFAFD"/>
<circle cx="1138.72" cy="402.969" r="8.24984" transform="rotate(-90 1138.72 402.969)" fill="#FBFAFD"/>
<circle cx="313.89" cy="350.634" r="8.24984" transform="rotate(-90 313.89 350.634)" fill="#FBFAFD"/>
<circle cx="780.164" cy="350.634" r="8.24984" transform="rotate(-90 780.164 350.634)" fill="#FBFAFD"/>
<circle cx="672.453" cy="350.634" r="8.24984" transform="rotate(-90 672.453 350.634)" fill="#FBFAFD"/>
<circle cx="1138.72" cy="350.634" r="8.24984" transform="rotate(-90 1138.72 350.634)" fill="#FBFAFD"/>
<circle cx="313.89" cy="298.299" r="8.24984" transform="rotate(-90 313.89 298.299)" fill="#FBFAFD"/>
<circle cx="780.164" cy="298.299" r="8.24984" transform="rotate(-90 780.164 298.299)" fill="#FBFAFD"/>
<circle cx="672.453" cy="298.299" r="8.24984" transform="rotate(-90 672.453 298.299)" fill="#FBFAFD"/>
<circle cx="1138.72" cy="298.299" r="8.24984" transform="rotate(-90 1138.72 298.299)" fill="#FBFAFD"/>
<circle cx="349.726" cy="246.264" r="8.24984" transform="rotate(-90 349.726 246.264)" fill="#FBFAFD"/>
<circle cx="816" cy="246.264" r="8.24984" transform="rotate(-90 816 246.264)" fill="#FBFAFD"/>
<circle cx="708.289" cy="246.264" r="8.24984" transform="rotate(-90 708.289 246.264)" fill="#FBFAFD"/>
<circle cx="1174.56" cy="246.264" r="8.24984" transform="rotate(-90 1174.56 246.264)" fill="#FBFAFD"/>
<circle cx="349.726" cy="193.929" r="8.24984" transform="rotate(-90 349.726 193.929)" fill="#FBFAFD"/>
<circle cx="816" cy="193.929" r="8.24984" transform="rotate(-90 816 193.929)" fill="#FBFAFD"/>
<circle cx="708.289" cy="193.929" r="8.24984" transform="rotate(-90 708.289 193.929)" fill="#FBFAFD"/>
<circle cx="1174.56" cy="193.929" r="8.24984" transform="rotate(-90 1174.56 193.929)" fill="#FBFAFD"/>
<circle cx="349.726" cy="141.594" r="8.24984" transform="rotate(-90 349.726 141.594)" fill="#FBFAFD"/>
<circle cx="816" cy="141.594" r="8.24984" transform="rotate(-90 816 141.594)" fill="#FBFAFD"/>
<circle cx="708.289" cy="141.594" r="8.24984" transform="rotate(-90 708.289 141.594)" fill="#FBFAFD"/>
<circle cx="1174.56" cy="141.594" r="8.24984" transform="rotate(-90 1174.56 141.594)" fill="#FBFAFD"/>
<circle cx="349.726" cy="89.2589" r="8.24984" transform="rotate(-90 349.726 89.2589)" fill="#FBFAFD"/>
<circle cx="816" cy="89.2589" r="8.24984" transform="rotate(-90 816 89.2589)" fill="#FBFAFD"/>
<circle cx="708.289" cy="89.2589" r="8.24984" transform="rotate(-90 708.289 89.2589)" fill="#FBFAFD"/>
<circle cx="1174.56" cy="89.2589" r="8.24984" transform="rotate(-90 1174.56 89.2589)" fill="#FBFAFD"/>
<circle cx="349.726" cy="507.639" r="8.24984" transform="rotate(-90 349.726 507.639)" fill="#FBFAFD"/>
<circle cx="349.726" cy="36.924" r="8.24984" transform="rotate(-90 349.726 36.924)" fill="#FBFAFD"/>
<circle cx="816" cy="507.639" r="8.24984" transform="rotate(-90 816 507.639)" fill="#FBFAFD"/>
<circle cx="816" cy="36.924" r="8.24984" transform="rotate(-90 816 36.924)" fill="#FBFAFD"/>
<circle cx="708.289" cy="507.639" r="8.24984" transform="rotate(-90 708.289 507.639)" fill="#FBFAFD"/>
<circle cx="708.289" cy="36.924" r="8.24984" transform="rotate(-90 708.289 36.924)" fill="#FBFAFD"/>
<circle cx="1174.56" cy="507.639" r="8.24984" transform="rotate(-90 1174.56 507.639)" fill="#FBFAFD"/>
<circle cx="1174.56" cy="36.924" r="8.24984" transform="rotate(-90 1174.56 36.924)" fill="#FBFAFD"/>
<circle cx="349.726" cy="455.305" r="8.24984" transform="rotate(-90 349.726 455.305)" fill="#FBFAFD"/>
<circle cx="816" cy="455.304" r="8.24984" transform="rotate(-90 816 455.304)" fill="#FBFAFD"/>
<circle cx="708.289" cy="455.304" r="8.24984" transform="rotate(-90 708.289 455.304)" fill="#FBFAFD"/>
<circle cx="1174.56" cy="455.304" r="8.24984" transform="rotate(-90 1174.56 455.304)" fill="#FBFAFD"/>
<circle cx="349.726" cy="402.969" r="8.24984" transform="rotate(-90 349.726 402.969)" fill="#FBFAFD"/>
<circle cx="816" cy="402.969" r="8.24984" transform="rotate(-90 816 402.969)" fill="#FBFAFD"/>
<circle cx="708.289" cy="402.969" r="8.24984" transform="rotate(-90 708.289 402.969)" fill="#FBFAFD"/>
<circle cx="1174.56" cy="402.969" r="8.24984" transform="rotate(-90 1174.56 402.969)" fill="#FBFAFD"/>
<circle cx="349.726" cy="350.634" r="8.24984" transform="rotate(-90 349.726 350.634)" fill="#FBFAFD"/>
<circle cx="816" cy="350.634" r="8.24984" transform="rotate(-90 816 350.634)" fill="#FBFAFD"/>
<circle cx="708.289" cy="350.634" r="8.24984" transform="rotate(-90 708.289 350.634)" fill="#FBFAFD"/>
<circle cx="1174.56" cy="350.634" r="8.24984" transform="rotate(-90 1174.56 350.634)" fill="#FBFAFD"/>
<circle cx="349.726" cy="298.299" r="8.24984" transform="rotate(-90 349.726 298.299)" fill="#FBFAFD"/>
<circle cx="816" cy="298.299" r="8.24984" transform="rotate(-90 816 298.299)" fill="#FBFAFD"/>
<circle cx="708.289" cy="298.299" r="8.24984" transform="rotate(-90 708.289 298.299)" fill="#FBFAFD"/>
<circle cx="1174.56" cy="298.299" r="8.24984" transform="rotate(-90 1174.56 298.299)" fill="#FBFAFD"/>
<ellipse cx="600" cy="261" rx="646" ry="268" fill="url(#paint0_radial_2001_3422)"/>
<defs>
<radialGradient id="paint0_radial_2001_3422" cx="0" cy="0" r="1" gradientUnits="userSpaceOnUse" gradientTransform="translate(600 261) rotate(90) scale(420.4 1013.35)">
<stop stop-color="white"/>
<stop offset="1" stop-color="white" stop-opacity="0"/>
</radialGradient>
</defs>
</svg>
