<svg width="1200" height="743" viewBox="0 0 1200 743" fill="none" xmlns="http://www.w3.org/2000/svg">
<path fill-rule="evenodd" clip-rule="evenodd" d="M23 -31.8587L23 -42L25 -42L25 -31.8587L23 -31.8587ZM23 8.70652L23 -11.5761L25 -11.5761L25 8.70652L23 8.70652ZM23 49.2717L23 28.9891L25 28.9891L25 49.2717L23 49.2717ZM23 89.8369L23 69.5543L25 69.5543L25 89.8369L23 89.8369ZM23 130.402L23 110.12L25 110.12L25 130.402L23 130.402ZM23 170.967L23 150.685L25 150.685L25 170.967L23 170.967ZM23 211.533L23 191.25L25 191.25L25 211.533L23 211.533ZM23 252.098L23 231.815L25 231.815L25 252.098L23 252.098ZM23 292.663L23 272.38L25 272.38L25 292.663L23 292.663ZM23 333.228L23 312.946L25 312.946L25 333.228L23 333.228ZM23 373.793L23 353.511L25 353.511L25 373.793L23 373.793ZM23 414.359L23 394.076L25 394.076L25 414.359L23 414.359ZM23 454.924L23 434.641L25 434.641L25 454.924L23 454.924ZM23 495.489L23 475.206L25 475.206L25 495.489L23 495.489ZM23 536.054L23 515.771L25 515.771L25 536.054L23 536.054ZM23 576.619L23 556.337L25 556.337L25 576.619L23 576.619ZM23 617.184L23 596.902L25 596.902L25 617.184L23 617.184ZM23 657.75L23 637.467L25 637.467L25 657.75L23 657.75ZM23 698.315L23 678.032L25 678.032L25 698.315L23 698.315ZM23 738.88L23 718.597L25 718.597L25 738.88L23 738.88ZM23 779.445L23 759.163L25 759.163L25 779.445L23 779.445ZM23 820.01L23 799.728L25 799.728L25 820.01L23 820.01ZM23 860.576L23 840.293L25 840.293L25 860.576L23 860.576ZM23 891L23 880.858L25 880.858L25 891L23 891Z" fill="#EAE7EF"/>
<path fill-rule="evenodd" clip-rule="evenodd" d="M119 -31.8587L119 -42L121 -42L121 -31.8587L119 -31.8587ZM119 8.70652L119 -11.5761L121 -11.5761L121 8.70652L119 8.70652ZM119 49.2717L119 28.9891L121 28.9891L121 49.2717L119 49.2717ZM119 89.8369L119 69.5543L121 69.5543L121 89.8369L119 89.8369ZM119 130.402L119 110.12L121 110.12L121 130.402L119 130.402ZM119 170.967L119 150.685L121 150.685L121 170.967L119 170.967ZM119 211.533L119 191.25L121 191.25L121 211.533L119 211.533ZM119 252.098L119 231.815L121 231.815L121 252.098L119 252.098ZM119 292.663L119 272.38L121 272.38L121 292.663L119 292.663ZM119 333.228L119 312.946L121 312.946L121 333.228L119 333.228ZM119 373.793L119 353.511L121 353.511L121 373.793L119 373.793ZM119 414.359L119 394.076L121 394.076L121 414.359L119 414.359ZM119 454.924L119 434.641L121 434.641L121 454.924L119 454.924ZM119 495.489L119 475.206L121 475.206L121 495.489L119 495.489ZM119 536.054L119 515.771L121 515.771L121 536.054L119 536.054ZM119 576.619L119 556.337L121 556.337L121 576.619L119 576.619ZM119 617.184L119 596.902L121 596.902L121 617.184L119 617.184ZM119 657.75L119 637.467L121 637.467L121 657.75L119 657.75ZM119 698.315L119 678.032L121 678.032L121 698.315L119 698.315ZM119 738.88L119 718.597L121 718.597L121 738.88L119 738.88ZM119 779.445L119 759.163L121 759.163L121 779.445L119 779.445ZM119 820.01L119 799.728L121 799.728L121 820.01L119 820.01ZM119 860.576L119 840.293L121 840.293L121 860.576L119 860.576ZM119 891L119 880.858L121 880.858L121 891L119 891Z" fill="#EAE7EF"/>
<path fill-rule="evenodd" clip-rule="evenodd" d="M215 -31.8587L215 -42L217 -42L217 -31.8587L215 -31.8587ZM215 8.70652L215 -11.5761L217 -11.5761L217 8.70652L215 8.70652ZM215 49.2717L215 28.9891L217 28.9891L217 49.2717L215 49.2717ZM215 89.8369L215 69.5543L217 69.5543L217 89.8369L215 89.8369ZM215 130.402L215 110.12L217 110.12L217 130.402L215 130.402ZM215 170.967L215 150.685L217 150.685L217 170.967L215 170.967ZM215 211.533L215 191.25L217 191.25L217 211.533L215 211.533ZM215 252.098L215 231.815L217 231.815L217 252.098L215 252.098ZM215 292.663L215 272.38L217 272.38L217 292.663L215 292.663ZM215 333.228L215 312.946L217 312.946L217 333.228L215 333.228ZM215 373.793L215 353.511L217 353.511L217 373.793L215 373.793ZM215 414.359L215 394.076L217 394.076L217 414.359L215 414.359ZM215 454.924L215 434.641L217 434.641L217 454.924L215 454.924ZM215 495.489L215 475.206L217 475.206L217 495.489L215 495.489ZM215 536.054L215 515.771L217 515.771L217 536.054L215 536.054ZM215 576.619L215 556.337L217 556.337L217 576.619L215 576.619ZM215 617.184L215 596.902L217 596.902L217 617.184L215 617.184ZM215 657.75L215 637.467L217 637.467L217 657.75L215 657.75ZM215 698.315L215 678.032L217 678.032L217 698.315L215 698.315ZM215 738.88L215 718.597L217 718.597L217 738.88L215 738.88ZM215 779.445L215 759.163L217 759.163L217 779.445L215 779.445ZM215 820.01L215 799.728L217 799.728L217 820.01L215 820.01ZM215 860.576L215 840.293L217 840.293L217 860.576L215 860.576ZM215 891L215 880.858L217 880.858L217 891L215 891Z" fill="#EAE7EF"/>
<path fill-rule="evenodd" clip-rule="evenodd" d="M311 -31.8587L311 -42L313 -42L313 -31.8587L311 -31.8587ZM311 8.70652L311 -11.5761L313 -11.5761L313 8.70652L311 8.70652ZM311 49.2717L311 28.9891L313 28.9891L313 49.2717L311 49.2717ZM311 89.8369L311 69.5543L313 69.5543L313 89.8369L311 89.8369ZM311 130.402L311 110.12L313 110.12L313 130.402L311 130.402ZM311 170.967L311 150.685L313 150.685L313 170.967L311 170.967ZM311 211.533L311 191.25L313 191.25L313 211.533L311 211.533ZM311 252.098L311 231.815L313 231.815L313 252.098L311 252.098ZM311 292.663L311 272.38L313 272.38L313 292.663L311 292.663ZM311 333.228L311 312.946L313 312.946L313 333.228L311 333.228ZM311 373.793L311 353.511L313 353.511L313 373.793L311 373.793ZM311 414.359L311 394.076L313 394.076L313 414.359L311 414.359ZM311 454.924L311 434.641L313 434.641L313 454.924L311 454.924ZM311 495.489L311 475.206L313 475.206L313 495.489L311 495.489ZM311 536.054L311 515.771L313 515.771L313 536.054L311 536.054ZM311 576.619L311 556.337L313 556.337L313 576.619L311 576.619ZM311 617.184L311 596.902L313 596.902L313 617.184L311 617.184ZM311 657.75L311 637.467L313 637.467L313 657.75L311 657.75ZM311 698.315L311 678.032L313 678.032L313 698.315L311 698.315ZM311 738.88L311 718.597L313 718.597L313 738.88L311 738.88ZM311 779.445L311 759.163L313 759.163L313 779.445L311 779.445ZM311 820.01L311 799.728L313 799.728L313 820.01L311 820.01ZM311 860.576L311 840.293L313 840.293L313 860.576L311 860.576ZM311 891L311 880.858L313 880.858L313 891L311 891Z" fill="#EAE7EF"/>
<path fill-rule="evenodd" clip-rule="evenodd" d="M407 -31.8587L407 -42L409 -42L409 -31.8587L407 -31.8587ZM407 8.70652L407 -11.5761L409 -11.5761L409 8.70652L407 8.70652ZM407 49.2717L407 28.9891L409 28.9891L409 49.2717L407 49.2717ZM407 89.8369L407 69.5543L409 69.5543L409 89.8369L407 89.8369ZM407 130.402L407 110.12L409 110.12L409 130.402L407 130.402ZM407 170.967L407 150.685L409 150.685L409 170.967L407 170.967ZM407 211.533L407 191.25L409 191.25L409 211.533L407 211.533ZM407 252.098L407 231.815L409 231.815L409 252.098L407 252.098ZM407 292.663L407 272.38L409 272.38L409 292.663L407 292.663ZM407 333.228L407 312.946L409 312.946L409 333.228L407 333.228ZM407 373.793L407 353.511L409 353.511L409 373.793L407 373.793ZM407 414.359L407 394.076L409 394.076L409 414.359L407 414.359ZM407 454.924L407 434.641L409 434.641L409 454.924L407 454.924ZM407 495.489L407 475.206L409 475.206L409 495.489L407 495.489ZM407 536.054L407 515.771L409 515.771L409 536.054L407 536.054ZM407 576.619L407 556.337L409 556.337L409 576.619L407 576.619ZM407 617.184L407 596.902L409 596.902L409 617.184L407 617.184ZM407 657.75L407 637.467L409 637.467L409 657.75L407 657.75ZM407 698.315L407 678.032L409 678.032L409 698.315L407 698.315ZM407 738.88L407 718.597L409 718.597L409 738.88L407 738.88ZM407 779.445L407 759.163L409 759.163L409 779.445L407 779.445ZM407 820.01L407 799.728L409 799.728L409 820.01L407 820.01ZM407 860.576L407 840.293L409 840.293L409 860.576L407 860.576ZM407 891L407 880.858L409 880.858L409 891L407 891Z" fill="#EAE7EF"/>
<path fill-rule="evenodd" clip-rule="evenodd" d="M503 -31.8587L503 -42L505 -42L505 -31.8587L503 -31.8587ZM503 8.70652L503 -11.5761L505 -11.5761L505 8.70652L503 8.70652ZM503 49.2717L503 28.9891L505 28.9891L505 49.2717L503 49.2717ZM503 89.8369L503 69.5543L505 69.5543L505 89.8369L503 89.8369ZM503 130.402L503 110.12L505 110.12L505 130.402L503 130.402ZM503 170.967L503 150.685L505 150.685L505 170.967L503 170.967ZM503 211.533L503 191.25L505 191.25L505 211.533L503 211.533ZM503 252.098L503 231.815L505 231.815L505 252.098L503 252.098ZM503 292.663L503 272.38L505 272.38L505 292.663L503 292.663ZM503 333.228L503 312.946L505 312.946L505 333.228L503 333.228ZM503 373.793L503 353.511L505 353.511L505 373.793L503 373.793ZM503 414.359L503 394.076L505 394.076L505 414.359L503 414.359ZM503 454.924L503 434.641L505 434.641L505 454.924L503 454.924ZM503 495.489L503 475.206L505 475.206L505 495.489L503 495.489ZM503 536.054L503 515.771L505 515.771L505 536.054L503 536.054ZM503 576.619L503 556.337L505 556.337L505 576.619L503 576.619ZM503 617.184L503 596.902L505 596.902L505 617.184L503 617.184ZM503 657.75L503 637.467L505 637.467L505 657.75L503 657.75ZM503 698.315L503 678.032L505 678.032L505 698.315L503 698.315ZM503 738.88L503 718.597L505 718.597L505 738.88L503 738.88ZM503 779.445L503 759.163L505 759.163L505 779.445L503 779.445ZM503 820.01L503 799.728L505 799.728L505 820.01L503 820.01ZM503 860.576L503 840.293L505 840.293L505 860.576L503 860.576ZM503 891L503 880.858L505 880.858L505 891L503 891Z" fill="#EAE7EF"/>
<path fill-rule="evenodd" clip-rule="evenodd" d="M599 -31.8587L599 -42L601 -42L601 -31.8587L599 -31.8587ZM599 8.70652L599 -11.5761L601 -11.5761L601 8.70652L599 8.70652ZM599 49.2717L599 28.9891L601 28.9891L601 49.2717L599 49.2717ZM599 89.8369L599 69.5543L601 69.5543L601 89.8369L599 89.8369ZM599 130.402L599 110.12L601 110.12L601 130.402L599 130.402ZM599 170.967L599 150.685L601 150.685L601 170.967L599 170.967ZM599 211.533L599 191.25L601 191.25L601 211.533L599 211.533ZM599 252.098L599 231.815L601 231.815L601 252.098L599 252.098ZM599 292.663L599 272.38L601 272.38L601 292.663L599 292.663ZM599 333.228L599 312.946L601 312.946L601 333.228L599 333.228ZM599 373.793L599 353.511L601 353.511L601 373.793L599 373.793ZM599 414.359L599 394.076L601 394.076L601 414.359L599 414.359ZM599 454.924L599 434.641L601 434.641L601 454.924L599 454.924ZM599 495.489L599 475.206L601 475.206L601 495.489L599 495.489ZM599 536.054L599 515.771L601 515.771L601 536.054L599 536.054ZM599 576.619L599 556.337L601 556.337L601 576.619L599 576.619ZM599 617.184L599 596.902L601 596.902L601 617.184L599 617.184ZM599 657.75L599 637.467L601 637.467L601 657.75L599 657.75ZM599 698.315L599 678.032L601 678.032L601 698.315L599 698.315ZM599 738.88L599 718.597L601 718.597L601 738.88L599 738.88ZM599 779.445L599 759.163L601 759.163L601 779.445L599 779.445ZM599 820.01L599 799.728L601 799.728L601 820.01L599 820.01ZM599 860.576L599 840.293L601 840.293L601 860.576L599 860.576ZM599 891L599 880.858L601 880.858L601 891L599 891Z" fill="#EAE7EF"/>
<path fill-rule="evenodd" clip-rule="evenodd" d="M695 -31.8587L695 -42L697 -42L697 -31.8587L695 -31.8587ZM695 8.70652L695 -11.5761L697 -11.5761L697 8.70652L695 8.70652ZM695 49.2717L695 28.9891L697 28.9891L697 49.2717L695 49.2717ZM695 89.8369L695 69.5543L697 69.5543L697 89.8369L695 89.8369ZM695 130.402L695 110.12L697 110.12L697 130.402L695 130.402ZM695 170.967L695 150.685L697 150.685L697 170.967L695 170.967ZM695 211.533L695 191.25L697 191.25L697 211.533L695 211.533ZM695 252.098L695 231.815L697 231.815L697 252.098L695 252.098ZM695 292.663L695 272.38L697 272.38L697 292.663L695 292.663ZM695 333.228L695 312.946L697 312.946L697 333.228L695 333.228ZM695 373.793L695 353.511L697 353.511L697 373.793L695 373.793ZM695 414.359L695 394.076L697 394.076L697 414.359L695 414.359ZM695 454.924L695 434.641L697 434.641L697 454.924L695 454.924ZM695 495.489L695 475.206L697 475.206L697 495.489L695 495.489ZM695 536.054L695 515.771L697 515.771L697 536.054L695 536.054ZM695 576.619L695 556.337L697 556.337L697 576.619L695 576.619ZM695 617.184L695 596.902L697 596.902L697 617.184L695 617.184ZM695 657.75L695 637.467L697 637.467L697 657.75L695 657.75ZM695 698.315L695 678.032L697 678.032L697 698.315L695 698.315ZM695 738.88L695 718.597L697 718.597L697 738.88L695 738.88ZM695 779.445L695 759.163L697 759.163L697 779.445L695 779.445ZM695 820.01L695 799.728L697 799.728L697 820.01L695 820.01ZM695 860.576L695 840.293L697 840.293L697 860.576L695 860.576ZM695 891L695 880.858L697 880.858L697 891L695 891Z" fill="#EAE7EF"/>
<path fill-rule="evenodd" clip-rule="evenodd" d="M791 -31.8587L791 -42L793 -42L793 -31.8587L791 -31.8587ZM791 8.70652L791 -11.5761L793 -11.5761L793 8.70652L791 8.70652ZM791 49.2717L791 28.9891L793 28.9891L793 49.2717L791 49.2717ZM791 89.8369L791 69.5543L793 69.5543L793 89.8369L791 89.8369ZM791 130.402L791 110.12L793 110.12L793 130.402L791 130.402ZM791 170.967L791 150.685L793 150.685L793 170.967L791 170.967ZM791 211.533L791 191.25L793 191.25L793 211.533L791 211.533ZM791 252.098L791 231.815L793 231.815L793 252.098L791 252.098ZM791 292.663L791 272.38L793 272.38L793 292.663L791 292.663ZM791 333.228L791 312.946L793 312.946L793 333.228L791 333.228ZM791 373.793L791 353.511L793 353.511L793 373.793L791 373.793ZM791 414.359L791 394.076L793 394.076L793 414.359L791 414.359ZM791 454.924L791 434.641L793 434.641L793 454.924L791 454.924ZM791 495.489L791 475.206L793 475.206L793 495.489L791 495.489ZM791 536.054L791 515.771L793 515.771L793 536.054L791 536.054ZM791 576.619L791 556.337L793 556.337L793 576.619L791 576.619ZM791 617.184L791 596.902L793 596.902L793 617.184L791 617.184ZM791 657.75L791 637.467L793 637.467L793 657.75L791 657.75ZM791 698.315L791 678.032L793 678.032L793 698.315L791 698.315ZM791 738.88L791 718.597L793 718.597L793 738.88L791 738.88ZM791 779.445L791 759.163L793 759.163L793 779.445L791 779.445ZM791 820.01L791 799.728L793 799.728L793 820.01L791 820.01ZM791 860.576L791 840.293L793 840.293L793 860.576L791 860.576ZM791 891L791 880.858L793 880.858L793 891L791 891Z" fill="#EAE7EF"/>
<path fill-rule="evenodd" clip-rule="evenodd" d="M887 -31.8587L887 -42L889 -42L889 -31.8587L887 -31.8587ZM887 8.70652L887 -11.5761L889 -11.5761L889 8.70652L887 8.70652ZM887 49.2717L887 28.9891L889 28.9891L889 49.2717L887 49.2717ZM887 89.8369L887 69.5543L889 69.5543L889 89.8369L887 89.8369ZM887 130.402L887 110.12L889 110.12L889 130.402L887 130.402ZM887 170.967L887 150.685L889 150.685L889 170.967L887 170.967ZM887 211.533L887 191.25L889 191.25L889 211.533L887 211.533ZM887 252.098L887 231.815L889 231.815L889 252.098L887 252.098ZM887 292.663L887 272.38L889 272.38L889 292.663L887 292.663ZM887 333.228L887 312.946L889 312.946L889 333.228L887 333.228ZM887 373.793L887 353.511L889 353.511L889 373.793L887 373.793ZM887 414.359L887 394.076L889 394.076L889 414.359L887 414.359ZM887 454.924L887 434.641L889 434.641L889 454.924L887 454.924ZM887 495.489L887 475.206L889 475.206L889 495.489L887 495.489ZM887 536.054L887 515.771L889 515.771L889 536.054L887 536.054ZM887 576.619L887 556.337L889 556.337L889 576.619L887 576.619ZM887 617.184L887 596.902L889 596.902L889 617.184L887 617.184ZM887 657.75L887 637.467L889 637.467L889 657.75L887 657.75ZM887 698.315L887 678.032L889 678.032L889 698.315L887 698.315ZM887 738.88L887 718.597L889 718.597L889 738.88L887 738.88ZM887 779.445L887 759.163L889 759.163L889 779.445L887 779.445ZM887 820.01L887 799.728L889 799.728L889 820.01L887 820.01ZM887 860.576L887 840.293L889 840.293L889 860.576L887 860.576ZM887 891L887 880.858L889 880.858L889 891L887 891Z" fill="#EAE7EF"/>
<path fill-rule="evenodd" clip-rule="evenodd" d="M983 -31.8587L983 -42L985 -42L985 -31.8587L983 -31.8587ZM983 8.70652L983 -11.5761L985 -11.5761L985 8.70652L983 8.70652ZM983 49.2717L983 28.9891L985 28.9891L985 49.2717L983 49.2717ZM983 89.8369L983 69.5543L985 69.5543L985 89.8369L983 89.8369ZM983 130.402L983 110.12L985 110.12L985 130.402L983 130.402ZM983 170.967L983 150.685L985 150.685L985 170.967L983 170.967ZM983 211.533L983 191.25L985 191.25L985 211.533L983 211.533ZM983 252.098L983 231.815L985 231.815L985 252.098L983 252.098ZM983 292.663L983 272.38L985 272.38L985 292.663L983 292.663ZM983 333.228L983 312.946L985 312.946L985 333.228L983 333.228ZM983 373.793L983 353.511L985 353.511L985 373.793L983 373.793ZM983 414.359L983 394.076L985 394.076L985 414.359L983 414.359ZM983 454.924L983 434.641L985 434.641L985 454.924L983 454.924ZM983 495.489L983 475.206L985 475.206L985 495.489L983 495.489ZM983 536.054L983 515.771L985 515.771L985 536.054L983 536.054ZM983 576.619L983 556.337L985 556.337L985 576.619L983 576.619ZM983 617.184L983 596.902L985 596.902L985 617.184L983 617.184ZM983 657.75L983 637.467L985 637.467L985 657.75L983 657.75ZM983 698.315L983 678.032L985 678.032L985 698.315L983 698.315ZM983 738.88L983 718.597L985 718.597L985 738.88L983 738.88ZM983 779.445L983 759.163L985 759.163L985 779.445L983 779.445ZM983 820.01L983 799.728L985 799.728L985 820.01L983 820.01ZM983 860.576L983 840.293L985 840.293L985 860.576L983 860.576ZM983 891L983 880.858L985 880.858L985 891L983 891Z" fill="#EAE7EF"/>
<path fill-rule="evenodd" clip-rule="evenodd" d="M1079 -31.8587L1079 -42L1081 -42L1081 -31.8587L1079 -31.8587ZM1079 8.70652L1079 -11.5761L1081 -11.5761L1081 8.70652L1079 8.70652ZM1079 49.2717L1079 28.9891L1081 28.9891L1081 49.2717L1079 49.2717ZM1079 89.8369L1079 69.5543L1081 69.5543L1081 89.8369L1079 89.8369ZM1079 130.402L1079 110.12L1081 110.12L1081 130.402L1079 130.402ZM1079 170.967L1079 150.685L1081 150.685L1081 170.967L1079 170.967ZM1079 211.533L1079 191.25L1081 191.25L1081 211.533L1079 211.533ZM1079 252.098L1079 231.815L1081 231.815L1081 252.098L1079 252.098ZM1079 292.663L1079 272.38L1081 272.38L1081 292.663L1079 292.663ZM1079 333.228L1079 312.946L1081 312.946L1081 333.228L1079 333.228ZM1079 373.793L1079 353.511L1081 353.511L1081 373.793L1079 373.793ZM1079 414.359L1079 394.076L1081 394.076L1081 414.359L1079 414.359ZM1079 454.924L1079 434.641L1081 434.641L1081 454.924L1079 454.924ZM1079 495.489L1079 475.206L1081 475.206L1081 495.489L1079 495.489ZM1079 536.054L1079 515.771L1081 515.771L1081 536.054L1079 536.054ZM1079 576.619L1079 556.337L1081 556.337L1081 576.619L1079 576.619ZM1079 617.184L1079 596.902L1081 596.902L1081 617.184L1079 617.184ZM1079 657.75L1079 637.467L1081 637.467L1081 657.75L1079 657.75ZM1079 698.315L1079 678.032L1081 678.032L1081 698.315L1079 698.315ZM1079 738.88L1079 718.597L1081 718.597L1081 738.88L1079 738.88ZM1079 779.445L1079 759.163L1081 759.163L1081 779.445L1079 779.445ZM1079 820.01L1079 799.728L1081 799.728L1081 820.01L1079 820.01ZM1079 860.576L1079 840.293L1081 840.293L1081 860.576L1079 860.576ZM1079 891L1079 880.858L1081 880.858L1081 891L1079 891Z" fill="#EAE7EF"/>
<path fill-rule="evenodd" clip-rule="evenodd" d="M1175 -31.8587L1175 -42L1177 -42L1177 -31.8587L1175 -31.8587ZM1175 8.70652L1175 -11.5761L1177 -11.5761L1177 8.70652L1175 8.70652ZM1175 49.2717L1175 28.9891L1177 28.9891L1177 49.2717L1175 49.2717ZM1175 89.8369L1175 69.5543L1177 69.5543L1177 89.8369L1175 89.8369ZM1175 130.402L1175 110.12L1177 110.12L1177 130.402L1175 130.402ZM1175 170.967L1175 150.685L1177 150.685L1177 170.967L1175 170.967ZM1175 211.533L1175 191.25L1177 191.25L1177 211.533L1175 211.533ZM1175 252.098L1175 231.815L1177 231.815L1177 252.098L1175 252.098ZM1175 292.663L1175 272.38L1177 272.38L1177 292.663L1175 292.663ZM1175 333.228L1175 312.946L1177 312.946L1177 333.228L1175 333.228ZM1175 373.793L1175 353.511L1177 353.511L1177 373.793L1175 373.793ZM1175 414.359L1175 394.076L1177 394.076L1177 414.359L1175 414.359ZM1175 454.924L1175 434.641L1177 434.641L1177 454.924L1175 454.924ZM1175 495.489L1175 475.206L1177 475.206L1177 495.489L1175 495.489ZM1175 536.054L1175 515.771L1177 515.771L1177 536.054L1175 536.054ZM1175 576.619L1175 556.337L1177 556.337L1177 576.619L1175 576.619ZM1175 617.184L1175 596.902L1177 596.902L1177 617.184L1175 617.184ZM1175 657.75L1175 637.467L1177 637.467L1177 657.75L1175 657.75ZM1175 698.315L1175 678.032L1177 678.032L1177 698.315L1175 698.315ZM1175 738.88L1175 718.597L1177 718.597L1177 738.88L1175 738.88ZM1175 779.445L1175 759.163L1177 759.163L1177 779.445L1175 779.445ZM1175 820.01L1175 799.728L1177 799.728L1177 820.01L1175 820.01ZM1175 860.576L1175 840.293L1177 840.293L1177 860.576L1175 860.576ZM1175 891L1175 880.858L1177 880.858L1177 891L1175 891Z" fill="#EAE7EF"/>
<path opacity="0.25" fill-rule="evenodd" clip-rule="evenodd" d="M1040.98 426C1065.76 437.965 1077.65 467.227 1072.65 497.679C1070.5 510.751 1075.24 525.004 1087.17 530.763L1106.72 540.202C1118.85 546.057 1124 560.679 1117.4 572.422C1096.16 610.243 1068.77 644.338 1036.32 673.287C997.788 707.654 952.865 734.096 904.115 751.102C855.365 768.108 803.743 775.345 752.197 772.401C708.776 769.921 666.126 760.257 625.967 743.856C613.499 738.764 608.438 724.11 614.293 711.982L643.208 652.086C646.678 644.897 655.847 642.701 663.036 646.171C698.886 663.477 740.277 651.968 755.485 620.464C770.694 588.959 753.961 549.39 718.112 532.084C710.923 528.614 706.94 520.068 710.41 512.879L764.015 401.839C769.87 389.711 784.448 384.625 796.577 390.48L930.214 454.994C942.143 460.753 956.249 455.594 965.151 445.784C985.887 422.93 1016.19 414.034 1040.98 426Z" fill="url(#paint0_linear_2024_3388)"/>
<path opacity="0.25" fill-rule="evenodd" clip-rule="evenodd" d="M118.352 484.207C104.241 491.781 86.155 481.483 78.5807 467.371C61.0071 434.63 23.9055 420.356 -4.28816 435.489C-32.4818 450.622 -41.091 489.431 -23.5174 522.172C-15.9431 536.284 -17.3561 557.048 -31.4677 564.622L-91.5083 596.849C-103.375 603.218 -107.905 618.058 -100.693 629.432C-57.5742 697.441 8.70801 747.981 86.3232 771.379C163.938 794.776 247.11 789.289 320.633 756.441C332.929 750.948 337.355 736.077 330.986 724.21L305.738 677.172C302.506 671.15 305.6 663.695 311.622 660.463C341.634 644.354 354.488 609.914 340.332 583.539C326.175 557.165 290.369 548.843 260.356 564.952C254.335 568.184 246.412 566.642 243.18 560.62L194.952 470.768C188.583 458.902 173.8 454.446 161.933 460.815L118.352 484.207Z" fill="url(#paint1_linear_2024_3388)"/>
<path opacity="0.25" fill-rule="evenodd" clip-rule="evenodd" d="M180.145 80.4152C171.154 70.3877 171.943 54.8862 182.633 46.6947C242.299 0.97381 316.57 -22.163 392.159 -18.0414C467.747 -13.9199 539.063 17.1552 593.404 69.0925C603.14 78.3978 602.238 93.893 592.211 102.884L569.241 123.478C559.602 132.12 561.766 148.182 570.409 157.822C593.076 183.103 594.47 218.824 573.522 237.605C552.575 256.387 517.218 251.117 494.55 225.836C485.908 216.196 470.177 212.298 460.537 220.941L393.1 281.404C383.072 290.394 367.655 289.554 358.665 279.526L328.606 246.001C318.559 234.794 323.95 215.994 335.157 205.946C361.161 182.631 365.966 145.578 345.89 123.185C325.813 100.793 288.457 101.54 262.453 124.855C251.246 134.903 231.971 138.219 221.923 127.012L180.145 80.4152Z" fill="url(#paint2_linear_2024_3388)"/>
<path opacity="0.25" fill-rule="evenodd" clip-rule="evenodd" d="M816.364 -42.5564C812.088 -55.3271 818.961 -69.2259 831.973 -72.6994C923.876 -97.2331 1021.9 -87.5198 1107.53 -44.8492C1193.17 -2.17864 1259.95 70.2283 1295.71 158.373C1300.77 170.853 1293.82 184.71 1281.04 188.987L1260.74 195.785C1248.18 199.992 1234.84 193.091 1227.24 182.243C1209.62 157.116 1180.84 144.555 1154.88 153.248C1128.92 161.941 1113.51 189.3 1114.58 219.968C1115.04 233.207 1108.55 246.75 1095.98 250.956L956.056 297.812C943.285 302.089 929.466 295.203 925.19 282.432L887.736 170.584C882.646 155.383 894.801 139.418 910.002 134.328C949.868 120.978 973.219 83.3779 962.158 50.3457C951.097 17.3135 909.812 1.35761 869.946 14.7073C854.745 19.7973 835.427 14.3706 830.337 -0.829695L816.364 -42.5564Z" fill="url(#paint3_linear_2024_3388)"/>
<defs>
<linearGradient id="paint0_linear_2024_3388" x1="975.949" y1="-192.126" x2="1757.12" y2="584.188" gradientUnits="userSpaceOnUse">
<stop stop-color="#76BDFF"/>
<stop offset="1" stop-color="#0C84F2"/>
</linearGradient>
<linearGradient id="paint1_linear_2024_3388" x1="-98.2725" y1="506.294" x2="381.197" y2="681.888" gradientUnits="userSpaceOnUse">
<stop stop-color="#94FFD5"/>
<stop offset="0.499941" stop-color="#66F6BD"/>
<stop offset="1" stop-color="#44F0AC"/>
</linearGradient>
<linearGradient id="paint2_linear_2024_3388" x1="431.008" y1="337.567" x2="545.224" y2="-29.5531" gradientUnits="userSpaceOnUse">
<stop stop-color="#FF9548"/>
<stop offset="1" stop-color="#FFBC8B"/>
</linearGradient>
<linearGradient id="paint3_linear_2024_3388" x1="1273.86" y1="173.047" x2="855.825" y2="-63.7978" gradientUnits="userSpaceOnUse">
<stop stop-color="#FF4980"/>
<stop offset="1" stop-color="#FF82A7"/>
</linearGradient>
</defs>
</svg>
